<svg width="32" height="32" viewBox="0 0 32 32" fill="none" xmlns="http://www.w3.org/2000/svg">
<path d="M16 32C24.8366 32 32 24.8366 32 16C32 7.16344 24.8366 0 16 0C7.16344 0 0 7.16344 0 16C0 24.8366 7.16344 32 16 32Z" fill="#E2FFF6"/>
<path d="M30.5 16C30.5 24.0081 24.0081 30.5 16 30.5C7.99187 30.5 1.5 24.0081 1.5 16C1.5 7.99187 7.99187 1.5 16 1.5C24.0081 1.5 30.5 7.99187 30.5 16Z" stroke="white" stroke-opacity="0.08" stroke-width="3"/>
<mask id="mask0" mask-type="alpha" maskUnits="userSpaceOnUse" x="0" y="0" width="32" height="32">
<path d="M16 32C24.8366 32 32 24.8366 32 16C32 7.16344 24.8366 0 16 0C7.16344 0 0 7.16344 0 16C0 24.8366 7.16344 32 16 32Z" fill="#E2FFF6"/>
<path d="M30.5 16C30.5 24.0081 24.0081 30.5 16 30.5C7.99187 30.5 1.5 24.0081 1.5 16C1.5 7.99187 7.99187 1.5 16 1.5C24.0081 1.5 30.5 7.99187 30.5 16Z" stroke="white" stroke-opacity="0.08" stroke-width="3"/>
</mask>
<g mask="url(#mask0)">
<g filter="url(#filter0_d)">
<path fill-rule="evenodd" clip-rule="evenodd" d="M16.5811 2.89211C16.4265 2.59163 15.9967 2.59163 15.8422 2.89211L14.8478 4.81993H14.8474L12.0383 10.265L12.0384 10.265H12.0382L12.0123 10.3149C11.9785 10.3808 11.9606 10.4534 11.9606 10.5273V12.4977H11.9602L10.0083 14.5239L10.0055 14.5379L9.99991 14.5327L8.37126 16.2235C7.99258 16.617 7.78076 17.1422 7.78076 17.6884V22.4345L4.54688 28.6055V30.8727C4.54688 31.0001 4.65032 31.1036 4.77839 31.1036H10.0083L10.0083 31.1036H12.2436C12.7789 32.3483 14.0162 33.22 15.4574 33.22H16.966C17.3272 33.22 17.6755 33.1652 18.0031 33.0635C18.9831 32.7596 19.7785 32.0363 20.1797 31.1036H22.4759L27.706 31.1036C27.834 31.1036 27.9375 31.0002 27.9375 30.8727V28.6055L24.7036 22.4345V17.6884C24.7036 17.1422 24.4918 16.617 24.1131 16.2235L22.4845 14.5327L22.479 14.5377L22.4759 14.5239L20.524 12.4977H20.4628V10.5273C20.4628 10.4534 20.4449 10.3808 20.4111 10.3149L20.3853 10.2651L20.3854 10.265L17.5763 4.81993H17.5757H17.5755L16.5811 2.89211Z" fill="#E2FFF6"/>
</g>
<path d="M23.5287 19.1299L22.476 14.524L20.5241 12.4978H11.9603L10.0084 14.524L8.87544 20.2928L8.79791 30.1391L10.0084 31.1037H22.476L23.7612 29.0279L23.5287 19.1299Z" fill="#D1D1D1"/>
<path d="M27.9374 28.6055V30.8727C27.9374 31.0002 27.834 31.1036 27.7059 31.1036H22.4758V21.3545V14.5407L22.4844 14.5327L24.113 16.2235C24.4917 16.617 24.7035 17.1422 24.7035 17.6884V22.4346L27.9374 28.6055Z" fill="#ECECEC"/>
<path d="M10.0085 21.355V31.1041H4.77839C4.65032 31.1041 4.54688 31.0007 4.54688 30.8732V28.606L7.78076 22.435V17.6889C7.78076 17.1427 7.99258 16.6175 8.37126 16.224L9.99991 14.5332L10.0085 14.5412V21.355Z" fill="#ECECEC"/>
<path d="M19.7919 27.2439H13.2272L11.9603 28.6057V29.7233C11.9603 31.6542 13.5255 33.2201 15.4571 33.2201H16.9657C18.8973 33.2201 20.4625 31.6542 20.4625 29.7233V28.6057L19.7919 27.2439Z" fill="#FAE2C0"/>
<path d="M16.5807 2.89211C16.4261 2.59163 15.9963 2.59163 15.8418 2.89211L14.8474 4.82001L15.2661 6.26072H17.1774L17.5751 4.82001L16.5807 2.89211Z" fill="#C9BFC8"/>
<path d="M16.7911 4.82001L17.1831 4.05999L16.5807 2.89211C16.4261 2.59163 15.9963 2.59163 15.8418 2.89211L14.8474 4.82001L15.2661 6.26072H17.1774L17.1932 6.20358L16.7911 4.82001Z" fill="#BAAFB9"/>
<path d="M17.576 4.82007H17.5753H14.8476H14.847L12.038 10.2651L13.36 12.9419H19.2466L20.385 10.2651L17.576 4.82007Z" fill="#FAE2C0"/>
<path d="M16.7913 4.82007H14.8476H14.847L12.038 10.2651L13.36 12.9419H15.3043L13.9823 10.2651L16.7913 4.82007Z" fill="#FDDEB0"/>
<path d="M20.4108 10.315L20.3849 10.2651H17.576V10.6475H14.8468V10.2651H12.0379L12.012 10.315C11.9782 10.3809 11.9603 10.4536 11.9603 10.5274V26.4684L14.1412 28.0225H19.167L20.4625 26.4684V10.5274C20.4625 10.4536 20.4447 10.3809 20.4108 10.315V10.315Z" fill="#02D293"/>
<path d="M13.9045 10.5276C13.9045 10.4537 13.9224 10.381 13.9563 10.3151L13.9821 10.2653H13.9823V10.2651H12.0379L12.012 10.315C11.9782 10.3809 11.9603 10.4536 11.9603 10.5274V26.4684L14.1412 28.0225H16.0853L13.9045 26.4686V10.5276Z" fill="#00BD84"/>
<path d="M18.91 31.8998H17.4015C15.4699 31.8998 13.9047 30.3339 13.9047 28.403V27.2439H13.2273L11.9603 28.6056V29.7232C11.9603 31.6542 13.5255 33.22 15.4571 33.22H16.9657C18.1242 33.22 19.1504 32.6564 19.7867 31.7889C19.5065 31.8612 19.2128 31.8998 18.91 31.8998V31.8998Z" fill="#FDDEB0"/>
<path d="M11.9603 26.4685H20.4625V28.6058H11.9603V26.4685Z" fill="#FCCD7F"/>
<path d="M14.8471 10.2651H17.5763V26.4684H14.8471V10.2651Z" fill="#EFEDEF"/>
<path d="M13.9047 28.4031V26.4685H11.9604V28.6058H13.911C13.9071 28.5386 13.9047 28.4712 13.9047 28.4031Z" fill="#FBC56D"/>
</g>
<defs>
<filter id="filter0_d" x="-10.4531" y="-12.3333" width="53.3906" height="60.5533" filterUnits="userSpaceOnUse" color-interpolation-filters="sRGB">
<feFlood flood-opacity="0" result="BackgroundImageFix"/>
<feColorMatrix in="SourceAlpha" type="matrix" values="0 0 0 0 0 0 0 0 0 0 0 0 0 0 0 0 0 0 127 0"/>
<feOffset/>
<feGaussianBlur stdDeviation="7.5"/>
<feColorMatrix type="matrix" values="0 0 0 0 0 0 0 0 0 0.741176 0 0 0 0 0.517647 0 0 0 0.5 0"/>
<feBlend mode="normal" in2="BackgroundImageFix" result="effect1_dropShadow"/>
<feBlend mode="normal" in="SourceGraphic" in2="effect1_dropShadow" result="shape"/>
</filter>
</defs>
</svg>
