
<svg xmlns="http://www.w3.org/2000/svg" xml:space="preserve" width="1675px" height="2050px" version="1.1" style="shape-rendering:geometricPrecision; text-rendering:geometricPrecision; image-rendering:optimizeQuality; fill-rule:evenodd; clip-rule:evenodd"
viewBox="0 0 1675 2050"
 xmlns:xlink="http://www.w3.org/1999/xlink">
 <defs>
  <style type="text/css">
   <![CDATA[
    .str1 {stroke:#BFD0DD;stroke-width:39.9992}
    .str2 {stroke:#DCDDDD;stroke-width:7.99961}
    .str7 {stroke:#BAFFBC;stroke-width:7.99961}
    .str3 {stroke:#FEFEFE;stroke-width:2.99882}
    .str4 {stroke:#F9A388;stroke-width:3.99921;stroke-linecap:round}
    .str5 {stroke:#BFD0DD;stroke-width:39.9992;stroke-linecap:round}
    .str6 {stroke:#000F24;stroke-width:4.99961;stroke-linecap:round}
    .str0 {stroke:#FEFEFE;stroke-width:2.36221;stroke-linecap:round;stroke-linejoin:round}
    .str8 {stroke:#FEFEFE;stroke-width:2.99882;stroke-linecap:round;stroke-linejoin:round}
    .fil4 {fill:none}
    .fil8 {fill:none}
    .fil1 {fill:#FEFEFE}
    .fil11 {fill:#EEEEEF}
    .fil31 {fill:#332C2B}
    .fil28 {fill:#5990AA}
    .fil5 {fill:#000F24}
    .fil27 {fill:#000F24}
    .fil3 {fill:#008EA3}
    .fil7 {fill:#00BD84}
    .fil25 {fill:#07855F}
    .fil9 {fill:#07855F}
    .fil2 {fill:#096473}
    .fil20 {fill:#212A38}
    .fil32 {fill:#272727}
    .fil21 {fill:#323D4F}
    .fil22 {fill:#357092}
    .fil6 {fill:#386E92}
    .fil30 {fill:#5188A3}
    .fil19 {fill:#5EAFCD}
    .fil24 {fill:#67A4C3}
    .fil23 {fill:#B4D2D0}
    .fil0 {fill:#E6FAED}
    .fil14 {fill:#E89329}
    .fil18 {fill:#F73C4F}
    .fil15 {fill:#F7D897}
    .fil17 {fill:#F9A388}
    .fil12 {fill:#FCE0BB}
    .fil13 {fill:#FFBA55}
    .fil10 {fill:white}
    .fil29 {fill:#FEFEFE;fill-opacity:0.501961}
    .fil33 {fill:#FEFEFE;fill-opacity:0.800000}
    .fil26 {fill:#EEEEEF}
    .fil16 {fill:#DCDDDD}
   ]]>
  </style>
    <clipPath id="id0">
     <path d="M709 1582c0,0 45,41 49,177 -6,38 -5,70 -3,94 0,5 -1,11 -1,17l-40 0c-3,-8 -5,-16 -7,-25 -2,-36 -8,-68 -15,-94 -3,-51 1,-109 17,-169z"/>
    </clipPath>
    <clipPath id="id1">
     <path d="M80 1136l1275 341c51,14 105,-17 119,-68l177 -663c14,-51 -17,-105 -68,-119l-1275 -341c-52,-14 -105,17 -119,68l-178 663c-13,52 18,105 69,119z"/>
    </clipPath>
    <clipPath id="id2">
     <path d="M475 1877c0,0 -9,-173 -34,-284 0,0 3,0 4,-33 0,-11 0,-24 -1,-46 0,-7 0,-16 0,-26l0 0 0 0 0 0 0 0 0 0 0 0 0 0 0 0 0 0 0 0 0 0 0 -1 0 0 0 0 0 0 0 0 0 0 0 0 0 0 0 0 0 0 0 0 0 0 0 0 0 0 0 0 0 0 0 -1 0 0 0 0 0 0 0 0 0 0 0 0 0 0 0 0 0 0 0 0 0 -1 0 0 -1 0 0 0 0 -1 0 0 0 0 0 0 0 -1 0 0 0 0 0 -1 0 0 0 -1 0 0 0 0 0 -1 0 0 0 -1 0 0 0 -1 0 0 0 -1 0 0 0 -1 0 -1 0 -1 0 0 0 -1 0 0 0 -1 0 -1 0 -1 0 0 0 -1 0 -1 0 0 0 -1 -1 -1 0 -1 0 -1 0 0 0 -2 0 -1 0 0 0 -1 0 -1 0 -1 0 0 0 -2 0 -1 0 -1 0 0 0 -1 0 -2 0 -1 -1 0 0 -1 0 -3 0 0 0 -1 0 -1 0 -2 0 0 0 -1 0 -2 0 -1 0 0 0 -1 0 -2 -1 -1 1 0c0,4 0,7 0,7 19,7 89,-12 88,-13 1,0 42,237 33,451 -9,1 -25,2 -42,1 -19,0 -36,-2 -45,-3l0 0zm-35 -446l0 -3 0 1 0 2 0 0z"/>
    </clipPath>
    <clipPath id="id3">
     <path d="M416 1601c-11,47 -40,202 -47,273 -9,1 -25,2 -43,2 -19,0 -36,-1 -45,-2 0,0 10,-160 16,-273 29,10 68,13 119,0z"/>
    </clipPath>
    <clipPath id="id4">
     <path d="M716 1087c0,0 9,-22 12,-29 0,0 -5,-25 -1,-31 4,-4 28,-29 33,-27 6,3 -12,35 -12,35l45 0c0,0 0,16 -12,28 -12,13 -19,17 -28,42 -17,2 -30,-9 -37,-18z"/>
    </clipPath>
 </defs>
 <g id="Layer_x0020_1">
  <metadata id="CorelCorpID_0Corel-Layer"/>
  <g id="_110734257584">
   <circle class="fil0" cx="1016" cy="335" r="39"/>
   <path class="fil0" d="M514 341c67,-45 184,-99 305,-34 171,92 211,196 301,40 128,-223 656,-122 471,283l-1077 -289z"/>
   <path class="fil0" d="M1611 2050c0,0 75,-161 63,-357 -3,-45 -44,-68 -58,-6 -17,77 2,309 -65,363l60 0z"/>
   <path class="fil0" d="M1592 1523c2,35 12,89 33,89 28,0 33,-29 32,-43 -3,-65 -69,-136 -65,-46z"/>
   <path class="fil0" d="M1486 2050c384,-985 -628,-1145 -441,-771 101,200 58,550 -91,440 -149,-109 -374,-167 -419,-12 -45,154 -196,202 -208,-14 -11,-184 -179,-224 -268,-135 -116,118 -3,374 67,492 0,0 1360,0 1360,0z"/>
   <polygon class="fil1" points="637,1870 811,1870 765,2050 683,2050 "/>
   <path class="fil2" d="M769 1870c11,-48 34,-120 79,-143 -5,115 -47,143 -47,143l-32 0z"/>
   <path class="fil3" d="M809 1611c0,0 15,64 -6,164 -17,30 -28,66 -34,95l-12 0c-7,-45 -11,-143 52,-259z"/>
   <path class="fil2" d="M709 1582c0,0 45,41 49,177 -6,38 -5,70 -3,94 0,5 -1,11 -1,17l-40 0c-3,-8 -5,-16 -7,-25 -2,-36 -8,-68 -15,-94 -3,-51 1,-109 17,-169z"/>
   <g style="clip-path:url(#id0)">
    <g>
     <path id="1" class="fil4 str0" d="M714 1618c5,18 13,33 14,54 2,30 -15,32 -11,57 2,12 19,26 19,42 0,16 -13,25 -14,49 0,17 5,36 14,50"/>
    </g>
   </g>
   <path class="fil4" d="M709 1582c0,0 45,41 49,177 -6,38 -5,70 -3,94 0,5 -1,11 -1,17l-40 0c-3,-8 -5,-16 -7,-25 -2,-36 -8,-68 -15,-94 -3,-51 1,-109 17,-169z"/>
   <path class="fil3" d="M679 1870c-19,-46 -40,-122 -29,-216 0,0 60,84 57,216l-28 0z"/>
   <path class="fil2" d="M634 1779c0,0 14,12 26,31 5,23 12,43 19,59l0 1 -27 0c-14,-18 -26,-47 -18,-91z"/>
   <path class="fil4 str0" d="M660 1700c0,0 21,73 29,153"/>
   <polygon class="fil5" points="811,1870 832,1870 786,2050 765,2050 "/>
   <path class="fil4 str1" d="M1131 1401c0,0 34,272 218,172"/>
   <circle class="fil6" cx="1131" cy="1401" r="30"/>
   <path class="fil7" d="M80 1136l1275 341c51,14 105,-17 119,-68l177 -663c14,-51 -17,-105 -68,-119l-1275 -341c-52,-14 -105,17 -119,68l-178 663c-13,52 18,105 69,119z"/>
   <g style="clip-path:url(#id1)">
    <g>
     <path id="1" class="fil8 str2" d="M801 365c0,0 280,119 218,285 -17,46 -136,295 -17,286 90,-8 14,-224 152,-241 76,-9 4,161 -86,317 -87,152 -320,269 -163,391"/>
     <path class="fil8 str2" d="M1407 1564c-27,4 -505,-151 -398,-301 107,-150 406,206 445,61 39,-146 33,-324 156,-205"/>
     <path class="fil8 str2" d="M1454 514c0,0 18,229 -97,330 -115,100 -171,259 -97,306 73,47 151,30 182,-109 31,-140 141,-155 233,-31 91,124 159,-94 118,-144 -41,-49 -323,21 -258,-163 64,-184 46,-157 46,-157"/>
     <path class="fil8 str2" d="M1077 413c0,0 178,150 182,296 4,146 97,66 111,-52 15,-118 -62,-250 -62,-250"/>
     <path class="fil8 str2" d="M1124 646c-16,-13 -22,-58 -15,-81 8,-26 65,27 65,64 0,31 -36,29 -50,17z"/>
     <path class="fil8 str2" d="M1117 1356c-14,-14 -36,-41 -27,-66 10,-27 113,63 91,82 -14,12 -51,-4 -64,-16z"/>
     <g>
      <circle class="fil9" transform="matrix(-3.85712 -1.03351 -1.03351 3.85712 1245.08 1002.48)" r="60"/>
      <path class="fil10" d="M1007 1044c16,90 82,166 176,192 93,25 189,-9 247,-78 -22,-48 -58,-89 -102,-118 -23,32 -63,48 -103,37 -40,-10 -67,-45 -70,-83 -53,2 -104,20 -148,50z"/>
      <circle class="fil10" transform="matrix(-6.06682 -1.6256 -1.6256 6.06682 1249.6 985.575)" r="15"/>
      <path class="fil11" d="M1332 1043c-1,-1 -3,-2 -4,-3 -23,32 -63,48 -103,37 -40,-10 -67,-45 -70,-83 -2,0 -4,0 -6,0l0 2c-14,50 16,102 67,116 50,13 102,-17 116,-67l0 -2z"/>
     </g>
    </g>
   </g>
   <path class="fil4" d="M80 1136l1275 341c51,14 105,-17 119,-68l177 -663c14,-51 -17,-105 -68,-119l-1275 -341c-52,-14 -105,17 -119,68l-178 663c-13,52 18,105 69,119z"/>
   <rect class="fil10" x="560" y="955" width="398.671" height="80.0006" rx="45" ry="40"/>
   <path class="fil12" d="M381 779c42,-6 70,22 80,60 14,50 13,130 -40,138 -35,5 -75,-15 -85,-49l0 0c0,0 0,0 -2,0 -7,1 -18,-12 -23,-28 -5,-15 -4,-33 17,-29 -4,-43 5,-85 53,-92z"/>
   <g>
    <path class="fil13" d="M632 1211c27,-47 78,-132 78,-132l51 23c0,0 -33,111 -83,187 -51,77 -83,52 -83,52 2,114 10,203 10,203 -18,19 -43,30 -55,34 -10,-89 -20,-150 -21,-150 0,-9 0,-18 1,-28 5,-57 12,-128 20,-161 13,-54 -15,-86 -31,-115 -12,-21 -51,-102 -51,-102l0 0 0 0 0 1 1 0 0 0 -1 -6c52,28 103,166 145,198 8,6 17,-1 19,-4zm-163 -187l0 0 0 1 0 0 0 -1zm0 3l0 0 0 1 0 0 0 -1z"/>
   </g>
   <path class="fil14" d="M595 1341c2,114 10,203 10,203 -18,19 -43,30 -55,34 -10,-89 -20,-150 -21,-150l0 -1 0 0 0 -1 0 0 0 0 0 -1 0 0 0 -1 0 0 0 0 0 -1 0 0 0 -1 0 0 0 0 0 0 0 -1 0 0 0 0 0 -1 0 0 0 0 0 -1 0 0 0 0 0 0 0 -1 0 0 0 0 0 -1 0 0 0 0 0 0 0 0 0 -1 0 0 0 -1 0 0 0 0 0 -1 0 0 0 0 0 0 0 0 0 -1 0 0 0 -1 0 0 0 0 0 0 0 -1 0 0 0 0 0 0 0 -1 0 0 0 0 0 0 0 0 0 0 0 -1 0 0 0 0 0 0 0 -1 0 0 0 0 0 0 0 -1 0 0 0 0 0 0 0 0 1 -1 0 0 0 -1 0 0 0 0 0 0 0 -1 0 0 0 0 0 0 0 -1 0 0 0 0 0 0 0 -1 0 0 0 0 0 -1 0 0 0 -1c4,-51 9,-127 16,-165 1,-5 1,-9 2,-12l0 -1c13,-54 -20,-94 -36,-123 -12,-21 -44,-77 -44,-77 0,0 0,-5 0,-5 103,125 119,230 127,324z"/>
   <path class="fil10" d="M417 1022c0,0 -3,54 -3,54 0,0 -48,-34 -68,-56 -31,42 47,113 67,187 21,80 28,234 28,234 19,7 89,-12 88,-13 0,-9 0,-18 1,-28 5,-57 10,-145 18,-178 13,-54 -20,-94 -36,-123 -12,-21 -44,-77 -44,-77l2 38 -18 -14c-1,-2 -2,-5 -3,-7 -3,-4 -7,-6 -11,-8 -4,-2 -9,-2 -13,-1l-8 -8z"/>
   <path class="fil13" d="M339 1011c-17,2 -21,16 -21,16 0,0 -94,60 -125,114 -100,174 -125,254 67,287 0,0 -8,69 -37,110 0,0 51,113 218,55 0,0 6,0 3,-107 0,0 -10,-199 -31,-279 -20,-74 -98,-145 -67,-187 -3,-3 -5,-6 -7,-9zm-74 336c0,0 5,-77 0,-122 0,0 -26,40 -43,69 -18,29 5,41 43,53z"/>
   <path class="fil15" d="M339 1011c-6,1 -11,3 -14,6 -5,5 -7,9 -7,10 -5,15 7,81 11,129 2,27 -2,49 -2,49l47 -35 -37 58c0,0 57,37 65,103 15,117 20,202 4,272 0,0 19,-4 35,-10 0,0 6,0 3,-107 0,0 -10,-199 -31,-279 0,-1 -1,-2 -1,-3 0,-2 -1,-3 -1,-4 0,-1 -1,-2 -1,-3l0 0c-1,-1 -1,-3 -1,-4l0 0c-1,-1 -1,-2 -2,-3 0,-1 0,-3 -1,-4l0 0c0,-1 -1,-2 -1,-3l0 0c-1,-1 -1,-2 -2,-4 0,-1 -1,-2 -1,-3l0 0c-1,-1 -1,-2 -2,-3l0 0c0,-1 -1,-3 -1,-4l0 0c-1,-1 -2,-2 -2,-3l0 0c-1,-1 -1,-2 -2,-4l0 0c0,-1 -1,-2 -2,-3l0 0c0,-1 -1,-2 -1,-3l0 0c-1,-1 -1,-2 -2,-4l0 0c-1,-1 -1,-2 -2,-3l0 0c-1,-1 -1,-2 -2,-3l0 0c0,-1 -1,-2 -2,-3l0 0c0,-2 -1,-3 -1,-4l0 0c-1,-1 -2,-2 -2,-3l0 0c-1,-1 -2,-2 -2,-3l0 0 -2 -3 0 0 -2 -4 -2 -3 0 0 -2 -3 0 0 -2 -3 -1 -3 0 0c-1,-1 -2,-2 -2,-3l0 0c-1,-1 -1,-2 -2,-3l0 0c-1,-2 -1,-3 -2,-4l0 0c0,-1 -1,-2 -1,-3l0 0c-1,-1 -2,-2 -2,-3l0 0c-1,-1 -1,-2 -2,-3 0,-1 -1,-2 -1,-3l0 0c-1,-1 -1,-2 -2,-2l0 0c0,-1 -1,-2 -1,-3l0 0c-1,-1 -1,-2 -2,-3l0 0c0,-1 -1,-2 -1,-3l0 0c-1,-1 -1,-2 -2,-3l0 0c0,-1 0,-2 -1,-3 0,-1 -1,-2 -1,-3 0,0 -1,-1 -1,-2 0,-1 -1,-2 -1,-3l0 0c0,-1 -1,-2 -1,-3 0,-1 -1,-1 -1,-2 0,-1 0,-2 -1,-3l0 0c0,-1 0,-2 0,-3l0 0c0,0 -1,-1 -1,-2 0,-1 0,-2 0,-3 0,0 -1,-1 -1,-2l0 0c0,-1 0,-2 0,-3 0,0 0,-1 0,-2 0,-1 0,-2 0,-2 0,-1 0,-2 0,-3 0,0 0,-1 0,-2 0,-1 1,-2 1,-2 0,-1 0,-2 0,-3 0,0 1,-1 1,-2 0,0 0,-1 1,-2 0,-1 0,-1 1,-2 0,-1 0,-1 1,-2 0,-1 0,-1 1,-2 0,-1 1,-1 1,-2 -3,-3 -5,-6 -7,-9z"/>
   <path class="fil16" d="M260 1429c51,21 151,31 181,15 -2,-25 -4,-58 -7,-93l-71 -1 -21 21c11,2 18,4 18,4 0,0 -4,4 -7,11l0 0 0 1 -1 0 0 0 0 1 0 0 0 0 0 0 0 0 0 0 0 1 0 0 0 0 0 0 0 0 -1 1 0 0 0 0 0 0 0 1 0 0 0 0 0 0 0 0 0 0 0 1 0 0 0 0 0 0 -1 1 0 0 0 0 0 0 0 1 0 0 0 0 0 0 0 1 0 0 0 0 0 0 0 1 0 0 0 0 -1 1 0 0 0 0c0,1 0,1 0,2l0 0 0 0 0 0c0,1 0,2 -1,3l0 0 0 0 0 0 0 1 0 0c0,1 0,3 0,4l0 0 0 1 0 0c0,3 0,5 0,8l0 0c0,6 1,12 3,18 -26,0 -77,-5 -89,-6l-2 1z"/>
   <path class="fil14" d="M342 1062c0,-1 0,-2 -1,-3l0 0c0,-1 0,-2 0,-3l0 0c0,0 -1,-1 -1,-2 0,-1 0,-2 0,-3 0,0 -1,-1 -1,-2l0 0c0,-1 0,-2 0,-3 0,0 0,-1 0,-2 0,-1 0,-2 0,-2 0,-1 0,-2 0,-3 0,0 0,-1 0,-2 0,-1 1,-2 1,-2 0,-1 0,-2 0,-3 0,0 1,-1 1,-2 0,0 0,-1 1,-2 0,-1 0,-1 1,-2 0,-1 0,-1 1,-2 0,-1 0,-1 1,-2 0,-1 7,-6 8,-7 -3,-3 -12,-1 -14,-4 -10,20 3,51 3,51z"/>
   <path class="fil12" d="M359 960l2 40c11,6 37,18 56,22l8 8c4,-1 9,-1 13,1l-4 -34 -4 -22c-2,1 -5,2 -9,2 -6,1 -13,1 -20,0 -2,0 -4,0 -6,0 -13,-3 -26,-9 -36,-17l0 0z"/>
   <path class="fil17" d="M359 960l0 0 0 0zm0 0l0 0c0,0 7,35 77,55l-2 -18 -4 -22c-2,1 -5,2 -9,2 -6,1 -13,1 -20,0 -2,0 -4,0 -6,0 -13,-3 -26,-9 -36,-17l0 0z"/>
   <path class="fil10" d="M354 997c0,0 37,20 63,25 0,0 -3,54 -3,54 0,0 -62,-44 -75,-65l15 -14z"/>
   <path class="fil18" d="M449 1039c11,16 2,39 -7,40 -10,2 -23,-6 -27,-17l1 -28c10,-7 25,-6 33,5z"/>
   <path class="fil10" d="M434 997l34 15 -16 34c-1,-2 -2,-5 -3,-7 -3,-4 -7,-6 -11,-8l-4 -34z"/>
   <polygon class="fil19" points="468,1012 469,1039 470,1060 452,1046 "/>
   <path class="fil19" d="M417 1022l8 8c-3,1 -6,2 -9,4l1 -12z"/>
   <path class="fil18" d="M428 1076c42,191 24,271 24,271 0,0 20,58 30,62 9,3 36,-56 36,-56 0,0 9,-70 -67,-284 -2,6 -5,10 -9,10 -4,1 -9,0 -14,-3z"/>
   <path class="fil5" d="M475 1877c0,0 -9,-173 -34,-284 0,0 3,0 4,-33 0,-11 0,-24 -1,-46 0,-7 0,-16 0,-26l0 0 0 0 0 0 0 0 0 0 0 0 0 0 0 0 0 0 0 0 0 0 0 -1 0 0 0 0 0 0 0 0 0 0 0 0 0 0 0 0 0 0 0 0 0 0 0 0 0 0 0 0 0 0 0 -1 0 0 0 0 0 0 0 0 0 0 0 0 0 0 0 0 0 0 0 0 0 -1 0 0 -1 0 0 0 0 -1 0 0 0 0 0 0 0 -1 0 0 0 0 0 -1 0 0 0 -1 0 0 0 0 0 -1 0 0 0 -1 0 0 0 -1 0 0 0 -1 0 0 0 -1 0 -1 0 -1 0 0 0 -1 0 0 0 -1 0 -1 0 -1 0 0 0 -1 0 -1 0 0 0 -1 -1 -1 0 -1 0 -1 0 0 0 -2 0 -1 0 0 0 -1 0 -1 0 -1 0 0 0 -2 0 -1 0 -1 0 0 0 -1 0 -2 0 -1 -1 0 0 -1 0 -3 0 0 0 -1 0 -1 0 -2 0 0 0 -1 0 -2 0 -1 0 0 0 -1 0 -2 -1 -1 1 0c0,4 0,7 0,7 19,7 89,-12 88,-13 1,0 42,237 33,451 -9,1 -25,2 -42,1 -19,0 -36,-2 -45,-3l0 0zm-35 -446l0 -3 0 1 0 2 0 0z"/>
   <g style="clip-path:url(#id2)">
    <g id="_110734230160">
     <path id="1" class="fil4 str3" d="M507 1411c0,0 54,293 37,486"/>
    </g>
   </g>
   <path class="fil4" d="M475 1877c0,0 -9,-173 -34,-284 0,0 3,0 4,-33 0,-11 0,-24 -1,-46 0,-7 0,-16 0,-26l0 0 0 0 0 0 0 0 0 0 0 0 0 0 0 0 0 0 0 0 0 0 0 -1 0 0 0 0 0 0 0 0 0 0 0 0 0 0 0 0 0 0 0 0 0 0 0 0 0 0 0 0 0 0 0 -1 0 0 0 0 0 0 0 0 0 0 0 0 0 0 0 0 0 0 0 0 0 -1 0 0 -1 0 0 0 0 -1 0 0 0 0 0 0 0 -1 0 0 0 0 0 -1 0 0 0 -1 0 0 0 0 0 -1 0 0 0 -1 0 0 0 -1 0 0 0 -1 0 0 0 -1 0 -1 0 -1 0 0 0 -1 0 0 0 -1 0 -1 0 -1 0 0 0 -1 0 -1 0 0 0 -1 -1 -1 0 -1 0 -1 0 0 0 -2 0 -1 0 0 0 -1 0 -1 0 -1 0 0 0 -2 0 -1 0 -1 0 0 0 -1 0 -2 0 -1 -1 0 0 -1 0 -3 0 0 0 -1 0 -1 0 -2 0 0 0 -1 0 -2 0 -1 0 0 0 -1 0 -2 -1 -1 1 0c0,4 0,7 0,7 19,7 89,-12 88,-13 1,0 42,237 33,451 -9,1 -25,2 -42,1 -19,0 -36,-2 -45,-3l0 0zm-35 -446l0 -3 0 1 0 2 0 0z"/>
   <path class="fil20" d="M445 1539c0,-7 0,-15 -1,-25 0,-7 0,-16 0,-26l0 0 0 0 0 0 0 0 0 0 0 0 0 0 0 0 0 0 0 0 0 0 0 -1 0 0 0 0 0 0 0 0 0 0 0 0 0 0 0 0 0 0 0 0 0 0 0 0 0 0 0 0 0 0 0 -1 0 0 0 0 0 0 0 0 0 0 0 0 0 0 0 0 0 0 0 0 0 -1 0 0 -1 0 0 0 0 -1 0 0 0 0 0 0 0 -1 0 0 0 0 0 -1 0 0 0 -1 0 0 0 0 0 -1 0 0 0 -1 0 0 0 -1 0 0 0 -1 0 0 0 -1 0 -1 0 -1 0 0 0 -1 0 0 0 -1 0 -1 0 -1 0 0 0 -1 0 -1 0 0 0 -1 -1 -1 0 -1 0 -1 0 0 0 -2 0 -1 0 0 0 -1 0 -1 0 -1 0 0 0 -2 0 -1 0 -1 0 0 0 -1 0 -2 0 -1 -1 0 0 -1 0 -3 0 0 0 -1 0 -1 0 -2 0 0 0 -1 0 -2 0 -1 0 0 0 -1 0 -2 -1 -1 1 0c0,4 0,7 0,7 10,3 33,0 53,-4l0 0c0,0 -13,69 -49,102z"/>
   <path class="fil20" d="M416 1601c-11,47 -40,202 -47,273 -9,1 -25,2 -43,2 -19,0 -36,-1 -45,-2 0,0 10,-160 16,-273 29,10 68,13 119,0z"/>
   <g style="clip-path:url(#id3)">
    <g id="_110734228656">
     <path id="1" class="fil4 str3" d="M397 1578c0,0 -45,251 -53,332"/>
    </g>
   </g>
   <path class="fil4" d="M416 1601c-11,47 -40,202 -47,273 -9,1 -25,2 -43,2 -19,0 -36,-1 -45,-2 0,0 10,-160 16,-273 29,10 68,13 119,0z"/>
   <g>
    <path class="fil5" d="M370 1869c4,1 8,2 8,3 -1,1 -4,1 -9,2 0,-1 1,-3 1,-5zm8 3c0,0 0,0 0,0l0 0zm-104 1l0 0 0 0 0 0 0 -1 0 0 0 0 0 0c0,0 -1,0 -1,0l0 0c0,0 0,0 0,0l0 0c0,0 0,0 0,0l0 0 0 0c0,0 0,0 0,0 0,-1 3,-2 8,-3l0 1 0 1 0 1 0 1 0 1 0 0 0 0 0 0 -7 -1z"/>
   </g>
   <path class="fil21" d="M273 1872l4 28c26,8 89,10 89,10l12 -38c-2,2 -24,4 -52,4 -29,0 -53,-2 -53,-4z"/>
   <path class="fil5" d="M562 1874c7,1 11,2 11,3 0,1 -4,2 -11,2 0,-1 0,-3 0,-5zm-87 3c-5,-1 -8,-2 -8,-3 0,-1 4,-2 8,-2 0,3 0,5 0,5l0 0z"/>
   <path class="fil21" d="M467 1874c0,0 -5,28 13,42l83 -10c0,0 4,-16 10,-29l0 0c-1,3 -25,4 -53,3 -29,-1 -53,-4 -53,-6z"/>
   <path class="fil22" d="M497 1933c0,0 3,23 -3,47 -6,24 -9,60 -4,60l175 0c12,0 29,-15 28,-28 -1,-16 -31,-10 -54,-19 -32,-13 -72,-40 -81,-76 0,0 -14,-4 -18,11 0,0 -28,27 -43,5z"/>
   <path class="fil23" d="M491 1996c-3,21 -5,43 -1,44l0 -1 0 1 0 0 0 0 0 0 0 0 0 0 0 0 0 0 0 0 0 0 0 0 0 0 175 0c0,0 0,0 0,0l0 0 1 0 0 0 0 0 0 0 1 0 0 0 0 0 1 0 0 0 0 0 1 0 0 -1 0 0 0 0c1,0 1,0 1,0l0 0 0 0c0,0 0,0 1,0l0 0 0 0 0 0 1 0 0 0 0 0 0 -1 1 0 0 0 0 0 1 0 0 0 0 0 1 -1 0 0 0 0 0 0c0,0 0,0 1,0l0 0c0,0 0,0 0,0l0 0 0 -1 1 0 0 0 0 0 1 0 0 0 0 -1 1 0 0 0 0 0 0 0 1 -1 0 0 0 0 0 0 1 0 0 -1 0 0 1 0 0 0 0 0 0 0 0 -1 1 0 0 0 0 0 0 -1 1 0 0 0 0 0 0 -1 1 0 0 0 0 0 0 -1 0 0c1,0 2,-1 2,-2l0 0 1 0 0 -1 0 0 0 0c1,-2 2,-3 3,-5l0 0 0 0 0 0c0,-1 0,-1 0,-1l0 0c1,-1 1,-3 2,-4 -31,7 -106,5 -163,5 -6,0 -12,-1 -17,-1 -5,-13 -14,-21 -21,-25l-1 1z"/>
   <path class="fil24" d="M689 2005c-9,-7 -32,-5 -50,-12 -32,-13 -72,-40 -81,-76 0,0 -14,-4 -18,11 0,0 44,93 153,84l-4 -7z"/>
   <path class="fil17" d="M495 1914l2 20c0,-1 0,-1 0,-1 15,22 43,-5 43,-5l0 0 0 0 0 0 0 0 0 0 0 0c0,0 0,0 0,0l0 0 0 0 1 0 0 0 0 0 0 0 0 0 0 0 0 0 0 0 0 0 0 0 0 0 0 0 0 -1 0 0 0 0 0 0 0 -1 0 0 0 0 0 0 0 0 0 0 0 0 0 0 0 0c0,0 0,0 0,0l0 0 0 0 0 0 0 0 0 0 0 0 0 0 0 0 0 0 0 0 0 0 0 0 0 0 0 0 0 0 0 0 0 0 0 0 0 -1 0 0 0 0 0 0 0 0 0 0 0 0 0 0 0 0 0 0 0 0 1 0 0 0 0 0 0 0 0 -1 0 0 0 0 0 0 0 0 0 0 0 0 0 0 0 0c0,0 0,0 0,0l0 0 0 0 0 0 0 0 0 0 0 0 0 0 0 0 0 0 0 -1 0 0 0 0 0 0 0 0 1 0 0 0 0 0 0 0 0 0 0 0 0 0 0 0c0,-1 0,-1 0,-1l0 0 0 0 0 0 0 0 0 0 0 0 0 0c0,0 0,0 0,0l0 0 0 0 0 0 0 0 0 0 0 0 0 0 0 0 0 0 0 0 0 -1 1 0 0 0 0 0 0 0 0 0 0 0c0,0 0,0 0,0l0 0 0 0 0 0 0 0 0 0 0 0 0 0 0 0 0 0 0 0 0 0 0 -1 0 0 0 0 0 0 0 0 1 0 0 0 0 0 0 0 0 0 0 0 0 0 0 0c0,0 0,0 0,0l0 0 0 0 0 0 0 0 0 0 0 0 0 0 0 0c0,0 0,0 1,-1l0 0 0 0 0 0 0 0 0 0 0 0 0 0 0 0 0 0 0 0 0 0 0 0 0 0 0 0 0 0 0 0 0 0 0 0 0 0 0 0 0 0 0 0 0 0 0 0 0 0 0 0 0 0 1 0 0 0 0 0 0 0 0 0 0 0 0 0 0 0 0 0 0 0 0 0 0 0 0 0 0 -1 0 0 0 0 0 0 0 0 1 0 0 0 0 0 0 0 0 0 0 0 0 0 0 0 0 0 0 0 0 0 0 0 0 0 0 0 0 0 0 0 0 0 0 0 0 0 1 0 0 0 0 0 0 0 0 0 0 0 0 0 0 0 0 0 1 -1 0 0 0 0 0 0 0 0 0 0 0 0 0 0 0 0 0 0 0 0 0 0 0 0 0 0c1,0 1,0 1,0l0 0 0 0 0 0 0 0 0 0 0 0 0 0 0 0 0 0 1 0 0 0 0 0 0 0 0 0 0 0 0 0 1 0 0 0 0 0 0 0 0 0 0 0 0 0 0 0 0 0 0 0 1 0 0 0 0 0 0 0 0 0 1 0 0 0 0 0 0 0 0 0 0 0 0 0 0 0 1 0 0 0 0 0 0 0 0 0 0 0 0 0 0 -10 -61 7z"/>
   <path class="fil22" d="M288 1925c0,0 9,-2 13,0 0,0 16,-12 37,0 0,0 8,-4 12,0 -8,43 -1,57 7,76 8,17 10,36 -1,39l-81 0c0,0 -10,-11 4,-39 14,-28 9,-76 9,-76z"/>
   <path class="fil24" d="M301 1925c0,0 16,-12 37,0 0,0 -7,60 -6,96 -12,-1 -22,-1 -32,0 2,-10 7,-48 1,-96z"/>
   <path class="fil23" d="M363 2024c1,8 -1,14 -7,16l-81 0c0,0 -5,-5 -3,-16 17,-3 51,-6 91,0z"/>
   <path class="fil17" d="M291 1924l1 -21c18,4 42,5 58,6l-2 15 0 0c-4,-2 -10,1 -10,1 -21,-12 -37,0 -37,0l0 0c-3,-1 -7,-1 -10,-1l0 0z"/>
   <polygon class="fil23" points="757,1273 757,1369 825,1369 945,1321 945,1321 825,1273 "/>
   <path class="fil24" d="M129 1269l-53 0c-27,0 -49,23 -49,52l0 0c0,28 22,52 49,52l55 0c-20,-26 -18,-60 -2,-104z"/>
   <path class="fil24" d="M757 1373l0 -104 -520 0c-5,8 -10,17 -15,25 -18,29 5,41 43,53 17,8 65,21 86,26l406 0z"/>
   <path class="fil6" d="M129 1269l-53 0c-27,0 -49,23 -49,52l90 0c0,-16 5,-33 12,-52z"/>
   <path class="fil6" d="M735 1269l-498 0c-5,8 -10,17 -15,25 -7,11 -8,20 -4,27l517 0 0 -52z"/>
   <path class="fil6" d="M246 1341l489 0 0 -8 -505 0c5,3 10,5 16,8z"/>
   <path class="fil6" d="M28 1333c1,3 2,5 3,8l86 0c0,-3 0,-6 0,-8l-89 0z"/>
   <polygon class="fil23" points="757,1373 757,1269 735,1269 735,1373 "/>
   <path class="fil25" d="M358 1366c0,0 19,38 -7,68 -8,-40 7,-68 7,-68z"/>
   <path class="fil12" d="M347 1378c12,3 33,3 37,3 0,0 16,-17 19,-18 6,-4 11,-3 18,-5 6,-1 8,-3 9,-3 4,-4 8,10 -9,19 -8,4 -12,11 -12,11 0,0 15,0 37,-8 22,-8 31,-15 33,-10 3,6 -5,10 -5,10 0,0 0,4 -5,12 -4,5 2,8 -3,13 -9,9 -27,33 -67,28 -53,-6 -57,-6 -57,-6 -3,-17 -2,-30 5,-46z"/>
   <path class="fil17" d="M353 1379c12,2 28,2 31,2l0 0 0 0 0 0 0 0 0 0 0 0 0 0 0 0 0 0 0 0 0 0 0 0 0 0 0 0 0 0 0 0 0 0 0 0 0 0 0 0 0 0 0 0 0 0 0 0 0 0 0 0 0 0 0 0 0 0 0 0 0 0 0 0 0 0 0 0 0 0 0 0 0 0 0 0 0 0 0 0 0 0 0 0 0 0 0 0 0 0 0 0 1 0 0 0 0 0 0 0 0 0 0 0 0 0 0 0 0 0 0 0 0 0 0 -1 0 0 0 0 0 0 0 1c0,0 -20,16 -36,24 0,-10 2,-19 4,-26z"/>
   <path class="fil16" d="M271 1269l-34 0c-5,8 -10,17 -15,25 -18,29 5,41 43,53 17,8 65,21 86,26l7 0c-29,-26 -87,-39 -95,-52 -4,-8 2,-32 8,-52z"/>
   <path class="fil16" d="M271 1269l-34 0c-5,8 -10,17 -15,25 -7,11 -8,20 -4,27l45 0c-4,-8 2,-32 8,-52z"/>
   <path class="fil16" d="M281 1333c5,2 11,5 18,8l-53 0c-6,-3 -11,-5 -16,-8l51 0z"/>
   <rect class="fil5" transform="matrix(0.495756 -0.043373 0.0499926 0.571418 376.395 876.347)" width="25.5201" height="39.0626" rx="13" ry="13"/>
   <rect class="fil5" transform="matrix(0.495756 -0.043373 0.0499926 0.571418 441.15 871.567)" width="25.5201" height="39.0626" rx="13" ry="13"/>
   <path class="fil5" d="M430 911c3,-5 3,-11 -4,-12 -4,0 -9,6 -9,13 2,-9 9,-11 12,-9 2,3 1,8 1,8z"/>
   <path class="fil4 str4" d="M315 891c0,0 8,-9 18,-1"/>
   <path class="fil4 str4" d="M333 912c0,0 -9,3 -9,-24"/>
   <path class="fil20" d="M360 991c-23,2 -74,0 -92,-46 -29,-76 42,-107 42,-107 6,-108 181,-96 160,0 0,0 24,62 -4,83 5,-24 2,-52 -3,-75l0 1c-13,25 -55,19 -82,19 -27,0 -37,19 -37,19 -4,-10 -16,-14 -16,-14 -21,-4 -22,14 -17,29 5,16 16,29 23,28 2,0 2,0 2,0l0 0c4,13 12,24 23,32l0 0 1 31z"/>
   <polygon class="fil16" points="757,1273 762,1273 762,1369 757,1369 "/>
   <path class="fil26" d="M339 1011c22,34 48,62 74,83l1 -18c0,0 -62,-44 -75,-65z"/>
   <path class="fil16" d="M424 1095c4,25 22,122 23,174l8 0c-2,-44 -8,-107 -27,-193l0 1c-6,-3 -11,-9 -13,-15l-1 14c7,7 8,11 10,19z"/>
   <path class="fil16" d="M453 1062l18 16 -1 -18 -18 -13c2,5 2,10 1,15z"/>
   <path class="fil16" d="M319 1069c0,0 9,125 -4,159l21 -16 -12 24c0,0 18,13 35,33l19 0c-19,-27 -41,-41 -41,-41l37 -58 -47 35c0,0 4,-22 2,-49 -3,-28 -8,-61 -10,-87l0 0z"/>
   <circle class="fil27" cx="744" cy="1120" r="4"/>
   <circle class="fil27" cx="738" cy="1139" r="4"/>
   <circle class="fil27" cx="431" cy="1523" r="5"/>
   <circle class="fil27" cx="428" cy="1470" r="5"/>
   <path class="fil13" d="M209 1119c-6,8 -12,15 -16,22 -65,114 -99,188 -60,234 23,25 63,42 127,53 0,0 62,6 91,6 -8,-40 7,-68 7,-68 0,0 -72,-8 -93,-19 -38,-12 -61,-24 -43,-53 17,-29 43,-69 43,-69 0,0 15,-125 -56,-106z"/>
   <path class="fil1" d="M353 1379c5,1 9,1 14,2 -1,10 -3,29 -3,45 -7,-1 -11,-1 -15,-2 -2,-19 1,-35 4,-45z"/>
   <path class="fil27" d="M710 1079c0,0 21,36 51,23 10,-15 -52,-31 -51,-23z"/>
   <path class="fil12" d="M716 1087c0,0 9,-22 12,-29 0,0 -5,-25 -1,-31 4,-4 28,-29 33,-27 6,3 -12,35 -12,35l45 0c0,0 0,16 -12,28 -12,13 -19,17 -28,42 -17,2 -30,-9 -37,-18z"/>
   <g style="clip-path:url(#id4)">
    <g>
     <path id="1" class="fil4 str0" d="M749 1035c0,0 8,12 1,23"/>
    </g>
   </g>
   <path class="fil4" d="M716 1087c0,0 9,-22 12,-29 0,0 -5,-25 -1,-31 4,-4 28,-29 33,-27 6,3 -12,35 -12,35l45 0c0,0 0,16 -12,28 -12,13 -19,17 -28,42 -17,2 -30,-9 -37,-18z"/>
   <polygon class="fil20" points="889,1343 945,1321 945,1321 889,1299 "/>
   <g>
    <path class="fil24" d="M1373 1860c49,0 90,41 90,90 0,50 -41,90 -90,90 -50,0 -90,-40 -90,-90 0,-49 40,-90 90,-90zm0 50c22,0 40,18 40,40 0,22 -18,40 -40,40 -22,0 -40,-18 -40,-40 0,-22 18,-40 40,-40z"/>
    <path class="fil6" d="M1383 1910c26,0 47,21 47,47 0,27 -21,48 -47,48 -24,0 -43,-17 -47,-40 6,15 20,25 37,25 22,0 40,-18 40,-40 0,-21 -16,-38 -37,-40 2,0 4,0 7,0z"/>
   </g>
   <path class="fil24" d="M1359 1478l96 9c41,3 82,40 69,77l-65 195c-12,37 -40,68 -82,64l0 0c-42,-4 -64,-38 -70,-77l-30 -204c-6,-38 40,-67 82,-64z"/>
   <path class="fil6" d="M1492 1662l-33 97c-12,37 -40,68 -82,64l0 0c-23,-2 -39,-13 -51,-29 38,5 78,3 98,-17 42,-43 66,-111 68,-115z"/>
   <path class="fil6" d="M1469 1507c25,0 46,21 46,46 0,26 -21,46 -46,46 -26,0 -46,-20 -46,-46 0,-25 20,-46 46,-46z"/>
   <circle class="fil20" cx="1469" cy="1553" r="36"/>
   <path class="fil24" d="M1325 1279c62,17 219,59 200,132 -21,77 -181,32 -240,16 19,5 43,-24 53,-65 11,-41 5,-78 -13,-83z"/>
   <ellipse class="fil28" transform="matrix(4.06579 1.08943 -0.165293 0.616881 1305.12 1353.2)" rx="8" ry="120"/>
   <path class="fil5" d="M1299 1425c15,-7 31,-32 39,-63 9,-31 7,-60 -2,-74 -16,7 -31,32 -40,63 -8,31 -7,60 3,74z"/>
   <path class="fil29" d="M1325 1279c-44,-12 -89,12 -100,53 -11,40 16,83 60,95 1,0 2,0 3,1 18,1 40,-27 50,-66 11,-41 5,-78 -13,-83z"/>
   <path class="fil6" d="M1491 1370c15,6 24,22 20,38 -5,16 -21,26 -37,23 12,-4 21,-13 24,-26 4,-13 0,-25 -7,-35z"/>
   <circle class="fil6" transform="matrix(0.616881 0.165293 -0.165293 0.616881 1461.61 1395.16)" r="36"/>
   <path class="fil20" d="M1539 1298l-71 85c-1,-1 -2,-1 -3,-1 -7,-2 -15,2 -17,10 -2,7 3,15 10,17 7,2 15,-3 17,-10 1,-5 0,-9 -3,-13l71 -84c3,0 5,0 7,-2l23 -28c2,-3 2,-7 -1,-9l0 0c-3,-3 -7,-2 -9,0l-23 28c-2,2 -2,5 -1,7zm4 4c0,0 0,0 0,-1 0,1 0,1 0,1zm-1 -1c0,0 0,0 0,0 0,0 0,0 0,0zm-1 0c0,0 0,0 0,0 0,0 0,0 0,0zm0 0c0,0 0,-1 0,-1 0,0 0,1 0,1zm0 -1c-1,0 -1,0 -1,0 0,0 0,0 1,0zm-1 0c0,0 0,0 0,0 0,0 0,0 0,0zm0 -1c0,0 -1,0 -1,0 0,0 1,0 1,0zm-1 0c0,0 0,0 0,-1 0,1 0,1 0,1z"/>
   <path class="fil24" d="M1431 1454l-3 30 -31 -2 3 -31c10,2 21,3 31,3z"/>
   <path class="fil30" d="M1431 1454l-1 7c-10,3 -21,5 -32,8l2 -17c10,1 21,2 31,2z"/>
   <path class="fil4 str5" d="M1215 1434c0,0 80,241 250,126"/>
   <circle class="fil6" cx="1215" cy="1434" r="30"/>
   <path class="fil4 str6" d="M392 936c0,0 12,17 33,7"/>
   <g>
    <rect class="fil31" x="1207" y="2040" width="467.627" height="10.001"/>
    <rect class="fil5" y="2040" width="1115.18" height="10.001"/>
   </g>
   <rect class="fil10" transform="matrix(1.23092 0.329823 -0.276072 1.03032 320.75 579.274)" width="470.834" height="75" rx="38" ry="38"/>
   <rect class="fil4 str7" transform="matrix(1.23091 0.329822 -0.305549 1.14032 297.164 527.607)" width="470.834" height="75" rx="38" ry="38"/>
   <g>
    <rect class="fil24" x="1451" width="13.3187" height="512.972"/>
    <g id="_110734203984">
     <polygon class="fil32" points="1465,493 1465,505 1451,491 1451,480 "/>
     <polygon class="fil32" points="1465,461 1465,473 1451,460 1451,448 "/>
     <polygon class="fil32" points="1465,430 1465,441 1451,428 1451,416 "/>
     <polygon class="fil32" points="1465,398 1465,410 1451,396 1451,385 "/>
     <polygon class="fil32" points="1465,366 1465,378 1451,365 1451,353 "/>
    </g>
    <rect class="fil20" x="1436" y="513" width="42.9839" height="177.99"/>
    <rect class="fil10" x="1442" y="691" width="32.6919" height="40.2592"/>
    <polygon class="fil32" points="1465,333 1465,345 1451,331 1451,320 "/>
    <polygon class="fil32" points="1465,301 1465,313 1451,300 1451,288 "/>
    <polygon class="fil32" points="1465,270 1465,281 1451,268 1451,256 "/>
    <polygon class="fil32" points="1465,238 1465,250 1451,236 1451,225 "/>
    <polygon class="fil32" points="1465,206 1465,218 1451,205 1451,193 "/>
    <polygon class="fil32" points="1465,176 1465,188 1451,175 1451,163 "/>
    <polygon class="fil32" points="1465,145 1465,156 1451,143 1451,131 "/>
    <polygon class="fil32" points="1465,113 1465,125 1451,111 1451,100 "/>
    <polygon class="fil32" points="1465,81 1465,93 1451,80 1451,68 "/>
    <polygon class="fil32" points="1465,50 1465,61 1451,48 1451,36 "/>
    <polygon class="fil32" points="1465,20 1465,31 1451,18 1451,6 "/>
    <g id="_110734263984">
     <rect class="fil24" transform="matrix(0.774441 0.0270441 -0.0472024 1.3517 1579.54 0.149529)" width="17.1874" height="246.096"/>
     <polygon class="fil32" points="1582,306 1582,317 1569,304 1569,292 "/>
     <polygon class="fil32" points="1583,274 1583,286 1570,272 1570,260 "/>
     <polygon class="fil32" points="1584,243 1584,254 1571,240 1572,229 "/>
     <polygon class="fil32" points="1586,211 1585,222 1572,209 1573,197 "/>
     <polygon class="fil32" points="1587,179 1586,191 1573,177 1574,165 "/>
     <rect class="fil20" transform="matrix(0.774441 0.0270441 -0.0787224 2.25431 1553.1 332.28)" width="55.4693" height="78.9071"/>
     <rect class="fil10" transform="matrix(0.774441 0.0270441 -0.0270441 0.774441 1552.03 510.341)" width="42.1878" height="51.9532"/>
     <polygon class="fil32" points="1588,146 1587,158 1575,144 1575,132 "/>
     <polygon class="fil32" points="1589,114 1588,126 1576,112 1576,101 "/>
     <polygon class="fil32" points="1590,83 1590,94 1577,80 1577,69 "/>
     <polygon class="fil32" points="1591,51 1591,63 1578,49 1578,37 "/>
     <polygon class="fil32" points="1592,19 1592,31 1579,17 1579,6 "/>
    </g>
    <g id="_110734257296">
     <polygon class="fil24" points="1353,2 1324,418 1311,417 1340,2 "/>
     <polygon class="fil32" points="1326,398 1325,409 1313,395 1313,384 "/>
     <polygon class="fil32" points="1328,366 1327,378 1315,364 1316,352 "/>
     <polygon class="fil32" points="1330,335 1329,346 1317,332 1318,320 "/>
     <polygon class="fil32" points="1332,303 1332,315 1319,300 1320,289 "/>
     <polygon class="fil32" points="1335,271 1334,283 1321,269 1322,257 "/>
     <polygon class="fil20" points="1296,416 1339,419 1327,597 1284,594 "/>
     <polygon class="fil10" points="1289,594 1322,596 1319,636 1286,634 "/>
     <polygon class="fil32" points="1337,238 1336,250 1324,236 1325,224 "/>
     <polygon class="fil32" points="1339,207 1338,218 1326,204 1327,192 "/>
     <polygon class="fil32" points="1341,175 1341,187 1328,172 1329,161 "/>
     <polygon class="fil32" points="1344,143 1343,155 1330,141 1331,129 "/>
     <polygon class="fil32" points="1346,112 1345,123 1333,109 1333,98 "/>
     <polygon class="fil32" points="1348,79 1347,90 1335,76 1336,64 "/>
     <polygon class="fil32" points="1350,47 1350,59 1337,44 1338,33 "/>
     <polygon class="fil32" points="1353,15 1352,27 1339,13 1340,1 "/>
    </g>
   </g>
   <rect class="fil32" x="1234" width="441.412" height="9.99981"/>
   <path class="fil33" d="M1295 1309c4,0 7,3 7,7 0,4 -3,6 -7,6 -4,0 -7,-2 -7,-6 0,-4 3,-7 7,-7z"/>
   <path class="fil33" d="M1272 1328c9,0 16,7 16,16 0,9 -7,16 -16,16 -9,0 -16,-7 -16,-16 0,-9 7,-16 16,-16z"/>
   <path class="fil4 str8" d="M349 861c19,-20 31,-14 52,-10 20,4 43,4 53,-18"/>
   <path class="fil4 str8" d="M340 856c0,0 19,-34 60,-16"/>
  </g>
 </g>
</svg>
