<?xml version="1.0" encoding="UTF-8"?>
<!DOCTYPE svg PUBLIC "-//W3C//DTD SVG 1.1//EN" "http://www.w3.org/Graphics/SVG/1.1/DTD/svg11.dtd">
<!-- Creator: CorelDRAW X7 -->
<svg xmlns="http://www.w3.org/2000/svg" xml:space="preserve" width="1675px" height="2050px" version="1.1" style="shape-rendering:geometricPrecision; text-rendering:geometricPrecision; image-rendering:optimizeQuality; fill-rule:evenodd; clip-rule:evenodd"
viewBox="0 0 1675 2050"
 xmlns:xlink="http://www.w3.org/1999/xlink">
 <defs>
  <style type="text/css">
   <![CDATA[
    .str4 {stroke:#FEFEFE;stroke-width:2.99882}
    .str1 {stroke:#212A38;stroke-width:3.99921;stroke-linecap:round;stroke-linejoin:round}
    .str3 {stroke:#67A4C3;stroke-width:3.99921;stroke-linecap:round;stroke-linejoin:round}
    .str0 {stroke:#FFBA55;stroke-width:3.99921;stroke-linecap:round;stroke-linejoin:round}
    .str8 {stroke:#B6B6B7;stroke-width:4.99961;stroke-linecap:round;stroke-linejoin:round}
    .str5 {stroke:#FEFEFE;stroke-width:2.99882;stroke-linecap:round;stroke-linejoin:round}
    .str6 {stroke:#C9CACA;stroke-width:2.99882;stroke-linecap:round;stroke-linejoin:round}
    .str2 {stroke:#212A38;stroke-width:2.99882;stroke-linecap:round;stroke-linejoin:round}
    .str7 {stroke:#F9A388;stroke-width:2.99882;stroke-linecap:round;stroke-linejoin:round}
    .fil1 {fill:none}
    .fil25 {fill:#FEFEFE}
    .fil29 {fill:#EEEEEF}
    .fil20 {fill:#DCDDDD}
    .fil21 {fill:#C9CACA}
    .fil13 {fill:#332C2B}
    .fil27 {fill:#52849D}
    .fil26 {fill:#259069}
    .fil17 {fill:#000F24}
    .fil14 {fill:#00BD84}
    .fil23 {fill:#07855F}
    .fil16 {fill:#08946A}
    .fil5 {fill:#212A38}
    .fil7 {fill:#2C627D}
    .fil3 {fill:#386E92}
    .fil2 {fill:#67A4C3}
    .fil15 {fill:#97F7B9}
    .fil10 {fill:#E6876A}
    .fil0 {fill:#E6FAED}
    .fil9 {fill:#EBC492}
    .fil18 {fill:#F73C4F}
    .fil12 {fill:#F9A388}
    .fil22 {fill:#F9A388}
    .fil11 {fill:#FCE0BB}
    .fil24 {fill:#FF2852}
    .fil6 {fill:#FFBA55}
    .fil4 {fill:white}
    .fil28 {fill:#EEEEEF}
    .fil19 {fill:#C9CACA}
    .fil8 {fill:#001027}
   ]]>
  </style>
    <clipPath id="id0">
     <path d="M1117 1786c284,104 446,-226 405,-480l-409 426c1,19 3,37 4,54z"/>
    </clipPath>
    <clipPath id="id1">
     <path d="M935 1499c11,15 32,30 32,30 31,85 66,367 66,367 0,0 74,-28 90,0 -5,-109 -21,-326 -42,-435 -58,-3 -118,17 -153,32 4,4 7,6 7,6zm-45 -54c-1,-15 -1,-33 -1,-55 -10,0 -19,0 -27,-1l0 0 0 0c9,22 18,40 28,56zm-51 -59l-2 0 2 0zm50 1l0 0 0 1 0 -1z"/>
    </clipPath>
    <clipPath id="id2">
     <path d="M813 1378c0,0 -48,401 -19,528 2,0 86,-30 90,-5 0,-27 38,-412 51,-402 0,0 -3,-2 -7,-6 -20,8 -32,14 -32,14 0,0 -4,-17 -6,-62 -10,-16 -19,-34 -28,-56l0 0c-30,-2 -48,-10 -49,-10l0 0 0 -1z"/>
    </clipPath>
    <clipPath id="id3">
     <path d="M813 1378c0,0 -48,401 -19,528 2,0 86,-30 90,-5 0,-27 38,-412 51,-402 0,0 -3,-2 -7,-6 -20,8 -32,14 -32,14 0,0 -4,-17 -6,-62 -10,-16 -19,-34 -28,-56l0 0c-30,-2 -48,-10 -49,-10l0 0 0 -1z"/>
    </clipPath>
    <clipPath id="id4">
     <path d="M1004 887c11,4 9,17 2,31 -23,40 -34,53 -52,99 -23,56 -45,134 -55,236 -21,200 -10,262 -10,262 0,0 108,-51 202,-36l-4 57c0,0 31,34 89,7 0,0 17,-75 16,-238 -2,-161 -67,-312 -149,-381 3,-21 -18,-42 -39,-37z"/>
    </clipPath>
    <clipPath id="id5">
     <path d="M1117 1786c284,104 446,-226 405,-480l-409 426c1,19 3,37 4,54z"/>
    </clipPath>
    <clipPath id="id6">
     <path d="M935 1499c11,15 32,30 32,30 31,85 66,367 66,367 0,0 74,-28 90,0 -5,-109 -21,-326 -42,-435 -58,-3 -118,17 -153,32 4,4 7,6 7,6zm-45 -54c-1,-15 -1,-33 -1,-55 -10,0 -19,0 -27,-1l0 0 0 0c9,22 18,40 28,56zm-51 -59l-2 0 2 0zm50 1l0 0 0 1 0 -1z"/>
    </clipPath>
    <clipPath id="id7">
     <path d="M813 1378c0,0 -48,401 -19,528 2,0 86,-30 90,-5 0,-27 38,-412 51,-402 0,0 -3,-2 -7,-6 -20,8 -32,14 -32,14 0,0 -4,-17 -6,-62 -10,-16 -19,-34 -28,-56l0 0c-30,-2 -48,-10 -49,-10l0 0 0 -1z"/>
    </clipPath>
    <clipPath id="id8">
     <path d="M813 1378c0,0 -48,401 -19,528 2,0 86,-30 90,-5 0,-27 38,-412 51,-402 0,0 -3,-2 -7,-6 -20,8 -32,14 -32,14 0,0 -4,-17 -6,-62 -10,-16 -19,-34 -28,-56l0 0c-30,-2 -48,-10 -49,-10l0 0 0 -1z"/>
    </clipPath>
    <clipPath id="id9">
     <path d="M1004 887c11,4 9,17 2,31 -23,40 -34,53 -52,99 -23,56 -45,134 -55,236 -21,200 -10,262 -10,262 0,0 108,-51 202,-36l-4 57c0,0 31,34 89,7 0,0 17,-75 16,-238 -2,-161 -67,-312 -149,-381 3,-21 -18,-42 -39,-37z"/>
    </clipPath>
 </defs>
 <g id="Layer_x0020_1">
  <metadata id="CorelCorpID_0Corel-Layer"/>
  <g id="_110734231184">
   <path class="fil0" d="M194 2043c-76,-87 -216,-281 -173,-533 0,0 -94,257 116,535 0,0 57,-2 57,-2z"/>
   <path class="fil0" d="M265 2039c-104,-84 -180,-187 -207,-339 -40,-220 25,-485 276,-466 213,17 263,292 473,195 186,-85 411,-251 590,-224 365,55 304,652 191,834l-65 0c197,-257 -23,-705 -23,-705 124,403 -1,611 -91,705l-1144 0z"/>
   <path class="fil1 str0" d="M1328 1830l-6 22 -37 149 -10 40m319 0l-101 -280"/>
   <path class="fil1 str0" d="M1322 1856l258 146m-293 -9l230 -164"/>
   <path class="fil1 str1" d="M503 1463l-295 0 -60 576m414 0l-59 -576"/>
   <polyline class="fil1 str1" points="562,2039 355,1470 148,2039 "/>
   <g>
    <path class="fil2" d="M586 1833c11,-9 41,2 64,-11l-30 -10 41 1c2,-2 4,-5 6,-7 8,-14 15,-26 22,-35l-8 -9 17 -1c11,-10 23,-14 42,-11 -46,-35 -92,-28 -123,-4l4 8 -14 1c-20,21 -30,51 -21,78z"/>
    <path class="fil3" d="M433 1700c0,0 -2,25 3,51l14 13 -12 -2c18,71 59,38 77,75 12,-18 18,-38 19,-57l-18 -27 18 9c-2,-17 -8,-34 -16,-50 -20,3 -43,0 -60,-4l25 -10 -42 5c-5,-2 -8,-3 -8,-3z"/>
    <path class="fil2" d="M393 1633c-3,7 -4,19 0,30l17 5 -14 4c6,12 17,24 37,28 0,0 3,1 8,3l42 -5 -25 10c17,4 40,8 60,5 -19,-34 -52,-62 -88,-74l-3 10 -3 -12c-10,-3 -21,-4 -31,-4z"/>
    <path class="fil1 str2" d="M533 2039c0,0 0,-106 -18,-202 -9,-43 -27,-94 -39,-115"/>
    <path class="fil1 str2" d="M671 1744c0,0 -59,13 -85,89 -14,42 -26,107 -31,206"/>
    <path class="fil2" d="M570 1817l-15 8c0,0 -24,-31 -8,-98l11 -4 -8 -7c1,-6 3,-13 6,-20 31,-88 113,-89 113,-89 0,0 -36,21 -43,69l-13 3 13 6 -1 1c-1,20 -1,38 -3,55 0,0 -3,3 -5,5l4 8 -14 1c-14,15 -23,33 -24,53l0 0c-4,3 -8,6 -13,9z"/>
    <path class="fil3" d="M570 1817l-15 8c0,0 -3,-4 -6,-11 11,-16 24,-36 29,-54 0,0 24,-11 45,-26 0,3 -1,5 -1,7 0,0 -3,3 -5,5l4 8 -14 1c-14,15 -23,33 -24,53l0 0c-4,3 -8,6 -13,9z"/>
    <path class="fil1 str2" d="M598 1666c0,0 -37,61 -43,159 -3,59 -8,134 23,214"/>
    <polygon class="fil4" points="517,2039 575,2039 608,1880 484,1880 "/>
    <polygon class="fil5" points="575,2039 588,2039 621,1880 608,1880 "/>
   </g>
   <path class="fil0" d="M587 1308c45,45 131,111 244,67 0,0 44,-44 -18,-57 -61,-14 -131,12 -186,-46 -69,-74 -92,-16 -40,36z"/>
   <path class="fil1 str3" d="M1234 1821l-8 31 -37 149 -10 38m317 0l-50 -240"/>
   <path class="fil1 str3" d="M1226 1856l259 127m-294 10l261 -153"/>
   <path class="fil6" d="M1117 1787c166,69 318,55 382,-34 115,-161 23,-447 23,-447l-409 426c1,19 3,38 4,55z"/>
   <path class="fil2" d="M1117 1786c284,104 446,-226 405,-480l-409 426c1,19 3,37 4,54z"/>
   <g style="clip-path:url(#id0)">
    <g>
     <path id="1" class="fil1 str4" d="M1165 1820c0,0 176,-294 362,-394"/>
    </g>
   </g>
   <path class="fil1" d="M1117 1786c284,104 446,-226 405,-480l-409 426c1,19 3,37 4,54z"/>
   <path class="fil7" d="M1184 1803c198,27 324,-167 342,-366 -138,98 -277,276 -342,366z"/>
   <ellipse class="fil0" cx="520" cy="1211" rx="27" ry="29"/>
   <g>
    <path class="fil5" d="M935 1499c11,15 32,30 32,30 31,85 66,367 66,367 0,0 74,-28 90,0 -5,-109 -21,-326 -42,-435 -58,-3 -118,17 -153,32 4,4 7,6 7,6zm-45 -54c-1,-15 -1,-33 -1,-55 -10,0 -19,0 -27,-1l0 0 0 0c9,22 18,40 28,56zm-51 -59l-2 0 2 0zm50 1l0 0 0 1 0 -1z"/>
   </g>
   <g style="clip-path:url(#id1)">
    <g id="_110735687760">
     <path id="1" class="fil1 str5" d="M1061 1909c0,-8 -32,-250 -67,-389 0,0 -95,-79 -119,-167"/>
    </g>
   </g>
   <path class="fil1" d="M935 1499c11,15 32,30 32,30 31,85 66,367 66,367 0,0 74,-28 90,0 -5,-109 -21,-326 -42,-435 -58,-3 -118,17 -153,32 4,4 7,6 7,6zm-45 -54c-1,-15 -1,-33 -1,-55 -10,0 -19,0 -27,-1l0 0 0 0c9,22 18,40 28,56zm-51 -59l-2 0m52 1l0 0 0 1 0 -1z"/>
   <g style="clip-path:url(#id2)">
    <polygon class="fil8" points="784,1378 935,1378 935,1906 784,1906 "/>
   </g>
   <g style="clip-path:url(#id3)">
    <g id="_110735685328">
     <path id="1" class="fil1 str6" d="M838 1342c0,0 -62,463 -29,559"/>
    </g>
   </g>
   <path class="fil1" d="M813 1378c0,0 -48,401 -19,528 2,0 86,-30 90,-5 0,-27 38,-412 51,-402 0,0 -3,-2 -7,-6 -20,8 -32,14 -32,14 0,0 -4,-17 -6,-62 -10,-16 -19,-34 -28,-56l0 0c-30,-2 -48,-10 -49,-10l0 0 0 -1z"/>
   <g id="_110735685392">
    <path class="fil5" d="M661 2039l231 0c0,0 6,-36 -22,-76 0,0 -13,14 -35,6 0,0 9,-36 -12,-41 -21,-6 -66,8 -62,18 4,10 21,28 21,28 0,0 -122,55 -121,65z"/>
    <path class="fil2" d="M661 2039l231 0c0,0 3,-16 -4,-38 -16,4 -26,21 -30,22 -5,2 -86,0 -86,0 -16,-13 -35,-18 -51,-20 -30,15 -61,31 -60,36z"/>
    <path class="fil1 str2" d="M782 1974c-22,18 -40,15 -43,7 -3,-8 9,-20 43,-7z"/>
    <path class="fil1 str2" d="M782 1974c-13,1 -37,-5 -34,-18 2,-6 9,-7 16,-5 6,10 18,23 18,23z"/>
   </g>
   <path class="fil9" d="M808 1927l1 -26c17,-5 45,-12 61,-10l0 72c0,0 -13,14 -35,6l0 0 0 0 1 0 0 -1 0 0 0 0c1,-5 7,-35 -13,-40 -4,-1 -9,-2 -15,-1l0 0z"/>
   <path class="fil10" d="M809 1901c17,-5 45,-12 61,-10l0 37 -61 -27z"/>
   <path class="fil5" d="M1049 1962c0,0 -25,57 -20,77l140 0c0,0 3,-2 -15,-17 -17,-15 -51,-47 -51,-47 0,0 25,-25 12,-37 -12,-12 -49,-12 -52,-1 -3,11 -1,29 -1,29 0,0 -8,4 -13,-4z"/>
   <path class="fil2" d="M1029 2039l140 0c0,0 3,-2 -15,-17 -4,-4 -10,-9 -16,-14 -81,-8 -109,31 -109,31z"/>
   <path class="fil1 str2" d="M1108 1980c9,-3 18,-7 23,-14 7,-10 -1,-15 -13,-15 -3,12 -15,24 -15,24 0,0 2,2 5,5z"/>
   <path class="fil1 str2" d="M1103 1975c6,-1 46,-8 41,12 -2,12 -32,6 -41,-12z"/>
   <path class="fil11" d="M1049 1962l-2 -71c16,-5 41,-10 58,-7l1 48c-16,-6 -41,-4 -43,5 -3,11 -1,28 -1,29l0 0 0 0 0 0 0 0 0 0 0 0 0 0 0 0 0 0 0 0 0 0 0 0 0 0 0 0 0 0 0 0 0 0 -1 0 0 0 0 0 0 0 0 0 0 0 0 0 0 0 0 0 0 0 0 0 0 0 0 0 0 0 0 0 0 0 0 0 0 0 -1 1 0 0 0 0 0 0 0 0 0 0 0 0 0 0 0 0 0 0 -1 0 0 0 0 0 0 0 0 0 0 0 0 0 0 0 0 0 0 0 -1 0 0 0 0 0 0 0 0 0 0 0 0 0 0 0 0 0c-1,0 -1,0 -2,0l0 0c-1,0 -1,0 -2,-1l0 0c0,0 0,0 0,0l0 0 0 0 0 0c-1,0 -1,0 -1,0l0 0c-1,-1 -1,-1 -2,-1l0 0c0,-1 0,-1 -1,-1l0 0c0,-1 0,-1 0,-1l0 0 0 0 0 0 -1 -1 0 0c0,0 0,0 0,0zm5 4c0,0 0,0 0,0zm0 0c-1,0 -1,0 0,0zm-4 -2c0,-1 0,-1 0,0z"/>
   <path class="fil12" d="M1047 1910l0 -19c16,-5 41,-10 58,-7l1 22c-20,1 -42,2 -59,4z"/>
   <path class="fil13" d="M794 1906c0,0 6,-2 15,-5l0 8c-9,-2 -15,-3 -15,-3zm76 -15c7,1 13,4 14,10 0,7 -5,10 -14,12l0 -22 0 0z"/>
   <path class="fil13" d="M1033 1896c0,0 5,3 14,6l0 -11c-9,3 -14,5 -14,5zm73 5c5,-1 11,-3 17,-5 -3,-6 -10,-10 -18,-12l0 0 1 17z"/>
   <path class="fil11" d="M994 823l0 0c0,0 0,0 0,0zm0 0c-10,35 -51,61 -78,64 -33,4 -63,-39 -69,-72 -7,-40 5,-121 63,-143 33,-13 73,-1 82,33 4,12 5,34 5,57 3,-4 20,-9 25,7 5,14 -11,54 -24,54 -2,0 -3,0 -4,0z"/>
   <path class="fil1 str7" d="M992 783c0,0 2,0 4,-2 3,-2 6,-5 9,-6 4,-2 7,-2 11,0"/>
   <path class="fil1 str5" d="M1127 1660c42,12 48,-91 45,-115"/>
   <path class="fil14" d="M1004 887c11,4 9,17 2,31 -23,40 -34,53 -52,99 -23,56 -45,134 -55,236 -21,200 -10,262 -10,262 0,0 108,-51 202,-36l-4 57c0,0 31,34 89,7 0,0 17,-75 16,-238 -2,-161 -67,-312 -149,-381 3,-21 -18,-42 -39,-37z"/>
   <g style="clip-path:url(#id4)">
    <g id="_110735679632">
     <path id="1" class="fil1 str5" d="M1089 1479c0,0 7,-117 -17,-245 -24,-128 -11,-175 -11,-175"/>
    </g>
   </g>
   <path class="fil1" d="M1004 887c11,4 9,17 2,31 -23,40 -34,53 -52,99 -23,56 -45,134 -55,236 -21,200 -10,262 -10,262 0,0 108,-51 202,-36l-4 57c0,0 31,34 89,7 0,0 17,-75 16,-238 -2,-161 -67,-312 -149,-381 3,-21 -18,-42 -39,-37z"/>
   <path class="fil1 str5" d="M924 1187l113 -121 -8 -9c0,0 24,-107 13,-133"/>
   <path class="fil15" d="M1004 887c11,4 9,17 2,31 -23,40 -34,53 -52,99 -19,46 -37,108 -49,187 36,-49 61,-99 102,-144l-28 -61 36 34c7,-32 28,-109 28,-109 3,-21 -18,-42 -39,-37zm-100 321c-2,14 -4,30 -5,45 -21,200 -10,262 -10,262l0 0 0 0 0 0 0 0 0 0 1 0 0 0 0 0 0 -1 0 0 0 0 0 0 0 0 0 0 1 0 0 0 0 0 0 0 0 0 1 0 0 -1 0 0 0 0 1 0 0 0 0 0 1 0 0 0 0 -1 1 0 0 0 0 0 1 0 0 0 1 -1 0 0 1 0 0 0 0 0 1 0 0 -1 1 0 0 0 0 0c1,-1 2,-1 3,-1l0 0 1 -1 1 0 0 0 2 -1 1 0 1 -1 1 0 2 -1 0 0c2,0 3,-1 5,-2l0 0 0 0 3 -1 0 0 2 -1 1 0 0 0c2,0 3,-1 5,-2 -8,-60 -14,-229 7,-322 -12,12 -23,23 -31,31z"/>
   <path class="fil16" d="M935 1177l94 -113 -8 -9c0,0 21,-99 22,-131 0,0 -21,77 -28,109l-36 -34 28 61c-34,37 -57,77 -83,117 1,2 2,5 4,7 2,-2 5,-5 7,-7z"/>
   <circle class="fil17" transform="matrix(0.848499 0.0406981 -0.0406981 0.848499 906.559 1297.67)" r="5"/>
   <path class="fil4" d="M1008 913l-4 -26 -103 36c0,0 2,49 9,80 0,0 74,-65 94,-82l2 -3c0,-2 1,-3 2,-5z"/>
   <path class="fil18" d="M861 970c-6,26 38,37 46,16 -2,-12 -3,-24 -4,-35 -3,-5 -7,-9 -13,-10 -12,-2 -26,16 -29,29z"/>
   <path class="fil6" d="M891 941c2,-7 6,-14 10,-18 0,0 1,12 2,28 -3,-5 -7,-9 -12,-10z"/>
   <path class="fil11" d="M986 893l3 -57c-16,28 -49,48 -73,51 -8,1 -15,0 -22,-4l-7 58 4 -2c3,-6 6,-13 10,-16l85 -30z"/>
   <path class="fil12" d="M989 836c-16,28 -49,48 -73,51 -8,1 -15,0 -22,-4l-7 58 4 -2c3,-6 6,-13 10,-16l50 -18c34,-32 38,-69 38,-69z"/>
   <path class="fil4" d="M892 898l-40 10c-13,58 -12,68 -12,68 1,-1 16,-12 29,-22 5,-6 11,-12 18,-13l5 -43z"/>
   <path class="fil6" d="M852 908c-13,58 -12,68 -12,68 0,-1 4,-4 10,-8 3,-2 6,-5 10,-7l-8 -53z"/>
   <path class="fil4" d="M847 971c-11,29 -39,120 -40,273 0,0 0,127 6,138 0,0 28,14 75,15l0 -2 0 -3 0 -2 0 -2 0 -1 0 -1 0 -3 1 -4 0 0 0 -1 0 -1 0 -4 0 -2 0 -6 0 0 0 -2 1 -4 0 -1 0 -1 0 -5 0 0 0 -1 1 -6 0 0 0 -1 0 0 0 -6 0 -1 0 -1 1 -6 0 0 0 -1 0 -7 0 0 0 0 1 -7 0 -1 0 -1 1 -7 0 0c0,-6 1,-11 1,-16l0 -1 0 -1 1 -7 0 -1 0 0 0 0 1 -8 0 0 1 -8 0 -1 0 -1 1 -9c10,-102 32,-180 55,-236l1 -2 0 -1 0 -1 1 -1 0 -1 1 -2 0 -1 1 -1 0 -1 1 -1 0 0 0 -2 1 0 0 -2 0 0 0 0 1 -2 0 0 1 -1 0 -1 0 0 1 -1 0 0 0 -1 0 -1 1 -1 0 -1 1 -1 0 0 0 -1 0 0 1 -1 0 -1 0 0 0 -1 1 -1 0 0 1 -1 0 0 0 -1 0 0 1 -1 0 -1 0 0 1 -1 0 -1 0 0 1 -1 0 -1 1 -1 0 0 0 -1 0 -1 1 0 0 -1 1 -1 0 0 0 -1 1 0 0 -2 0 0 1 -1 0 0 1 -1 0 0 0 -1 0 -1 1 -1 0 0 1 -1 0 0 1 -1 0 0 0 -2 0 0 1 -1 0 0 1 -1 0 0 0 -1 1 -1 0 -1 0 0 1 -1 0 0 1 -1 0 -1 0 -1 1 0 0 -1 0 0 1 -1 0 -1 1 -1 0 0 1 -1 0 0 0 -1 1 -1 0 -1 1 0 0 -1 0 -1 1 0 0 -1 1 -1 0 -1 1 0 0 -1 0 -1 1 -1 0 0 2 -3 1 -1 0 -1 1 -2 1 -1 0 0 1 -2 0 -1 1 -1 2 -3c-20,17 -94,82 -94,82 -1,-5 -2,-11 -3,-17 -8,21 -52,10 -46,-16 2,-5 4,-11 8,-16 -8,6 -16,12 -22,17zm59 8c0,1 0,2 1,3 -1,-1 -1,-2 -1,-3z"/>
   <path class="fil19" d="M909 997c-3,4 -7,7 -13,8 0,0 -4,139 62,222 -50,-60 -64,-125 -69,-158 -3,-25 -2,-56 0,-72 8,0 15,-4 18,-11 1,4 1,8 2,11zm-4 -25l0 0 0 2 0 -2z"/>
   <path class="fil20" d="M847 971c-1,2 -2,5 -4,9l18 -9c0,0 0,-1 0,-1 1,-4 3,-7 4,-10l-1 -2c-6,5 -13,9 -17,13z"/>
   <path class="fil21" d="M984 954l1 0 0 -1 0 -1 1 0 0 -1 0 0 1 -1 0 -1 1 -1 0 0 1 -1 0 0 0 -1 1 -1 0 -1 1 0 0 -1 0 -1 1 0 0 -1 1 -1 0 -1 1 0 0 -1 0 -1 1 -1 0 0 2 -3 1 -1 0 -1 1 -2 1 -1 0 0 1 -2 0 -1 1 -1 2 -3c-20,17 -94,82 -94,82l74 -49z"/>
   <path class="fil16" d="M847 928c-21,21 -55,30 -87,191 -10,46 -16,99 -20,150 -9,128 16,259 16,259 0,0 19,11 40,20l0 0c1,-17 3,-33 4,-48l1 -4c0,-4 1,-9 1,-13l0 -4 1 -6 0 -4c1,-7 2,-14 2,-21l1 -3 0 -3 0 -2 1 -3 0 -3 0 -2 0 -3 0 0 1 -3 0 -2c0,-4 1,-8 1,-11l0 -2 0 -1 1 -2 0 -2 0 -1 0 -1 0 -1c1,-5 1,-10 2,-13l0 -1 0 -1 0 -1 0 -1 0 -2 0 -1 0 0 0 0 1 -1c-6,-11 -6,-138 -6,-138 1,-153 29,-244 40,-273 -4,2 -7,4 -7,5 0,0 -1,-8 7,-48zm136 663l0 0c-5,-25 -11,-47 -16,-62 0,0 -21,-15 -32,-30 -4,-3 -11,33 -18,85 0,0 23,8 66,7zm121 -12l1 0c0,-3 -1,-4 -1,-4 1,1 1,2 0,4z"/>
   <path class="fil14" d="M764 1018c-37,52 -75,111 -100,108 -27,-3 -48,-112 -62,-142 4,17 -69,47 -79,28 0,0 39,254 128,254 33,-1 63,-20 89,-43 0,28 0,47 0,47l0 -1 0 0c4,-51 10,-104 20,-150 32,-161 66,-170 87,-191 -34,15 -66,62 -83,90zm-23 152c0,-3 0,-6 0,-9 0,3 0,6 0,9zm1 -10c0,-6 0,-12 0,-18 0,6 0,12 0,18zm1 -23c0,-3 0,-7 0,-10 0,3 0,7 0,10zm0 -10c0,-5 1,-9 1,-14 0,5 -1,9 -1,14zm1 -15c0,-3 1,-6 1,-9 0,3 -1,6 -1,9zm1 -9c0,-5 1,-10 1,-15 0,5 -1,10 -1,15zm1 -15c0,-1 0,-3 1,-4 -1,1 -1,3 -1,4zm1 -4c0,-4 0,-7 1,-10 -1,3 -1,6 -1,10zm1 -10c0,-1 0,-3 0,-4 0,1 0,3 0,4zm1 -9c0,-3 0,-6 1,-9 -1,3 -1,6 -1,9zm1 -9c0,-2 0,-3 1,-4 -1,1 -1,2 -1,4zm1 -5c0,-1 0,-3 0,-4 0,1 0,3 0,4zm0 -4c0,-1 1,-3 1,-4 0,1 -1,3 -1,4zm1 -5c0,-1 0,-2 1,-4 -1,2 -1,3 -1,4z"/>
   <path class="fil13" d="M523 1012c2,5 9,6 17,6l-4 -25c-11,6 -17,12 -13,19zm18 6c1,0 1,0 2,0 -1,0 -1,0 -2,0zm7 -1c1,0 1,0 2,0 -1,0 -1,0 -2,0zm45 -19c6,-4 10,-9 9,-14 -1,-2 -6,-3 -14,-3l5 17z"/>
   <path class="fil18" d="M889 997c-2,16 -3,47 0,72 5,37 22,111 85,176 0,0 9,66 5,69 -4,4 -57,-19 -57,-19 -50,-54 -84,-225 -53,-304 6,4 13,6 20,6z"/>
   <rect class="fil5" transform="matrix(1.13116 0.0542559 -0.0542559 1.13116 868.38 771.812)" width="11.5618" height="19.063" rx="6" ry="6"/>
   <rect class="fil5" transform="matrix(1.13116 0.0542559 -0.0542559 1.13116 932.894 774.907)" width="11.5618" height="19.063" rx="6" ry="6"/>
   <path class="fil5" d="M897 819c-5,-7 -3,-13 2,-15 7,-3 16,3 16,14 0,0 -3,-12 -12,-11 -10,1 -6,12 -6,12z"/>
   <path class="fil5" d="M930 763c6,-3 16,-6 35,1 0,0 -10,-15 -37,-11 -6,1 -6,12 2,10z"/>
   <path class="fil5" d="M884 760c-6,-2 -17,-7 -36,-1 0,0 11,-15 38,-8 6,2 5,13 -2,9z"/>
   <path class="fil1 str7" d="M998 803c0,0 13,-2 7,-28"/>
   <path class="fil2" d="M491 809l51 -14c8,-2 16,5 17,14l13 84c-8,-10 -15,-18 -18,-14 -5,8 2,30 12,41 0,0 -8,15 -3,32l0 0 0 0 0 0 0 0 -45 12 -3 1c-8,2 -15,-5 -17,-14l-19 -124c-1,-9 5,-16 12,-18z"/>
   <path class="fil5" d="M492 817l54 -14c4,-1 8,2 9,7l11 76c-5,-6 -10,-10 -12,-7 -5,8 2,30 12,41 0,0 -6,11 -5,25l-47 12c-4,1 -8,-3 -8,-7l-20 -124c0,-5 3,-9 6,-9z"/>
   <path class="fil11" d="M593 998l-9 -32c0,0 11,-30 7,-41 -1,-3 -10,-19 -19,-32l0 0 -1 -1 0 0 -1 -1 0 0 0 0 -1 -1 0 0 0 0 0 0 0 -1 -1 0 0 -1 0 0 -1 -1 0 0 0 -1 -1 0 0 0 0 0 0 0 0 -1 0 0 0 0 -1 0 0 0 0 0 0 -1 -1 0 0 0 0 0 0 0 0 -1 0 0 -1 0 0 0 0 -1 0 0 0 0 -1 0 0 0 0 0 0 0 0 0 0 0 0 0 0 0 0 0 0 0 0 0 0 0 0 0 0 -1 0 0 0 0 0 0 0 0 0 0 0 0 0 0 0 0 0 0 0 0 0 0 0 0 0 0 0 0 0 0 0 0 0 0 0 0 -1 0 0 0 0 0 0 0 0 0 0 -1 -1 0 0 0 0 0 0 0 0 0 0 0 0 0 0 0 0 0 0 0 0 -1 0 0 -1 0 0 0 0 0 0 0 0 0 0 0 0 0 0 0 0 0 0 0 0 0 0 0 0 0 0 0 0 0 0 0 0 0 0 0 0 0 0 0 0 0 0 0 0 0 0 0 0 0 0 0 0 0 0 0 0 0 0 0 0 0 0 0 0 0 0 0 0 0 0 0 0 0 0 0 0 0 0 0 0 0 0 0 0 0 0 0 0 0 0 0 0 0 0 0 0 0 0 0 0 0 0 0 0 0 0 0 0 0 0 0 0 0 0 0 0 0 0 0 0 0 -1 0 0 0 0 0 0 0 0 0 0 0 0 0 0 0 0 0 0 0 0 0 0 0 0 0 0 0 0 0 0 0 0 0 0 0 0 0 0 0 0 0 0 0 0 0 0 0 0 0 0 0 0 0 0 0 0 0 0 0 0 0 0 0 0 0 0 0 0 0 0 0 0 0 0 0 0 0 0 -1 0 0 0 0 0 0 0 0 0 0 0 0 0 0 0 0 0 0 0 0 0 0 0 0 0 0 0 0 0 0 0 0 0 0 0 0 -1 0 0 0 0 0 0 0 0 0 0 0 0 0 0 0 0 0 0 0 0 0 0 0 0 0 0 0 0 0 0 0 0 0 0 0 0 0 0 0 0 0 0 0 0 0 0 0 0 0 0 0 0 0 0 0 0 0 0 0 0 0 0 0 0 0 0 0 0 0 0 0 0 0 0 0 0 0 0 0 0 0 0 0 0 0 0 0 0 0 0 0 0 0 0 0 0 0 0 0 0 0 0 0 0 0 0 0 0 0 0 0 0 0 -1 0 0 0 0 0 0 0 0 0 0 0 0 0 0 0 0 0 0 0 0 0 0 0 0 0 0 0 0 0 0 0 0 0 0 0 0 0 0 0 0 0 0 0 0 0 0 0 0 0 0 0 0 0 0 0 0 0 0 0 0 0 0 0 0 0 0 0 0 0 0 0 0 0 0 0 0 0 0 0 0 0 0 0 0 0 0 0 0 0 0 0 0 0 0 0 0 0 0 0 0 0 0 0 0 0 0 0 0 0 0 0 0 0 0 0 0 0 0 0 0 0 0 0 0 0 0 0 0 0 0 0 0 0 -1 0 0 0 0 0 0 0 0 0 0 0 0 0 0 0 0 0 0 0 0 0 0 0 0 0 0 0 0 0 0 0 0 0 0 0 0 0 0 0 0 0 0 0 0 0 0 0 0 0 0 0 0 0 0 0 0 0 0 1 0 0 0 0 0 0 0 0 0 0 0 0 0 0 0 0 0 0 0 0 0 0 0 0 0 0 0 0 0 0 0 0 -1 0 0 0 0 0 0 0 0 0 0 0 0 0 0 0 0 0 0 0 0 0 0 0 0 0 0 0 0 0 0 0 0 0 0 0 0 0 0 0 0 0 0 0 0 0c-5,8 2,30 12,41l0 0 0 0 0 1 0 0 0 0 0 0 0 0 -1 0 0 0 0 0 0 1 0 0 0 0 0 0 0 1 0 0 0 0 -1 0 0 0 0 1 0 0 0 0 0 0 0 1 0 0 0 0 0 1 0 0 0 0 -1 0 0 1 0 0 0 1 0 0 0 0 0 1 0 0 0 0 -1 1 0 0 0 1 0 0 0 1 0 0 0 1 0 0 0 0 0 1 0 0 0 1 0 0 -1 0 0 0 0 1 0 0 0 0 0 1 0 0 0 1 0 1 0 0 0 1 0 1 0 0 0 1 0 1 0 1 0 0 0 1 1 1 0 1 0 0 0 1 0 1 0 1 0 0 1 1 0 1 0 0 0 0 0 0 0 0 0 0 -45 12c0,2 3,12 17,23 0,0 5,31 5,31 16,-1 40,-10 53,-20zm-21 -105l0 0 0 0z"/>
   <g>
    <path class="fil22" d="M593 998l0 0 0 0zm0 0l-3 -11 -6 -21 -32 33 0 0 1 0 0 0 0 0 0 0 1 0 0 0 0 0 2 -1 0 0c1,0 3,-1 4,-1l33 1zm-2 1l0 0 0 0zm0 0l0 0 0 0zm0 0l0 0 0 0zm0 0l0 0 0 0zm0 0l0 0 0 0zm0 0l0 0 0 0 0 0zm1 0l0 0 0 0 0 0 0 0 0 0 0 0zm0 0l0 0 0 0 0 0zm0 0l0 0 0 0 0 0zm0 0l0 0 0 0 0 0zm0 0l0 0 0 0 0 0zm0 0l0 0 0 0 0 0zm0 0l0 0 0 0 0 0zm0 0l0 0 0 0 0 0zm0 0l0 0 0 0 0 0 0 0 0 -1 0 0 1 0 0 0 0 0 0 0 0 0 0 0 -1 1z"/>
   </g>
   <path class="fil22" d="M563 952l0 0 0 0 0 0 0 0 -45 12c0,2 3,12 17,23 -7,-21 27,-35 28,-35z"/>
   <path class="fil4" d="M593 998l-3 -11c-22,6 -43,14 -52,18l2 13c16,-1 40,-10 53,-20z"/>
   <path class="fil11" d="M1098 1544c-20,21 -5,39 -29,51 -3,1 5,13 17,8 10,-4 20,-23 18,-28 0,0 7,41 -1,68 -4,12 5,15 15,8 34,23 55,-72 49,-104l0 0c-33,12 -57,5 -69,-3z"/>
   <path class="fil12" d="M1168 1565c0,-7 0,-13 -1,-18l0 0c-33,12 -57,5 -69,-3 0,0 22,28 70,21z"/>
   <path class="fil23" d="M993 939l1 -1 0 1 -1 0zm15 -26c5,-12 6,-22 -4,-26l4 26z"/>
   <circle class="fil17" transform="matrix(1.13116 0.0542559 -0.0542559 1.13116 541.51 1041.28)" r="4"/>
   <circle class="fil17" transform="matrix(1.13116 0.0542559 -0.0542559 1.13116 546.72 1061.9)" r="4"/>
   <circle class="fil17" transform="matrix(0.848499 0.0406981 -0.0406981 0.848499 904.648 1356.03)" r="5"/>
   <circle class="fil17" transform="matrix(0.848499 0.0406981 -0.0406981 0.848499 903.251 1422.1)" r="5"/>
   <path class="fil15" d="M740 1270c0,0 -3,-141 13,-232 0,0 20,-33 51,-60 -14,25 -28,64 -43,133l0 0c0,3 -1,5 -1,8l-1 2 0 2 -1 2 0 2 0 0 -1 3 0 0 0 2 0 0 0 2 -1 2 0 3 -1 2 0 0 0 2 0 2 -1 3 0 2 0 2 0 0 -1 2 0 0 0 3 0 0 -1 2 0 2 0 0 0 3 -1 2 0 0 0 2 0 0 0 3 -1 2 0 0 0 2 0 0 0 3 -1 2 0 0 0 2 0 3 -1 2 0 0 0 3 0 2 0 2 -1 3 0 0 0 2 0 3 -1 2 0 0 0 2 0 3 0 2 0 0 -1 3 0 0 0 2 0 0 0 2 0 3 0 0 -1 2 0 0 0 3 0 0 0 2 0 0 0 2 -1 3 0 2 0 3 0 0 0 2 0 0 0 3 -1 2 0 0 0 2 0 0 0 3 0 2 0 3 -1 2 0 0 0 3 0 0 0 2 0 2 0 3 -1 2 0 0 0 1z"/>
   <path class="fil5" d="M897 844c0,-5 7,-8 16,-10 16,-4 25,-12 31,-6 4,4 3,17 -8,25 -10,7 -40,4 -39,-9z"/>
   <path class="fil24" d="M945 840c-1,4 -4,9 -9,13 -5,3 -15,4 -24,3 6,-7 17,-14 33,-16z"/>
   <path class="fil25" d="M897 844c0,-5 7,-8 16,-10 16,-4 25,-12 31,-6 1,0 1,1 2,2 -19,11 -38,15 -49,16 0,-1 0,-2 0,-2z"/>
   <path class="fil23" d="M1103 1547c0,0 -1,0 -1,-1 0,1 1,1 1,1zm-3 -2l-1 0c0,0 0,0 1,0zm-2 -1c-2,-1 -3,-2 -5,-3l1 7c1,-1 2,-3 4,-4l0 0zm-9 -38l2 -27c-3,-1 -5,-1 -7,-1 2,9 3,18 5,28z"/>
   <path class="fil5" d="M997 782c-6,7 -15,0 -15,-5 -1,-11 1,-41 -27,-45 0,0 -32,22 -61,-6 -61,41 -120,13 -103,-46 11,-34 63,-63 106,-31 0,0 40,-29 56,15 0,0 44,-12 40,29 0,0 41,-10 19,65l0 0c-6,-1 -13,2 -15,4 0,7 0,14 0,20z"/>
   <rect class="fil6" x="119" y="1453" width="471.316" height="16.9867"/>
   <path class="fil4" d="M481 1453l-264 0c-5,0 -9,-4 -9,-9l0 -8 264 0c5,0 9,3 9,8l0 9z"/>
   <polygon class="fil4" points="208,1436 373,1436 344,1277 180,1277 "/>
   <ellipse class="fil20" transform="matrix(-1.12605 0.120365 0.120365 1.12605 269.226 1354.35)" rx="10" ry="18"/>
   <rect class="fil17" x="65" y="2039" width="1580.41" height="10.001"/>
   <line class="fil1 str8" x1="328" y1="354" x2="582" y2= "438" />
   <line class="fil1 str8" x1="1194" y1="532" x2="1358" y2= "430" />
   <line class="fil1 str8" x1="1478" y1="469" x2="1447" y2= "738" />
   <line class="fil1 str8" x1="1184" y1="572" x2="1366" y2= "685" />
   <line class="fil1 str8" x1="415" y1="712" x2="598" y2= "540" />
   <line class="fil1 str8" x1="843" y1="498" x2="1052" y2= "555" />
   <line class="fil1 str8" x1="509" y1="224" x2="675" y2= "398" />
   <line class="fil1 str8" x1="574" y1="186" x2="770" y2= "59" />
   <line class="fil1 str8" x1="870" y1="117" x2="772" y2= "397" />
   <line class="fil1 str8" x1="972" y1="60" x2="1153" y2= "221" />
   <line class="fil1 str8" x1="1237" y1="291" x2="1361" y2= "380" />
   <line class="fil1 str8" x1="843" y1="448" x2="1063" y2= "298" />
   <line class="fil1 str8" x1="1149" y1="326" x2="1117" y2= "517" />
   <line class="fil1 str8" x1="215" y1="421" x2="264" y2= "689" />
   <line class="fil1 str8" x1="205" y1="294" x2="460" y2= "206" />
   <rect class="fil14" x="571" y="389" width="282" height="166" rx="17" ry="18"/>
   <circle class="fil26" cx="650" cy="472" r="44"/>
   <path class="fil4" d="M690 490c-7,15 -22,25 -40,25 -17,0 -32,-10 -39,-25 6,-7 14,-13 23,-16 3,7 9,12 16,12 8,0 14,-5 17,-12 9,3 17,9 23,16z"/>
   <circle class="fil4" cx="650" cy="469" r="17"/>
   <g>
    <rect class="fil4" x="723" y="446" width="98.7501" height="12.5073" rx="5" ry="6"/>
    <rect class="fil4" x="723" y="485" width="70.7665" height="12.5073" rx="4" ry="6"/>
   </g>
   <rect class="fil2" x="97" y="605" width="330" height="194" rx="20" ry="21"/>
   <circle class="fil27" cx="190" cy="702" r="51"/>
   <path class="fil4" d="M236 723c-8,18 -26,30 -46,30 -21,0 -38,-12 -46,-30 7,-8 16,-15 27,-18 3,8 10,13 19,13 8,0 16,-5 19,-13 10,3 20,10 27,18z"/>
   <circle class="fil4" cx="190" cy="698" r="20"/>
   <g>
    <rect class="fil4" x="275" y="672" width="115.626" height="14.6447" rx="6" ry="7"/>
    <rect class="fil4" x="275" y="717" width="82.8598" height="14.6447" rx="4" ry="7"/>
   </g>
   <path class="fil28" d="M170 705c0,0 0,0 1,0 3,8 10,13 19,13 8,0 16,-5 19,-13 0,0 0,0 1,0l0 1c0,11 -9,20 -20,20 -11,0 -20,-9 -20,-20l0 -1z"/>
   <rect class="fil14" x="1353" y="331" width="245" height="144" rx="15" ry="16"/>
   <circle class="fil26" cx="1422" cy="403" r="38"/>
   <path class="fil4" d="M1457 419c-6,13 -19,22 -35,22 -15,0 -28,-9 -34,-22 5,-6 12,-11 20,-13 2,5 8,9 14,9 7,0 12,-4 14,-9 8,2 15,7 21,13z"/>
   <circle class="fil4" cx="1422" cy="401" r="15"/>
   <g>
    <rect class="fil4" x="1486" y="381" width="86.083" height="10.903" rx="5" ry="5"/>
    <rect class="fil4" x="1486" y="415" width="61.689" height="10.903" rx="3" ry="5"/>
   </g>
   <path class="fil20" d="M1408 406l0 0c2,5 8,9 14,9 7,0 12,-4 14,-9l1 0c0,0 0,1 0,1 0,8 -6,15 -15,15 -8,0 -15,-7 -15,-15 0,0 0,-1 1,-1z"/>
   <rect class="fil14" x="97" y="286" width="239" height="140" rx="14" ry="15"/>
   <circle class="fil26" cx="164" cy="356" r="37"/>
   <path class="fil4" d="M198 372c-6,13 -19,21 -34,21 -15,0 -27,-8 -33,-21 5,-6 12,-11 20,-13 2,5 7,9 13,9 7,0 12,-4 14,-9 8,2 15,7 20,13z"/>
   <circle class="fil4" cx="164" cy="354" r="15"/>
   <g>
    <rect class="fil4" x="226" y="335" width="83.7623" height="10.609" rx="4" ry="5"/>
    <rect class="fil4" x="226" y="367" width="60.0259" height="10.609" rx="3" ry="5"/>
   </g>
   <path class="fil20" d="M150 359l1 0c2,5 7,9 13,9 7,0 12,-4 14,-9l1 0c0,8 -7,14 -15,14 -8,0 -14,-6 -14,-14z"/>
   <rect class="fil14" x="1261" y="678" width="295" height="174" rx="17" ry="19"/>
   <circle class="fil26" cx="1344" cy="765" r="46"/>
   <path class="fil4" d="M1385 784c-7,16 -23,26 -41,26 -19,0 -34,-10 -42,-26 7,-7 15,-13 25,-16 2,7 9,11 17,11 7,0 14,-4 17,-11 9,3 18,9 24,16z"/>
   <circle class="fil4" cx="1344" cy="762" r="18"/>
   <g>
    <rect class="fil4" x="1420" y="738" width="103.495" height="13.1083" rx="5" ry="7"/>
    <rect class="fil4" x="1420" y="778" width="74.167" height="13.1083" rx="4" ry="7"/>
   </g>
   <path class="fil20" d="M1326 768l1 0c2,7 9,11 17,11 7,0 14,-4 17,-11l1 0c0,0 0,1 0,1 0,10 -8,18 -18,18 -10,0 -18,-8 -18,-18 0,0 0,-1 0,-1z"/>
   <rect class="fil2" x="452" y="164" width="147.79" height="86.9353" rx="9" ry="10"/>
   <circle class="fil27" cx="494" cy="207" r="23"/>
   <path class="fil4" d="M514 217c-3,8 -11,13 -20,13 -9,0 -17,-5 -21,-13 3,-4 7,-7 12,-8 1,3 5,6 9,6 4,0 7,-3 8,-6 5,1 9,4 12,8z"/>
   <circle class="fil4" cx="494" cy="206" r="9"/>
   <g>
    <rect class="fil4" x="532" y="194" width="51.8399" height="6.56585" rx="3" ry="3"/>
    <rect class="fil4" x="532" y="214" width="37.1496" height="6.56585" rx="2" ry="3"/>
   </g>
   <path class="fil29" d="M485 209l0 0c1,3 5,6 9,6 4,0 7,-3 8,-6l1 0 0 0c0,5 -4,9 -9,9 -5,0 -9,-4 -9,-9l0 0z"/>
   <rect class="fil14" x="759" y="-2" width="217" height="128" rx="13" ry="14"/>
   <circle class="fil26" cx="820" cy="62" r="34"/>
   <path class="fil4" d="M851 76c-6,12 -17,20 -31,20 -13,0 -25,-8 -30,-20 5,-5 11,-10 18,-12 2,5 7,9 12,9 6,0 11,-4 13,-9 7,2 13,7 18,12z"/>
   <circle class="fil4" cx="820" cy="60" r="13"/>
   <g>
    <rect class="fil4" x="876" y="42" width="76.033" height="9.63006" rx="4" ry="5"/>
    <rect class="fil4" x="876" y="72" width="54.4869" height="9.63006" rx="3" ry="5"/>
   </g>
   <path class="fil29" d="M807 64l1 0c2,5 7,9 12,9 6,0 11,-4 13,-9l0 0 0 1c0,7 -5,13 -13,13 -7,0 -13,-6 -13,-13l0 -1z"/>
   <rect class="fil2" x="1048" y="215" width="201" height="118" rx="12" ry="13"/>
   <circle class="fil27" cx="1105" cy="274" r="31"/>
   <path class="fil4" d="M1133 287c-5,11 -16,18 -28,18 -13,0 -23,-7 -28,-18 4,-5 10,-9 16,-11 2,5 7,8 12,8 5,0 10,-3 11,-8 7,2 13,6 17,11z"/>
   <circle class="fil4" cx="1105" cy="272" r="12"/>
   <g>
    <rect class="fil4" x="1157" y="256" width="70.4987" height="8.92911" rx="4" ry="4"/>
    <rect class="fil4" x="1157" y="283" width="50.5209" height="8.92911" rx="3" ry="4"/>
   </g>
   <path class="fil29" d="M1093 276l0 0c2,5 7,8 12,8 5,0 10,-3 11,-8l1 0c0,1 0,1 0,1 0,7 -5,12 -12,12 -7,0 -12,-5 -12,-12 0,0 0,0 0,-1z"/>
   <rect class="fil2" x="1046" y="507" width="147.79" height="86.9353" rx="9" ry="10"/>
   <circle class="fil27" cx="1088" cy="551" r="23"/>
   <path class="fil4" d="M1109 560c-4,8 -12,14 -21,14 -9,0 -17,-6 -21,-14 3,-3 8,-6 12,-8 2,4 5,6 9,6 4,0 7,-2 8,-6 5,2 9,5 13,8z"/>
   <circle class="fil4" cx="1088" cy="549" r="9"/>
   <g>
    <rect class="fil4" x="1126" y="537" width="51.8399" height="6.56585" rx="3" ry="3"/>
    <rect class="fil4" x="1126" y="558" width="37.1496" height="6.56585" rx="2" ry="3"/>
   </g>
   <path class="fil29" d="M1079 552l0 0c2,4 5,6 9,6 4,0 7,-2 8,-6l1 0c0,5 -4,9 -9,9 -5,0 -9,-4 -9,-9z"/>
   <path class="fil29" d="M633 475c1,0 1,0 1,-1 3,7 9,12 16,12 8,0 14,-5 17,-12 0,1 0,1 1,1 -1,9 -8,16 -18,16 -9,0 -16,-7 -17,-16z"/>
  </g>
  <g>
   <path class="fil0" d="M194 2043c-76,-87 -216,-281 -173,-533 0,0 -94,257 116,535 0,0 57,-2 57,-2z"/>
   <path class="fil0" d="M265 2039c-104,-84 -180,-187 -207,-339 -40,-220 25,-485 276,-466 213,17 263,292 473,195 186,-85 411,-251 590,-224 365,55 304,652 191,834l-65 0c197,-257 -23,-705 -23,-705 124,403 -1,611 -91,705l-1144 0z"/>
   <path class="fil1 str0" d="M1328 1830l-6 22 -37 149 -10 40m319 0l-101 -280"/>
   <path class="fil1 str0" d="M1322 1856l258 146m-293 -9l230 -164"/>
   <path class="fil1 str1" d="M503 1463l-295 0 -60 576m414 0l-59 -576"/>
   <polyline class="fil1 str1" points="562,2039 355,1470 148,2039 "/>
   <g>
    <path class="fil2" d="M586 1833c11,-9 41,2 64,-11l-30 -10 41 1c2,-2 4,-5 6,-7 8,-14 15,-26 22,-35l-8 -9 17 -1c11,-10 23,-14 42,-11 -46,-35 -92,-28 -123,-4l4 8 -14 1c-20,21 -30,51 -21,78z"/>
    <path class="fil3" d="M433 1700c0,0 -2,25 3,51l14 13 -12 -2c18,71 59,38 77,75 12,-18 18,-38 19,-57l-18 -27 18 9c-2,-17 -8,-34 -16,-50 -20,3 -43,0 -60,-4l25 -10 -42 5c-5,-2 -8,-3 -8,-3z"/>
    <path class="fil2" d="M393 1633c-3,7 -4,19 0,30l17 5 -14 4c6,12 17,24 37,28 0,0 3,1 8,3l42 -5 -25 10c17,4 40,8 60,5 -19,-34 -52,-62 -88,-74l-3 10 -3 -12c-10,-3 -21,-4 -31,-4z"/>
    <path class="fil1 str2" d="M533 2039c0,0 0,-106 -18,-202 -9,-43 -27,-94 -39,-115"/>
    <path class="fil1 str2" d="M671 1744c0,0 -59,13 -85,89 -14,42 -26,107 -31,206"/>
    <path class="fil2" d="M570 1817l-15 8c0,0 -24,-31 -8,-98l11 -4 -8 -7c1,-6 3,-13 6,-20 31,-88 113,-89 113,-89 0,0 -36,21 -43,69l-13 3 13 6 -1 1c-1,20 -1,38 -3,55 0,0 -3,3 -5,5l4 8 -14 1c-14,15 -23,33 -24,53l0 0c-4,3 -8,6 -13,9z"/>
    <path class="fil3" d="M570 1817l-15 8c0,0 -3,-4 -6,-11 11,-16 24,-36 29,-54 0,0 24,-11 45,-26 0,3 -1,5 -1,7 0,0 -3,3 -5,5l4 8 -14 1c-14,15 -23,33 -24,53l0 0c-4,3 -8,6 -13,9z"/>
    <path class="fil1 str2" d="M598 1666c0,0 -37,61 -43,159 -3,59 -8,134 23,214"/>
    <polygon class="fil4" points="517,2039 575,2039 608,1880 484,1880 "/>
    <polygon class="fil5" points="575,2039 588,2039 621,1880 608,1880 "/>
   </g>
   <path class="fil0" d="M587 1308c45,45 131,111 244,67 0,0 44,-44 -18,-57 -61,-14 -131,12 -186,-46 -69,-74 -92,-16 -40,36z"/>
   <path class="fil1 str3" d="M1234 1821l-8 31 -37 149 -10 38m317 0l-50 -240"/>
   <path class="fil1 str3" d="M1226 1856l259 127m-294 10l261 -153"/>
   <path class="fil6" d="M1117 1787c166,69 318,55 382,-34 115,-161 23,-447 23,-447l-409 426c1,19 3,38 4,55z"/>
   <path class="fil2" d="M1117 1786c284,104 446,-226 405,-480l-409 426c1,19 3,37 4,54z"/>
   <g style="clip-path:url(#id5)">
    <g>
     <path id="1" class="fil1 str4" d="M1165 1820c0,0 176,-294 362,-394"/>
    </g>
   </g>
   <path class="fil1" d="M1117 1786c284,104 446,-226 405,-480l-409 426c1,19 3,37 4,54z"/>
   <path class="fil7" d="M1184 1803c198,27 324,-167 342,-366 -138,98 -277,276 -342,366z"/>
   <ellipse class="fil0" cx="520" cy="1211" rx="27" ry="29"/>
   <g>
    <path class="fil5" d="M935 1499c11,15 32,30 32,30 31,85 66,367 66,367 0,0 74,-28 90,0 -5,-109 -21,-326 -42,-435 -58,-3 -118,17 -153,32 4,4 7,6 7,6zm-45 -54c-1,-15 -1,-33 -1,-55 -10,0 -19,0 -27,-1l0 0 0 0c9,22 18,40 28,56zm-51 -59l-2 0 2 0zm50 1l0 0 0 1 0 -1z"/>
   </g>
   <g style="clip-path:url(#id6)">
    <g>
     <path id="1" class="fil1 str5" d="M1061 1909c0,-8 -32,-250 -67,-389 0,0 -95,-79 -119,-167"/>
    </g>
   </g>
   <path class="fil1" d="M935 1499c11,15 32,30 32,30 31,85 66,367 66,367 0,0 74,-28 90,0 -5,-109 -21,-326 -42,-435 -58,-3 -118,17 -153,32 4,4 7,6 7,6zm-45 -54c-1,-15 -1,-33 -1,-55 -10,0 -19,0 -27,-1l0 0 0 0c9,22 18,40 28,56zm-51 -59l-2 0m52 1l0 0 0 1 0 -1z"/>
   <g style="clip-path:url(#id7)">
    <polygon class="fil8" points="784,1378 935,1378 935,1906 784,1906 "/>
   </g>
   <g style="clip-path:url(#id8)">
    <g>
     <path id="1" class="fil1 str6" d="M838 1342c0,0 -62,463 -29,559"/>
    </g>
   </g>
   <path class="fil1" d="M813 1378c0,0 -48,401 -19,528 2,0 86,-30 90,-5 0,-27 38,-412 51,-402 0,0 -3,-2 -7,-6 -20,8 -32,14 -32,14 0,0 -4,-17 -6,-62 -10,-16 -19,-34 -28,-56l0 0c-30,-2 -48,-10 -49,-10l0 0 0 -1z"/>
   <g>
    <path class="fil5" d="M661 2039l231 0c0,0 6,-36 -22,-76 0,0 -13,14 -35,6 0,0 9,-36 -12,-41 -21,-6 -66,8 -62,18 4,10 21,28 21,28 0,0 -122,55 -121,65z"/>
    <path class="fil2" d="M661 2039l231 0c0,0 3,-16 -4,-38 -16,4 -26,21 -30,22 -5,2 -86,0 -86,0 -16,-13 -35,-18 -51,-20 -30,15 -61,31 -60,36z"/>
    <path class="fil1 str2" d="M782 1974c-22,18 -40,15 -43,7 -3,-8 9,-20 43,-7z"/>
    <path class="fil1 str2" d="M782 1974c-13,1 -37,-5 -34,-18 2,-6 9,-7 16,-5 6,10 18,23 18,23z"/>
   </g>
   <path class="fil9" d="M808 1927l1 -26c17,-5 45,-12 61,-10l0 72c0,0 -13,14 -35,6l0 0 0 0 1 0 0 -1 0 0 0 0c1,-5 7,-35 -13,-40 -4,-1 -9,-2 -15,-1l0 0z"/>
   <path class="fil10" d="M809 1901c17,-5 45,-12 61,-10l0 37 -61 -27z"/>
   <path class="fil5" d="M1049 1962c0,0 -25,57 -20,77l140 0c0,0 3,-2 -15,-17 -17,-15 -51,-47 -51,-47 0,0 25,-25 12,-37 -12,-12 -49,-12 -52,-1 -3,11 -1,29 -1,29 0,0 -8,4 -13,-4z"/>
   <path class="fil2" d="M1029 2039l140 0c0,0 3,-2 -15,-17 -4,-4 -10,-9 -16,-14 -81,-8 -109,31 -109,31z"/>
   <path class="fil1 str2" d="M1108 1980c9,-3 18,-7 23,-14 7,-10 -1,-15 -13,-15 -3,12 -15,24 -15,24 0,0 2,2 5,5z"/>
   <path class="fil1 str2" d="M1103 1975c6,-1 46,-8 41,12 -2,12 -32,6 -41,-12z"/>
   <path class="fil11" d="M1049 1962l-2 -71c16,-5 41,-10 58,-7l1 48c-16,-6 -41,-4 -43,5 -3,11 -1,28 -1,29l0 0 0 0 0 0 0 0 0 0 0 0 0 0 0 0 0 0 0 0 0 0 0 0 0 0 0 0 0 0 0 0 0 0 -1 0 0 0 0 0 0 0 0 0 0 0 0 0 0 0 0 0 0 0 0 0 0 0 0 0 0 0 0 0 0 0 0 0 0 0 -1 1 0 0 0 0 0 0 0 0 0 0 0 0 0 0 0 0 0 0 -1 0 0 0 0 0 0 0 0 0 0 0 0 0 0 0 0 0 0 0 -1 0 0 0 0 0 0 0 0 0 0 0 0 0 0 0 0 0c-1,0 -1,0 -2,0l0 0c-1,0 -1,0 -2,-1l0 0c0,0 0,0 0,0l0 0 0 0 0 0c-1,0 -1,0 -1,0l0 0c-1,-1 -1,-1 -2,-1l0 0c0,-1 0,-1 -1,-1l0 0c0,-1 0,-1 0,-1l0 0 0 0 0 0 -1 -1 0 0c0,0 0,0 0,0zm5 4c0,0 0,0 0,0zm0 0c-1,0 -1,0 0,0zm-4 -2c0,-1 0,-1 0,0z"/>
   <path class="fil12" d="M1047 1910l0 -19c16,-5 41,-10 58,-7l1 22c-20,1 -42,2 -59,4z"/>
   <path class="fil13" d="M794 1906c0,0 6,-2 15,-5l0 8c-9,-2 -15,-3 -15,-3zm76 -15c7,1 13,4 14,10 0,7 -5,10 -14,12l0 -22 0 0z"/>
   <path class="fil13" d="M1033 1896c0,0 5,3 14,6l0 -11c-9,3 -14,5 -14,5zm73 5c5,-1 11,-3 17,-5 -3,-6 -10,-10 -18,-12l0 0 1 17z"/>
   <path class="fil11" d="M994 823l0 0c0,0 0,0 0,0zm0 0c-10,35 -51,61 -78,64 -33,4 -63,-39 -69,-72 -7,-40 5,-121 63,-143 33,-13 73,-1 82,33 4,12 5,34 5,57 3,-4 20,-9 25,7 5,14 -11,54 -24,54 -2,0 -3,0 -4,0z"/>
   <path class="fil1 str7" d="M992 783c0,0 2,0 4,-2 3,-2 6,-5 9,-6 4,-2 7,-2 11,0"/>
   <path class="fil1 str5" d="M1127 1660c42,12 48,-91 45,-115"/>
   <path class="fil14" d="M1004 887c11,4 9,17 2,31 -23,40 -34,53 -52,99 -23,56 -45,134 -55,236 -21,200 -10,262 -10,262 0,0 108,-51 202,-36l-4 57c0,0 31,34 89,7 0,0 17,-75 16,-238 -2,-161 -67,-312 -149,-381 3,-21 -18,-42 -39,-37z"/>
   <g style="clip-path:url(#id9)">
    <g>
     <path id="1" class="fil1 str5" d="M1089 1479c0,0 7,-117 -17,-245 -24,-128 -11,-175 -11,-175"/>
    </g>
   </g>
   <path class="fil1" d="M1004 887c11,4 9,17 2,31 -23,40 -34,53 -52,99 -23,56 -45,134 -55,236 -21,200 -10,262 -10,262 0,0 108,-51 202,-36l-4 57c0,0 31,34 89,7 0,0 17,-75 16,-238 -2,-161 -67,-312 -149,-381 3,-21 -18,-42 -39,-37z"/>
   <path class="fil1 str5" d="M924 1187l113 -121 -8 -9c0,0 24,-107 13,-133"/>
   <path class="fil15" d="M1004 887c11,4 9,17 2,31 -23,40 -34,53 -52,99 -19,46 -37,108 -49,187 36,-49 61,-99 102,-144l-28 -61 36 34c7,-32 28,-109 28,-109 3,-21 -18,-42 -39,-37zm-100 321c-2,14 -4,30 -5,45 -21,200 -10,262 -10,262l0 0 0 0 0 0 0 0 0 0 1 0 0 0 0 0 0 -1 0 0 0 0 0 0 0 0 0 0 1 0 0 0 0 0 0 0 0 0 1 0 0 -1 0 0 0 0 1 0 0 0 0 0 1 0 0 0 0 -1 1 0 0 0 0 0 1 0 0 0 1 -1 0 0 1 0 0 0 0 0 1 0 0 -1 1 0 0 0 0 0c1,-1 2,-1 3,-1l0 0 1 -1 1 0 0 0 2 -1 1 0 1 -1 1 0 2 -1 0 0c2,0 3,-1 5,-2l0 0 0 0 3 -1 0 0 2 -1 1 0 0 0c2,0 3,-1 5,-2 -8,-60 -14,-229 7,-322 -12,12 -23,23 -31,31z"/>
   <path class="fil16" d="M935 1177l94 -113 -8 -9c0,0 21,-99 22,-131 0,0 -21,77 -28,109l-36 -34 28 61c-34,37 -57,77 -83,117 1,2 2,5 4,7 2,-2 5,-5 7,-7z"/>
   <circle class="fil17" transform="matrix(0.848499 0.0406981 -0.0406981 0.848499 906.559 1297.67)" r="5"/>
   <path class="fil4" d="M1008 913l-4 -26 -103 36c0,0 2,49 9,80 0,0 74,-65 94,-82l2 -3c0,-2 1,-3 2,-5z"/>
   <path class="fil18" d="M861 970c-6,26 38,37 46,16 -2,-12 -3,-24 -4,-35 -3,-5 -7,-9 -13,-10 -12,-2 -26,16 -29,29z"/>
   <path class="fil6" d="M891 941c2,-7 6,-14 10,-18 0,0 1,12 2,28 -3,-5 -7,-9 -12,-10z"/>
   <path class="fil11" d="M986 893l3 -57c-16,28 -49,48 -73,51 -8,1 -15,0 -22,-4l-7 58 4 -2c3,-6 6,-13 10,-16l85 -30z"/>
   <path class="fil12" d="M989 836c-16,28 -49,48 -73,51 -8,1 -15,0 -22,-4l-7 58 4 -2c3,-6 6,-13 10,-16l50 -18c34,-32 38,-69 38,-69z"/>
   <path class="fil4" d="M892 898l-40 10c-13,58 -12,68 -12,68 1,-1 16,-12 29,-22 5,-6 11,-12 18,-13l5 -43z"/>
   <path class="fil6" d="M852 908c-13,58 -12,68 -12,68 0,-1 4,-4 10,-8 3,-2 6,-5 10,-7l-8 -53z"/>
   <path class="fil4" d="M847 971c-11,29 -39,120 -40,273 0,0 0,127 6,138 0,0 28,14 75,15l0 -2 0 -3 0 -2 0 -2 0 -1 0 -1 0 -3 1 -4 0 0 0 -1 0 -1 0 -4 0 -2 0 -6 0 0 0 -2 1 -4 0 -1 0 -1 0 -5 0 0 0 -1 1 -6 0 0 0 -1 0 0 0 -6 0 -1 0 -1 1 -6 0 0 0 -1 0 -7 0 0 0 0 1 -7 0 -1 0 -1 1 -7 0 0c0,-6 1,-11 1,-16l0 -1 0 -1 1 -7 0 -1 0 0 0 0 1 -8 0 0 1 -8 0 -1 0 -1 1 -9c10,-102 32,-180 55,-236l1 -2 0 -1 0 -1 1 -1 0 -1 1 -2 0 -1 1 -1 0 -1 1 -1 0 0 0 -2 1 0 0 -2 0 0 0 0 1 -2 0 0 1 -1 0 -1 0 0 1 -1 0 0 0 -1 0 -1 1 -1 0 -1 1 -1 0 0 0 -1 0 0 1 -1 0 -1 0 0 0 -1 1 -1 0 0 1 -1 0 0 0 -1 0 0 1 -1 0 -1 0 0 1 -1 0 -1 0 0 1 -1 0 -1 1 -1 0 0 0 -1 0 -1 1 0 0 -1 1 -1 0 0 0 -1 1 0 0 -2 0 0 1 -1 0 0 1 -1 0 0 0 -1 0 -1 1 -1 0 0 1 -1 0 0 1 -1 0 0 0 -2 0 0 1 -1 0 0 1 -1 0 0 0 -1 1 -1 0 -1 0 0 1 -1 0 0 1 -1 0 -1 0 -1 1 0 0 -1 0 0 1 -1 0 -1 1 -1 0 0 1 -1 0 0 0 -1 1 -1 0 -1 1 0 0 -1 0 -1 1 0 0 -1 1 -1 0 -1 1 0 0 -1 0 -1 1 -1 0 0 2 -3 1 -1 0 -1 1 -2 1 -1 0 0 1 -2 0 -1 1 -1 2 -3c-20,17 -94,82 -94,82 -1,-5 -2,-11 -3,-17 -8,21 -52,10 -46,-16 2,-5 4,-11 8,-16 -8,6 -16,12 -22,17zm59 8c0,1 0,2 1,3 -1,-1 -1,-2 -1,-3z"/>
   <path class="fil19" d="M909 997c-3,4 -7,7 -13,8 0,0 -4,139 62,222 -50,-60 -64,-125 -69,-158 -3,-25 -2,-56 0,-72 8,0 15,-4 18,-11 1,4 1,8 2,11zm-4 -25l0 0 0 2 0 -2z"/>
   <path class="fil20" d="M847 971c-1,2 -2,5 -4,9l18 -9c0,0 0,-1 0,-1 1,-4 3,-7 4,-10l-1 -2c-6,5 -13,9 -17,13z"/>
   <path class="fil21" d="M984 954l1 0 0 -1 0 -1 1 0 0 -1 0 0 1 -1 0 -1 1 -1 0 0 1 -1 0 0 0 -1 1 -1 0 -1 1 0 0 -1 0 -1 1 0 0 -1 1 -1 0 -1 1 0 0 -1 0 -1 1 -1 0 0 2 -3 1 -1 0 -1 1 -2 1 -1 0 0 1 -2 0 -1 1 -1 2 -3c-20,17 -94,82 -94,82l74 -49z"/>
   <path class="fil16" d="M847 928c-21,21 -55,30 -87,191 -10,46 -16,99 -20,150 -9,128 16,259 16,259 0,0 19,11 40,20l0 0c1,-17 3,-33 4,-48l1 -4c0,-4 1,-9 1,-13l0 -4 1 -6 0 -4c1,-7 2,-14 2,-21l1 -3 0 -3 0 -2 1 -3 0 -3 0 -2 0 -3 0 0 1 -3 0 -2c0,-4 1,-8 1,-11l0 -2 0 -1 1 -2 0 -2 0 -1 0 -1 0 -1c1,-5 1,-10 2,-13l0 -1 0 -1 0 -1 0 -1 0 -2 0 -1 0 0 0 0 1 -1c-6,-11 -6,-138 -6,-138 1,-153 29,-244 40,-273 -4,2 -7,4 -7,5 0,0 -1,-8 7,-48zm136 663l0 0c-5,-25 -11,-47 -16,-62 0,0 -21,-15 -32,-30 -4,-3 -11,33 -18,85 0,0 23,8 66,7zm121 -12l1 0c0,-3 -1,-4 -1,-4 1,1 1,2 0,4z"/>
   <path class="fil14" d="M764 1018c-37,52 -75,111 -100,108 -27,-3 -48,-112 -62,-142 4,17 -69,47 -79,28 0,0 39,254 128,254 33,-1 63,-20 89,-43 0,28 0,47 0,47l0 -1 0 0c4,-51 10,-104 20,-150 32,-161 66,-170 87,-191 -34,15 -66,62 -83,90zm-23 152c0,-3 0,-6 0,-9 0,3 0,6 0,9zm1 -10c0,-6 0,-12 0,-18 0,6 0,12 0,18zm1 -23c0,-3 0,-7 0,-10 0,3 0,7 0,10zm0 -10c0,-5 1,-9 1,-14 0,5 -1,9 -1,14zm1 -15c0,-3 1,-6 1,-9 0,3 -1,6 -1,9zm1 -9c0,-5 1,-10 1,-15 0,5 -1,10 -1,15zm1 -15c0,-1 0,-3 1,-4 -1,1 -1,3 -1,4zm1 -4c0,-4 0,-7 1,-10 -1,3 -1,6 -1,10zm1 -10c0,-1 0,-3 0,-4 0,1 0,3 0,4zm1 -9c0,-3 0,-6 1,-9 -1,3 -1,6 -1,9zm1 -9c0,-2 0,-3 1,-4 -1,1 -1,2 -1,4zm1 -5c0,-1 0,-3 0,-4 0,1 0,3 0,4zm0 -4c0,-1 1,-3 1,-4 0,1 -1,3 -1,4zm1 -5c0,-1 0,-2 1,-4 -1,2 -1,3 -1,4z"/>
   <path class="fil13" d="M523 1012c2,5 9,6 17,6l-4 -25c-11,6 -17,12 -13,19zm18 6c1,0 1,0 2,0 -1,0 -1,0 -2,0zm7 -1c1,0 1,0 2,0 -1,0 -1,0 -2,0zm45 -19c6,-4 10,-9 9,-14 -1,-2 -6,-3 -14,-3l5 17z"/>
   <path class="fil18" d="M889 997c-2,16 -3,47 0,72 5,37 22,111 85,176 0,0 9,66 5,69 -4,4 -57,-19 -57,-19 -50,-54 -84,-225 -53,-304 6,4 13,6 20,6z"/>
   <rect class="fil5" transform="matrix(1.13116 0.0542559 -0.0542559 1.13116 868.38 771.812)" width="11.5618" height="19.063" rx="6" ry="6"/>
   <rect class="fil5" transform="matrix(1.13116 0.0542559 -0.0542559 1.13116 932.894 774.907)" width="11.5618" height="19.063" rx="6" ry="6"/>
   <path class="fil5" d="M897 819c-5,-7 -3,-13 2,-15 7,-3 16,3 16,14 0,0 -3,-12 -12,-11 -10,1 -6,12 -6,12z"/>
   <path class="fil5" d="M930 763c6,-3 16,-6 35,1 0,0 -10,-15 -37,-11 -6,1 -6,12 2,10z"/>
   <path class="fil5" d="M884 760c-6,-2 -17,-7 -36,-1 0,0 11,-15 38,-8 6,2 5,13 -2,9z"/>
   <path class="fil1 str7" d="M998 803c0,0 13,-2 7,-28"/>
   <path class="fil2" d="M491 809l51 -14c8,-2 16,5 17,14l13 84c-8,-10 -15,-18 -18,-14 -5,8 2,30 12,41 0,0 -8,15 -3,32l0 0 0 0 0 0 0 0 -45 12 -3 1c-8,2 -15,-5 -17,-14l-19 -124c-1,-9 5,-16 12,-18z"/>
   <path class="fil5" d="M492 817l54 -14c4,-1 8,2 9,7l11 76c-5,-6 -10,-10 -12,-7 -5,8 2,30 12,41 0,0 -6,11 -5,25l-47 12c-4,1 -8,-3 -8,-7l-20 -124c0,-5 3,-9 6,-9z"/>
   <path class="fil11" d="M593 998l-9 -32c0,0 11,-30 7,-41 -1,-3 -10,-19 -19,-32l0 0 -1 -1 0 0 -1 -1 0 0 0 0 -1 -1 0 0 0 0 0 0 0 -1 -1 0 0 -1 0 0 -1 -1 0 0 0 -1 -1 0 0 0 0 0 0 0 0 -1 0 0 0 0 -1 0 0 0 0 0 0 -1 -1 0 0 0 0 0 0 0 0 -1 0 0 -1 0 0 0 0 -1 0 0 0 0 -1 0 0 0 0 0 0 0 0 0 0 0 0 0 0 0 0 0 0 0 0 0 0 0 0 0 0 -1 0 0 0 0 0 0 0 0 0 0 0 0 0 0 0 0 0 0 0 0 0 0 0 0 0 0 0 0 0 0 0 0 0 0 0 0 -1 0 0 0 0 0 0 0 0 0 0 -1 -1 0 0 0 0 0 0 0 0 0 0 0 0 0 0 0 0 0 0 0 0 -1 0 0 -1 0 0 0 0 0 0 0 0 0 0 0 0 0 0 0 0 0 0 0 0 0 0 0 0 0 0 0 0 0 0 0 0 0 0 0 0 0 0 0 0 0 0 0 0 0 0 0 0 0 0 0 0 0 0 0 0 0 0 0 0 0 0 0 0 0 0 0 0 0 0 0 0 0 0 0 0 0 0 0 0 0 0 0 0 0 0 0 0 0 0 0 0 0 0 0 0 0 0 0 0 0 0 0 0 0 0 0 0 0 0 0 0 0 0 0 0 0 0 0 0 0 -1 0 0 0 0 0 0 0 0 0 0 0 0 0 0 0 0 0 0 0 0 0 0 0 0 0 0 0 0 0 0 0 0 0 0 0 0 0 0 0 0 0 0 0 0 0 0 0 0 0 0 0 0 0 0 0 0 0 0 0 0 0 0 0 0 0 0 0 0 0 0 0 0 0 0 0 0 0 0 -1 0 0 0 0 0 0 0 0 0 0 0 0 0 0 0 0 0 0 0 0 0 0 0 0 0 0 0 0 0 0 0 0 0 0 0 0 -1 0 0 0 0 0 0 0 0 0 0 0 0 0 0 0 0 0 0 0 0 0 0 0 0 0 0 0 0 0 0 0 0 0 0 0 0 0 0 0 0 0 0 0 0 0 0 0 0 0 0 0 0 0 0 0 0 0 0 0 0 0 0 0 0 0 0 0 0 0 0 0 0 0 0 0 0 0 0 0 0 0 0 0 0 0 0 0 0 0 0 0 0 0 0 0 0 0 0 0 0 0 0 0 0 0 0 0 0 0 0 0 0 0 -1 0 0 0 0 0 0 0 0 0 0 0 0 0 0 0 0 0 0 0 0 0 0 0 0 0 0 0 0 0 0 0 0 0 0 0 0 0 0 0 0 0 0 0 0 0 0 0 0 0 0 0 0 0 0 0 0 0 0 0 0 0 0 0 0 0 0 0 0 0 0 0 0 0 0 0 0 0 0 0 0 0 0 0 0 0 0 0 0 0 0 0 0 0 0 0 0 0 0 0 0 0 0 0 0 0 0 0 0 0 0 0 0 0 0 0 0 0 0 0 0 0 0 0 0 0 0 0 0 0 0 0 0 0 -1 0 0 0 0 0 0 0 0 0 0 0 0 0 0 0 0 0 0 0 0 0 0 0 0 0 0 0 0 0 0 0 0 0 0 0 0 0 0 0 0 0 0 0 0 0 0 0 0 0 0 0 0 0 0 0 0 0 0 1 0 0 0 0 0 0 0 0 0 0 0 0 0 0 0 0 0 0 0 0 0 0 0 0 0 0 0 0 0 0 0 0 -1 0 0 0 0 0 0 0 0 0 0 0 0 0 0 0 0 0 0 0 0 0 0 0 0 0 0 0 0 0 0 0 0 0 0 0 0 0 0 0 0 0 0 0 0 0c-5,8 2,30 12,41l0 0 0 0 0 1 0 0 0 0 0 0 0 0 -1 0 0 0 0 0 0 1 0 0 0 0 0 0 0 1 0 0 0 0 -1 0 0 0 0 1 0 0 0 0 0 0 0 1 0 0 0 0 0 1 0 0 0 0 -1 0 0 1 0 0 0 1 0 0 0 0 0 1 0 0 0 0 -1 1 0 0 0 1 0 0 0 1 0 0 0 1 0 0 0 0 0 1 0 0 0 1 0 0 -1 0 0 0 0 1 0 0 0 0 0 1 0 0 0 1 0 1 0 0 0 1 0 1 0 0 0 1 0 1 0 1 0 0 0 1 1 1 0 1 0 0 0 1 0 1 0 1 0 0 1 1 0 1 0 0 0 0 0 0 0 0 0 0 -45 12c0,2 3,12 17,23 0,0 5,31 5,31 16,-1 40,-10 53,-20zm-21 -105l0 0 0 0z"/>
   <g>
    <path class="fil22" d="M593 998l0 0 0 0zm0 0l-3 -11 -6 -21 -32 33 0 0 1 0 0 0 0 0 0 0 1 0 0 0 0 0 2 -1 0 0c1,0 3,-1 4,-1l33 1zm-2 1l0 0 0 0zm0 0l0 0 0 0zm0 0l0 0 0 0zm0 0l0 0 0 0zm0 0l0 0 0 0zm0 0l0 0 0 0 0 0zm1 0l0 0 0 0 0 0 0 0 0 0 0 0zm0 0l0 0 0 0 0 0zm0 0l0 0 0 0 0 0zm0 0l0 0 0 0 0 0zm0 0l0 0 0 0 0 0zm0 0l0 0 0 0 0 0zm0 0l0 0 0 0 0 0zm0 0l0 0 0 0 0 0zm0 0l0 0 0 0 0 0 0 0 0 -1 0 0 1 0 0 0 0 0 0 0 0 0 0 0 -1 1z"/>
   </g>
   <path class="fil22" d="M563 952l0 0 0 0 0 0 0 0 -45 12c0,2 3,12 17,23 -7,-21 27,-35 28,-35z"/>
   <path class="fil4" d="M593 998l-3 -11c-22,6 -43,14 -52,18l2 13c16,-1 40,-10 53,-20z"/>
   <path class="fil11" d="M1098 1544c-20,21 -5,39 -29,51 -3,1 5,13 17,8 10,-4 20,-23 18,-28 0,0 7,41 -1,68 -4,12 5,15 15,8 34,23 55,-72 49,-104l0 0c-33,12 -57,5 -69,-3z"/>
   <path class="fil12" d="M1168 1565c0,-7 0,-13 -1,-18l0 0c-33,12 -57,5 -69,-3 0,0 22,28 70,21z"/>
   <path class="fil23" d="M993 939l1 -1 0 1 -1 0zm15 -26c5,-12 6,-22 -4,-26l4 26z"/>
   <circle class="fil17" transform="matrix(1.13116 0.0542559 -0.0542559 1.13116 541.51 1041.28)" r="4"/>
   <circle class="fil17" transform="matrix(1.13116 0.0542559 -0.0542559 1.13116 546.72 1061.9)" r="4"/>
   <circle class="fil17" transform="matrix(0.848499 0.0406981 -0.0406981 0.848499 904.648 1356.03)" r="5"/>
   <circle class="fil17" transform="matrix(0.848499 0.0406981 -0.0406981 0.848499 903.251 1422.1)" r="5"/>
   <path class="fil15" d="M740 1270c0,0 -3,-141 13,-232 0,0 20,-33 51,-60 -14,25 -28,64 -43,133l0 0c0,3 -1,5 -1,8l-1 2 0 2 -1 2 0 2 0 0 -1 3 0 0 0 2 0 0 0 2 -1 2 0 3 -1 2 0 0 0 2 0 2 -1 3 0 2 0 2 0 0 -1 2 0 0 0 3 0 0 -1 2 0 2 0 0 0 3 -1 2 0 0 0 2 0 0 0 3 -1 2 0 0 0 2 0 0 0 3 -1 2 0 0 0 2 0 3 -1 2 0 0 0 3 0 2 0 2 -1 3 0 0 0 2 0 3 -1 2 0 0 0 2 0 3 0 2 0 0 -1 3 0 0 0 2 0 0 0 2 0 3 0 0 -1 2 0 0 0 3 0 0 0 2 0 0 0 2 -1 3 0 2 0 3 0 0 0 2 0 0 0 3 -1 2 0 0 0 2 0 0 0 3 0 2 0 3 -1 2 0 0 0 3 0 0 0 2 0 2 0 3 -1 2 0 0 0 1z"/>
   <path class="fil5" d="M897 844c0,-5 7,-8 16,-10 16,-4 25,-12 31,-6 4,4 3,17 -8,25 -10,7 -40,4 -39,-9z"/>
   <path class="fil24" d="M945 840c-1,4 -4,9 -9,13 -5,3 -15,4 -24,3 6,-7 17,-14 33,-16z"/>
   <path class="fil25" d="M897 844c0,-5 7,-8 16,-10 16,-4 25,-12 31,-6 1,0 1,1 2,2 -19,11 -38,15 -49,16 0,-1 0,-2 0,-2z"/>
   <path class="fil23" d="M1103 1547c0,0 -1,0 -1,-1 0,1 1,1 1,1zm-3 -2l-1 0c0,0 0,0 1,0zm-2 -1c-2,-1 -3,-2 -5,-3l1 7c1,-1 2,-3 4,-4l0 0zm-9 -38l2 -27c-3,-1 -5,-1 -7,-1 2,9 3,18 5,28z"/>
   <path class="fil5" d="M997 782c-6,7 -15,0 -15,-5 -1,-11 1,-41 -27,-45 0,0 -32,22 -61,-6 -61,41 -120,13 -103,-46 11,-34 63,-63 106,-31 0,0 40,-29 56,15 0,0 44,-12 40,29 0,0 41,-10 19,65l0 0c-6,-1 -13,2 -15,4 0,7 0,14 0,20z"/>
   <rect class="fil6" x="119" y="1453" width="471.316" height="16.9867"/>
   <path class="fil4" d="M481 1453l-264 0c-5,0 -9,-4 -9,-9l0 -8 264 0c5,0 9,3 9,8l0 9z"/>
   <polygon class="fil4" points="208,1436 373,1436 344,1277 180,1277 "/>
   <ellipse class="fil20" transform="matrix(-1.12605 0.120365 0.120365 1.12605 269.226 1354.35)" rx="10" ry="18"/>
   <rect class="fil17" x="65" y="2039" width="1580.41" height="10.001"/>
   <line class="fil1 str8" x1="328" y1="354" x2="582" y2= "438" />
   <line class="fil1 str8" x1="1194" y1="532" x2="1358" y2= "430" />
   <line class="fil1 str8" x1="1478" y1="469" x2="1447" y2= "738" />
   <line class="fil1 str8" x1="1184" y1="572" x2="1366" y2= "685" />
   <line class="fil1 str8" x1="415" y1="712" x2="598" y2= "540" />
   <line class="fil1 str8" x1="843" y1="498" x2="1052" y2= "555" />
   <line class="fil1 str8" x1="509" y1="224" x2="675" y2= "398" />
   <line class="fil1 str8" x1="574" y1="186" x2="770" y2= "59" />
   <line class="fil1 str8" x1="870" y1="117" x2="772" y2= "397" />
   <line class="fil1 str8" x1="972" y1="60" x2="1153" y2= "221" />
   <line class="fil1 str8" x1="1237" y1="291" x2="1361" y2= "380" />
   <line class="fil1 str8" x1="843" y1="448" x2="1063" y2= "298" />
   <line class="fil1 str8" x1="1149" y1="326" x2="1117" y2= "517" />
   <line class="fil1 str8" x1="215" y1="421" x2="264" y2= "689" />
   <line class="fil1 str8" x1="205" y1="294" x2="460" y2= "206" />
   <rect class="fil14" x="571" y="389" width="282" height="166" rx="17" ry="18"/>
   <circle class="fil26" cx="650" cy="472" r="44"/>
   <path class="fil4" d="M690 490c-7,15 -22,25 -40,25 -17,0 -32,-10 -39,-25 6,-7 14,-13 23,-16 3,7 9,12 16,12 8,0 14,-5 17,-12 9,3 17,9 23,16z"/>
   <circle class="fil4" cx="650" cy="469" r="17"/>
   <g>
    <rect class="fil4" x="723" y="446" width="98.7501" height="12.5073" rx="5" ry="6"/>
    <rect class="fil4" x="723" y="485" width="70.7665" height="12.5073" rx="4" ry="6"/>
   </g>
   <rect class="fil2" x="97" y="605" width="330" height="194" rx="20" ry="21"/>
   <circle class="fil27" cx="190" cy="702" r="51"/>
   <path class="fil4" d="M236 723c-8,18 -26,30 -46,30 -21,0 -38,-12 -46,-30 7,-8 16,-15 27,-18 3,8 10,13 19,13 8,0 16,-5 19,-13 10,3 20,10 27,18z"/>
   <circle class="fil4" cx="190" cy="698" r="20"/>
   <g>
    <rect class="fil4" x="275" y="672" width="115.626" height="14.6447" rx="6" ry="7"/>
    <rect class="fil4" x="275" y="717" width="82.8598" height="14.6447" rx="4" ry="7"/>
   </g>
   <path class="fil28" d="M170 705c0,0 0,0 1,0 3,8 10,13 19,13 8,0 16,-5 19,-13 0,0 0,0 1,0l0 1c0,11 -9,20 -20,20 -11,0 -20,-9 -20,-20l0 -1z"/>
   <rect class="fil14" x="1353" y="331" width="245" height="144" rx="15" ry="16"/>
   <circle class="fil26" cx="1422" cy="403" r="38"/>
   <path class="fil4" d="M1457 419c-6,13 -19,22 -35,22 -15,0 -28,-9 -34,-22 5,-6 12,-11 20,-13 2,5 8,9 14,9 7,0 12,-4 14,-9 8,2 15,7 21,13z"/>
   <circle class="fil4" cx="1422" cy="401" r="15"/>
   <g>
    <rect class="fil4" x="1486" y="381" width="86.083" height="10.903" rx="5" ry="5"/>
    <rect class="fil4" x="1486" y="415" width="61.689" height="10.903" rx="3" ry="5"/>
   </g>
   <path class="fil20" d="M1408 406l0 0c2,5 8,9 14,9 7,0 12,-4 14,-9l1 0c0,0 0,1 0,1 0,8 -6,15 -15,15 -8,0 -15,-7 -15,-15 0,0 0,-1 1,-1z"/>
   <rect class="fil14" x="97" y="286" width="239" height="140" rx="14" ry="15"/>
   <circle class="fil26" cx="164" cy="356" r="37"/>
   <path class="fil4" d="M198 372c-6,13 -19,21 -34,21 -15,0 -27,-8 -33,-21 5,-6 12,-11 20,-13 2,5 7,9 13,9 7,0 12,-4 14,-9 8,2 15,7 20,13z"/>
   <circle class="fil4" cx="164" cy="354" r="15"/>
   <g>
    <rect class="fil4" x="226" y="335" width="83.7623" height="10.609" rx="4" ry="5"/>
    <rect class="fil4" x="226" y="367" width="60.0259" height="10.609" rx="3" ry="5"/>
   </g>
   <path class="fil20" d="M150 359l1 0c2,5 7,9 13,9 7,0 12,-4 14,-9l1 0c0,8 -7,14 -15,14 -8,0 -14,-6 -14,-14z"/>
   <rect class="fil14" x="1261" y="678" width="295" height="174" rx="17" ry="19"/>
   <circle class="fil26" cx="1344" cy="765" r="46"/>
   <path class="fil4" d="M1385 784c-7,16 -23,26 -41,26 -19,0 -34,-10 -42,-26 7,-7 15,-13 25,-16 2,7 9,11 17,11 7,0 14,-4 17,-11 9,3 18,9 24,16z"/>
   <circle class="fil4" cx="1344" cy="762" r="18"/>
   <g>
    <rect class="fil4" x="1420" y="738" width="103.495" height="13.1083" rx="5" ry="7"/>
    <rect class="fil4" x="1420" y="778" width="74.167" height="13.1083" rx="4" ry="7"/>
   </g>
   <path class="fil20" d="M1326 768l1 0c2,7 9,11 17,11 7,0 14,-4 17,-11l1 0c0,0 0,1 0,1 0,10 -8,18 -18,18 -10,0 -18,-8 -18,-18 0,0 0,-1 0,-1z"/>
   <rect class="fil2" x="452" y="164" width="147.79" height="86.9353" rx="9" ry="10"/>
   <circle class="fil27" cx="494" cy="207" r="23"/>
   <path class="fil4" d="M514 217c-3,8 -11,13 -20,13 -9,0 -17,-5 -21,-13 3,-4 7,-7 12,-8 1,3 5,6 9,6 4,0 7,-3 8,-6 5,1 9,4 12,8z"/>
   <circle class="fil4" cx="494" cy="206" r="9"/>
   <g>
    <rect class="fil4" x="532" y="194" width="51.8399" height="6.56585" rx="3" ry="3"/>
    <rect class="fil4" x="532" y="214" width="37.1496" height="6.56585" rx="2" ry="3"/>
   </g>
   <path class="fil29" d="M485 209l0 0c1,3 5,6 9,6 4,0 7,-3 8,-6l1 0 0 0c0,5 -4,9 -9,9 -5,0 -9,-4 -9,-9l0 0z"/>
   <rect class="fil14" x="759" y="-2" width="217" height="128" rx="13" ry="14"/>
   <circle class="fil26" cx="820" cy="62" r="34"/>
   <path class="fil4" d="M851 76c-6,12 -17,20 -31,20 -13,0 -25,-8 -30,-20 5,-5 11,-10 18,-12 2,5 7,9 12,9 6,0 11,-4 13,-9 7,2 13,7 18,12z"/>
   <circle class="fil4" cx="820" cy="60" r="13"/>
   <g>
    <rect class="fil4" x="876" y="42" width="76.033" height="9.63006" rx="4" ry="5"/>
    <rect class="fil4" x="876" y="72" width="54.4869" height="9.63006" rx="3" ry="5"/>
   </g>
   <path class="fil29" d="M807 64l1 0c2,5 7,9 12,9 6,0 11,-4 13,-9l0 0 0 1c0,7 -5,13 -13,13 -7,0 -13,-6 -13,-13l0 -1z"/>
   <rect class="fil2" x="1048" y="215" width="201" height="118" rx="12" ry="13"/>
   <circle class="fil27" cx="1105" cy="274" r="31"/>
   <path class="fil4" d="M1133 287c-5,11 -16,18 -28,18 -13,0 -23,-7 -28,-18 4,-5 10,-9 16,-11 2,5 7,8 12,8 5,0 10,-3 11,-8 7,2 13,6 17,11z"/>
   <circle class="fil4" cx="1105" cy="272" r="12"/>
   <g>
    <rect class="fil4" x="1157" y="256" width="70.4987" height="8.92911" rx="4" ry="4"/>
    <rect class="fil4" x="1157" y="283" width="50.5209" height="8.92911" rx="3" ry="4"/>
   </g>
   <path class="fil29" d="M1093 276l0 0c2,5 7,8 12,8 5,0 10,-3 11,-8l1 0c0,1 0,1 0,1 0,7 -5,12 -12,12 -7,0 -12,-5 -12,-12 0,0 0,0 0,-1z"/>
   <rect class="fil2" x="1046" y="507" width="147.79" height="86.9353" rx="9" ry="10"/>
   <circle class="fil27" cx="1088" cy="551" r="23"/>
   <path class="fil4" d="M1109 560c-4,8 -12,14 -21,14 -9,0 -17,-6 -21,-14 3,-3 8,-6 12,-8 2,4 5,6 9,6 4,0 7,-2 8,-6 5,2 9,5 13,8z"/>
   <circle class="fil4" cx="1088" cy="549" r="9"/>
   <g>
    <rect class="fil4" x="1126" y="537" width="51.8399" height="6.56585" rx="3" ry="3"/>
    <rect class="fil4" x="1126" y="558" width="37.1496" height="6.56585" rx="2" ry="3"/>
   </g>
   <path class="fil29" d="M1079 552l0 0c2,4 5,6 9,6 4,0 7,-2 8,-6l1 0c0,5 -4,9 -9,9 -5,0 -9,-4 -9,-9z"/>
   <path class="fil29" d="M633 475c1,0 1,0 1,-1 3,7 9,12 16,12 8,0 14,-5 17,-12 0,1 0,1 1,1 -1,9 -8,16 -18,16 -9,0 -16,-7 -17,-16z"/>
  </g>
 </g>
</svg>
