<svg width="32" height="32" viewBox="0 0 32 32" fill="none" xmlns="http://www.w3.org/2000/svg">
<path d="M16 32C24.8366 32 32 24.8366 32 16C32 7.16344 24.8366 0 16 0C7.16344 0 0 7.16344 0 16C0 24.8366 7.16344 32 16 32Z" fill="#E2FFF6"/>
<path d="M30.5 16C30.5 24.0081 24.0081 30.5 16 30.5C7.99187 30.5 1.5 24.0081 1.5 16C1.5 7.99187 7.99187 1.5 16 1.5C24.0081 1.5 30.5 7.99187 30.5 16Z" stroke="white" stroke-opacity="0.08" stroke-width="3"/>
<mask id="mask0" mask-type="alpha" maskUnits="userSpaceOnUse" x="0" y="0" width="32" height="32">
<path d="M16 32C24.8366 32 32 24.8366 32 16C32 7.16344 24.8366 0 16 0C7.16344 0 0 7.16344 0 16C0 24.8366 7.16344 32 16 32Z" fill="#E2FFF6"/>
<path d="M30.5 16C30.5 24.0081 24.0081 30.5 16 30.5C7.99187 30.5 1.5 24.0081 1.5 16C1.5 7.99187 7.99187 1.5 16 1.5C24.0081 1.5 30.5 7.99187 30.5 16Z" stroke="white" stroke-opacity="0.08" stroke-width="3"/>
</mask>
<g mask="url(#mask0)">
<g filter="url(#filter0_d)">
<path fill-rule="evenodd" clip-rule="evenodd" d="M15.8025 7H16.8328V7.10675H16.8331V7.00013H17.8985C18.2548 7.00013 18.5433 7.28855 18.5433 7.64487V7.67591H19.412H22.7393C23.1994 7.67591 23.5726 8.04543 23.5726 8.50109V10.3844C23.5726 10.84 23.1994 11.2096 22.7393 11.2096H22.6255L22.7546 12.5372L22.7504 12.5417L22.8511 13.5878L24.9066 12.2242C25.1054 12.0922 25.3205 11.9917 25.5464 11.9238C25.7718 11.8554 26.007 11.8206 26.2449 11.8206C27.5817 11.8206 28.6653 12.9043 28.6653 14.241V20.595C28.6653 21.4847 28.3046 22.2897 27.7218 22.8725C27.139 23.4553 26.334 23.816 25.4443 23.816C24.6551 23.816 23.8936 23.5265 23.3042 23.0023L22.4667 22.2582C22.1445 22.6968 21.7447 23.0835 21.2779 23.3961L17.9005 25.6573C17.7386 25.7654 17.6414 25.9473 17.6414 26.1423V28.221H19.9873C20.5548 28.221 21.0149 28.6811 21.0149 29.2486V30.3271H21.8696C22.5153 30.3271 23.0388 30.8505 23.0388 31.4963V33.5941H24.4119C24.637 33.5941 24.8193 33.7765 24.8193 34.0015C24.8193 34.2265 24.6369 34.4089 24.4119 34.4089H7.45344C7.2284 34.4089 7.04606 34.2265 7.04606 34.0015C7.04606 33.7765 7.2284 33.5941 7.45344 33.5941H8.59111V31.4963C8.59111 30.8506 9.11457 30.3271 9.76034 30.3271H10.8497V29.2485C10.8497 28.681 11.3098 28.221 11.8773 28.221H14.2781V26.1425L14.2781 26.1423C14.2781 26.1195 14.2767 26.0968 14.2741 26.0744C14.2544 25.9057 14.1618 25.7528 14.019 25.6574L10.6416 23.3962C10.1631 23.0759 9.75509 22.6777 9.42881 22.2255L9.39836 22.2582L8.56079 23.0023C8.26639 23.2641 7.92854 23.4678 7.5657 23.6058C7.20287 23.7437 6.81504 23.816 6.4207 23.816C4.64182 23.816 3.19971 22.3739 3.19971 20.595V14.241C3.19971 13.5729 3.47075 12.9678 3.90854 12.5295C4.34688 12.0917 4.95197 11.8206 5.62007 11.8206C6.09589 11.8206 6.56138 11.9608 6.95844 12.2242L9.01434 13.5881L9.06522 13.62L9.1678 12.5543H9.16326L9.29394 11.2096H9.12642C8.66635 11.2096 8.2932 10.84 8.2932 10.3844V8.50109C8.2932 8.04548 8.66635 7.67591 9.12642 7.67591H12.4528H13.3224V7.64487C13.3224 7.28855 13.6108 7.00013 13.9671 7.00013H15.0323V7H15.8025ZM8.54926 18.9801L8.88853 15.4556L8.66508 15.3132L6.00083 13.5946C5.8482 13.4963 5.66787 13.4534 5.48536 13.4735C5.07581 13.518 4.77653 13.8841 4.78196 14.2959L4.86561 20.5928C4.87593 21.3717 5.43376 22.0507 6.20343 22.174C6.68957 22.2517 7.17516 22.1028 7.53094 21.778L8.56513 20.8334L8.69921 20.7047C8.60387 20.3596 8.547 20.0023 8.53159 19.639C8.52519 19.4882 8.52594 19.3364 8.53404 19.184C8.53765 19.1161 8.54272 19.0482 8.54926 18.9801ZM23.2071 20.7512C23.3696 20.1854 23.4284 19.5857 23.3702 18.9801L23.027 15.4145L23.1999 15.3132L25.8642 13.5946C26.0168 13.4963 26.1971 13.4534 26.3796 13.4735C26.7892 13.518 27.0885 13.8841 27.083 14.2959L26.9994 20.5928C26.9891 21.3717 26.4312 22.0507 25.6616 22.174C25.1754 22.2517 24.6898 22.1028 24.3341 21.778L23.2999 20.8334L23.2071 20.7512Z" fill="#E2FFF6"/>
</g>
<path d="M28.6653 14.2409V20.5949C28.6653 21.4846 28.3047 22.2896 27.7218 22.8724C27.139 23.4552 26.334 23.8159 25.4443 23.8159C24.6551 23.8159 23.8936 23.5264 23.3042 23.0022L22.4667 22.2581L17.9573 18.8274V16.991L22.8507 13.588L24.9066 12.2241C25.1054 12.0921 25.3205 11.9917 25.5464 11.9238C25.7719 11.8553 26.007 11.8206 26.245 11.8206C27.5817 11.8206 28.6653 12.9042 28.6653 14.2409V14.2409ZM27.0831 14.2958C27.0885 13.8841 26.7892 13.518 26.3797 13.4734C26.1972 13.4533 26.0168 13.4962 25.8642 13.5945L23.1999 15.3131L21.0365 16.5798V18.8274L23.2999 20.8334L24.3341 21.7779C24.6899 22.1028 25.1755 22.2516 25.6616 22.1739C26.4313 22.0506 26.9891 21.3716 26.9994 20.5927L27.0831 14.2958Z" fill="#FEDF30"/>
<path d="M12.4043 15.7118V19.0306L9.39836 22.2581L8.56079 23.0022C8.26639 23.264 7.92854 23.4677 7.5657 23.6057C7.20287 23.7437 6.81504 23.8159 6.4207 23.8159C4.64182 23.8159 3.19971 22.3738 3.19971 20.5949V14.2409C3.19971 13.5728 3.47075 12.9677 3.90854 12.5294C4.34688 12.0916 4.95197 11.8206 5.62007 11.8206C6.09589 11.8206 6.56138 11.9607 6.95844 12.2241L9.01434 13.588L12.4043 15.7118ZM10.6536 18.8274V16.5798L8.66508 15.3131L6.00083 13.5945C5.8482 13.4962 5.66787 13.4533 5.48536 13.4734C5.07581 13.518 4.77653 13.8841 4.78196 14.2958L4.86561 20.5927C4.87593 21.3716 5.43376 22.0506 6.20343 22.1739C6.68957 22.2516 7.17516 22.1028 7.53094 21.7779L8.56513 20.8334L10.6536 18.8274Z" fill="#FEDF30"/>
<path d="M23.3702 18.98C23.538 20.7247 22.7341 22.421 21.2779 23.396L17.9004 25.6572C17.7386 25.7653 17.6413 25.9472 17.6413 26.1422V28.2209L17.7652 32.0563H14.1216L14.278 28.2209V26.1422C14.278 25.9472 14.1808 25.7653 14.019 25.6572L10.6415 23.396C9.18529 22.421 8.3814 20.7247 8.54924 18.98L9.29392 11.2436L9.72248 8.99927H22.4669L22.6255 11.2436L23.3702 18.98Z" fill="#FEE97D"/>
<path d="M19.2254 13.9754C19.3476 13.7984 19.4122 13.5913 19.4122 13.3763V13.1999V12.9482C19.4122 12.7307 19.5885 12.5544 19.8059 12.5544H22.7391C22.7452 12.5476 22.7484 12.5441 22.7546 12.5373L22.6255 11.2096L22.4669 8.98682H9.72254L9.29398 11.2096L9.16329 12.5544H9.16786L8.5493 18.9803C8.38146 20.725 9.18535 22.4213 10.6416 23.3963L14.019 25.6575C14.1809 25.7656 14.2781 25.9476 14.2781 26.1426V28.2213L14.1217 32.0566H15.8507L16.0072 28.2213V26.1426C16.0072 25.9476 15.9099 25.7656 15.7481 25.6575L12.3707 23.3963C10.9144 22.4213 10.1105 20.725 10.2784 18.9803L10.8373 13.173C10.8711 12.8221 11.1659 12.5544 11.5184 12.5544H12.1922C12.3363 12.5544 12.4531 12.6711 12.4531 12.8152V13.1999V13.3762C12.4531 13.5901 12.5181 13.799 12.6396 13.975L12.8769 14.3188C12.9995 14.4965 12.9563 14.738 12.7822 14.8656C11.4056 15.8747 10.5281 17.5261 10.5957 19.3746C10.6974 22.1509 12.9453 24.404 15.7215 24.5116C18.762 24.6294 21.2732 22.19 21.2732 19.1751C21.2732 17.352 20.3547 15.7395 18.9564 14.7755C18.8506 14.7026 18.8229 14.5586 18.8959 14.4528L19.2254 13.9754Z" fill="#FEE45A"/>
<path d="M23.5726 8.50121V10.3845C23.5726 10.8401 23.1994 11.2097 22.7393 11.2097H9.12643C8.66637 11.2097 8.29321 10.8401 8.29321 10.3845V8.50121C8.29321 8.0456 8.66637 7.67603 9.12643 7.67603H22.7393C23.1994 7.67603 23.5726 8.04554 23.5726 8.50121V8.50121Z" fill="#FEDF30"/>
<path d="M12.4539 10.6799H19.4131V12.5547H12.4539V10.6799Z" fill="#FEDF30"/>
<path d="M19.9873 28.2209H11.8775C11.31 28.2209 10.85 28.681 10.85 29.2485V30.3271L11.9232 32.3015H20.2347L21.015 30.3271V29.2485C21.0149 28.681 20.5548 28.2209 19.9873 28.2209V28.2209Z" fill="#FEE45A"/>
<path d="M16.1691 32.296L15.0959 30.3217V29.243C15.0959 28.7114 15.4996 28.2742 16.0171 28.2209H11.8775C11.31 28.2209 10.85 28.681 10.85 29.2485V30.3271L11.9232 32.3015H20.2347L20.2369 32.296H16.1691Z" fill="#FEDF30"/>
<path d="M21.8696 30.3271H9.76035C9.11458 30.3271 8.59113 30.8507 8.59113 31.4964V34.0011H23.0388V31.4964C23.0388 30.8506 22.5153 30.3271 21.8696 30.3271V30.3271Z" fill="#FEDF30"/>
<path d="M12.8371 33.9956V31.4909C12.8371 30.8819 13.3027 30.3822 13.8973 30.3271H9.76035C9.11458 30.3271 8.59113 30.8507 8.59113 31.4964V34.0011H23.0388V33.9956H12.8371Z" fill="#FED402"/>
<path d="M17.9242 12.2212H14.3999L13.3224 13.2001V13.3765C13.3224 13.414 13.3338 13.4508 13.3552 13.4817L14.4196 15.0241L15.3381 16.1685H16.5868L17.4461 15.0241L18.5105 13.4817C18.5319 13.4508 18.5433 13.4141 18.5433 13.3765V13.2001L17.9242 12.2212Z" fill="#EFEDEF"/>
<path d="M16.4445 15.0241L15.4113 13.5271C15.3696 13.4666 15.3473 13.3949 15.3473 13.3215V13.2001L16.4248 12.2212H14.3999L13.3224 13.2001V13.3765C13.3224 13.414 13.3338 13.4508 13.3552 13.4817L14.4196 15.024L15.3381 16.1685H16.5868L16.962 15.6688L16.4445 15.0241Z" fill="#E5E1E5"/>
<path d="M12.4528 7.67603H19.412V11.2441H12.4528V7.67603Z" fill="#FED402"/>
<path d="M17.8985 7.00024H16.8331V7.10687H15.0326V7.00024H13.9671C13.6108 7.00024 13.3224 7.28867 13.3224 7.64499V13.2H15.0325V13.0917H16.8331V13.2H18.5433V7.64499C18.5433 7.28867 18.2549 7.00024 17.8985 7.00024V7.00024Z" fill="#00BD84"/>
<path d="M15.6372 7.10681H15.0326V7.00024H13.9671C13.6108 7.00024 13.3224 7.28867 13.3224 7.64499V13.2H15.3473V7.64499C15.3473 7.4199 15.4625 7.22213 15.6372 7.10681V7.10681Z" fill="#00BD84"/>
<path d="M15.0323 7H16.8328V13.1998H15.0323V7Z" fill="#F9F7F8"/>
<path d="M15.0323 7V13.1998H15.347V7.64491C15.347 7.41982 15.4623 7.22205 15.6368 7.10679L15.8025 7H15.0323Z" fill="#EFEDEF"/>
<path d="M17.0796 14.909L16.962 14.9168L16.5489 14.8882L14.8953 15.1285L14.0594 15.536L12.4177 17.5321L12.0632 18.5302L12.2032 20.2745L12.7908 21.8322L14.162 22.9608L16.0368 23.4925L17.1321 23.4261C18.9886 22.9034 20.3501 21.1987 20.3501 19.175C20.3501 17.1322 18.9631 15.4141 17.0796 14.909V14.909Z" fill="#FEDF30"/>
<path d="M13.9223 19.175C13.9223 17.1527 15.2841 15.4486 17.1386 14.9246C16.756 14.8164 16.3503 14.7578 15.9331 14.7578C13.4935 14.7578 11.5159 16.7354 11.5159 19.175C11.5159 21.6146 13.4935 23.5922 15.9331 23.5922C16.3503 23.5922 16.756 23.5339 17.1386 23.4257C15.2841 22.9016 13.9223 21.1972 13.9223 19.175V19.175Z" fill="#FED402"/>
<path d="M15.9327 21.9629C17.4723 21.9629 18.7204 20.7148 18.7204 19.1752C18.7204 17.6356 17.4723 16.3875 15.9327 16.3875C14.3931 16.3875 13.145 17.6356 13.145 19.1752C13.145 20.7148 14.3931 21.9629 15.9327 21.9629Z" fill="#FEF0AE"/>
<path d="M14.6976 21.6739C14.209 20.9634 13.9219 20.1025 13.9219 19.175C13.9219 18.2475 14.2077 17.3872 14.6963 16.6768C13.7775 17.1331 13.145 18.0814 13.145 19.175C13.145 20.2686 13.7788 21.2175 14.6976 21.6739Z" fill="#FEE97D"/>
</g>
<defs>
<filter id="filter0_d" x="-11.8003" y="-8" width="55.4656" height="57.4089" filterUnits="userSpaceOnUse" color-interpolation-filters="sRGB">
<feFlood flood-opacity="0" result="BackgroundImageFix"/>
<feColorMatrix in="SourceAlpha" type="matrix" values="0 0 0 0 0 0 0 0 0 0 0 0 0 0 0 0 0 0 127 0"/>
<feOffset/>
<feGaussianBlur stdDeviation="7.5"/>
<feColorMatrix type="matrix" values="0 0 0 0 0 0 0 0 0 0.741176 0 0 0 0 0.517647 0 0 0 0.1 0"/>
<feBlend mode="normal" in2="BackgroundImageFix" result="effect1_dropShadow"/>
<feBlend mode="normal" in="SourceGraphic" in2="effect1_dropShadow" result="shape"/>
</filter>
</defs>
</svg>
