<svg width="24" height="24" viewBox="0 0 24 24" fill="none" xmlns="http://www.w3.org/2000/svg">
<g clip-path="url(#clip0)">
<path d="M19 9.43988C18.3274 9.44508 17.6628 9.58593 17.046 9.85397C16.4291 10.122 15.8727 10.5118 15.41 10.9999L12.46 9.09988C12.814 8.27867 12.9977 7.39415 13 6.49988C13.0017 4.97544 12.4684 3.49872 11.493 2.32716C10.5177 1.15559 9.16206 0.363483 7.66254 0.0889044C6.16303 -0.185675 4.61471 0.0746933 3.28748 0.824622C1.96025 1.57455 0.93829 2.76648 0.399744 4.19263C-0.138801 5.61877 -0.159776 7.18869 0.340478 8.62872C0.840732 10.0687 1.83049 11.2875 3.13721 12.0727C4.44393 12.8578 5.98474 13.1594 7.49105 12.925C8.99737 12.6906 10.3736 11.935 11.38 10.7899L14.38 12.6699C14.1467 13.2318 14.0179 13.8317 14 14.4399C14.0028 15.0212 14.1112 15.5973 14.32 16.1399L8.92998 19.4499C8.50972 19.1589 8.01116 19.002 7.49998 18.9999C7.00552 18.9999 6.52217 19.1465 6.11105 19.4212C5.69993 19.6959 5.3795 20.0864 5.19028 20.5432C5.00106 21 4.95155 21.5027 5.04801 21.9876C5.14448 22.4726 5.38258 22.918 5.73221 23.2676C6.08184 23.6173 6.5273 23.8554 7.01225 23.9518C7.4972 24.0483 7.99987 23.9988 8.45669 23.8096C8.9135 23.6204 9.30395 23.2999 9.57865 22.8888C9.85335 22.4777 9.99998 21.9943 9.99998 21.4999C9.99998 21.3799 9.99998 21.2699 9.99998 21.1599L15.39 17.8499C15.8502 18.3487 16.4083 18.7473 17.0294 19.0208C17.6505 19.2944 18.3213 19.437 19 19.4399C20.3261 19.4399 21.5978 18.9131 22.5355 17.9754C23.4732 17.0377 24 15.766 24 14.4399C24 13.1138 23.4732 11.842 22.5355 10.9043C21.5978 9.96666 20.3261 9.43988 19 9.43988ZM6.49998 1.99988C6.89554 1.99988 7.28222 2.11718 7.61112 2.33694C7.94001 2.5567 8.19636 2.86906 8.34774 3.23451C8.49911 3.59997 8.53872 4.0021 8.46155 4.39006C8.38438 4.77802 8.19389 5.13439 7.91419 5.41409C7.63448 5.6938 7.27812 5.88428 6.89016 5.96145C6.50219 6.03862 6.10006 5.99901 5.73461 5.84764C5.36916 5.69626 5.0568 5.43992 4.83704 5.11102C4.61727 4.78212 4.49998 4.39544 4.49998 3.99988C4.49998 3.46945 4.71069 2.96074 5.08576 2.58567C5.46084 2.21059 5.96954 1.99988 6.49998 1.99988ZM8.99998 9.99988H3.99998C3.73476 9.99988 3.48041 9.89452 3.29287 9.70699C3.10533 9.51945 2.99998 9.2651 2.99998 8.99988C2.99998 8.73466 3.10533 8.48031 3.29287 8.29277C3.48041 8.10524 3.73476 7.99988 3.99998 7.99988H8.99998C9.26519 7.99988 9.51955 8.10524 9.70708 8.29277C9.89462 8.48031 9.99998 8.73466 9.99998 8.99988C9.99998 9.2651 9.89462 9.51945 9.70708 9.70699C9.51955 9.89452 9.26519 9.99988 8.99998 9.99988Z" fill="#2D2D2D"/>
</g>
<defs>
<clipPath id="clip0">
<rect width="24" height="24" fill="white"/>
</clipPath>
</defs>
</svg>
