<svg width="24" height="24" viewBox="0 0 24 24" fill="none" xmlns="http://www.w3.org/2000/svg">
<path d="M19 23H5C4.73478 23 4.48043 22.8946 4.29289 22.7071C4.10536 22.5196 4 22.2652 4 22C4 21.7348 4.10536 21.4804 4.29289 21.2929C4.48043 21.1054 4.73478 21 5 21H19C19.2652 21 19.5196 21.1054 19.7071 21.2929C19.8946 21.4804 20 21.7348 20 22C20 22.2652 19.8946 22.5196 19.7071 22.7071C19.5196 22.8946 19.2652 23 19 23Z" fill="#bdbdbd"/>
<path d="M19 3H5C4.73478 3 4.48043 2.89464 4.29289 2.70711C4.10536 2.51957 4 2.26522 4 2C4 1.73478 4.10536 1.48043 4.29289 1.29289C4.48043 1.10536 4.73478 1 5 1H19C19.2652 1 19.5196 1.10536 19.7071 1.29289C19.8946 1.48043 20 1.73478 20 2C20 2.26522 19.8946 2.51957 19.7071 2.70711C19.5196 2.89464 19.2652 3 19 3Z" fill="#bdbdbd"/>
<path d="M22 5H2C1.73478 5 1.48043 5.10536 1.29289 5.29289C1.10536 5.48043 1 5.73478 1 6V18C1 18.2652 1.10536 18.5196 1.29289 18.7071C1.48043 18.8946 1.73478 19 2 19H22C22.2652 19 22.5196 18.8946 22.7071 18.7071C22.8946 18.5196 23 18.2652 23 18V6C23 5.73478 22.8946 5.48043 22.7071 5.29289C22.5196 5.10536 22.2652 5 22 5ZM12 8C12.3956 8 12.7822 8.1173 13.1111 8.33706C13.44 8.55682 13.6964 8.86918 13.8478 9.23463C13.9991 9.60009 14.0387 10.0022 13.9616 10.3902C13.8844 10.7781 13.6939 11.1345 13.4142 11.4142C13.1345 11.6939 12.7781 11.8844 12.3902 11.9616C12.0022 12.0387 11.6001 11.9991 11.2346 11.8478C10.8692 11.6964 10.5568 11.44 10.3371 11.1111C10.1173 10.7822 10 10.3956 10 10C10 9.46957 10.2107 8.96086 10.5858 8.58579C10.9609 8.21071 11.4696 8 12 8ZM14.5 16H9.5C9.23478 16 8.98043 15.8946 8.79289 15.7071C8.60536 15.5196 8.5 15.2652 8.5 15C8.5 14.7348 8.60536 14.4804 8.79289 14.2929C8.98043 14.1054 9.23478 14 9.5 14H14.5C14.7652 14 15.0196 14.1054 15.2071 14.2929C15.3946 14.4804 15.5 14.7348 15.5 15C15.5 15.2652 15.3946 15.5196 15.2071 15.7071C15.0196 15.8946 14.7652 16 14.5 16Z" fill="#bdbdbd"/>
</svg>
