<svg width="24" height="24" viewBox="0 0 24 24" fill="none" xmlns="http://www.w3.org/2000/svg">
<path d="M17.25 22.5H6.75C5.09531 22.5 3.75 21.1547 3.75 19.5V4.5C3.75 2.84531 5.09531 1.5 6.75 1.5H11.3813C11.9812 1.5 12.5484 1.73437 12.9703 2.16094L19.5938 8.78437C20.0203 9.21094 20.2547 9.77344 20.2547 10.3734V19.5C20.25 21.1547 18.9047 22.5 17.25 22.5ZM6.75 3C5.925 3 5.25 3.675 5.25 4.5V19.5C5.25 20.325 5.925 21 6.75 21H17.25C18.075 21 18.75 20.325 18.75 19.5V10.3734C18.75 10.1719 18.6703 9.98438 18.5297 9.84375L11.9109 3.22031C11.7703 3.07969 11.5828 3 11.3813 3H6.75Z" fill="#8e8e93"/>
<path d="M19.125 10.5H13.5C12.2578 10.5 11.25 9.49219 11.25 8.25V2.625C11.25 2.2125 11.5875 1.875 12 1.875C12.4125 1.875 12.75 2.2125 12.75 2.625V8.25C12.75 8.6625 13.0875 9 13.5 9H19.125C19.5375 9 19.875 9.3375 19.875 9.75C19.875 10.1625 19.5375 10.5 19.125 10.5Z" fill="#8e8e93"/>
</svg>
