<svg width="24" height="24" viewBox="0 0 24 24" fill="none" xmlns="http://www.w3.org/2000/svg">
<path d="M12.0032 6.8645C9.16741 6.8645 6.87158 9.16284 6.87158 11.9962C6.87158 14.832 9.16991 17.1278 12.0032 17.1278C14.8391 17.1278 17.1349 14.8295 17.1349 11.9962C17.1349 9.16034 14.8366 6.8645 12.0032 6.8645ZM12.0032 15.327C10.1624 15.327 8.67242 13.8362 8.67242 11.9962C8.67242 10.1562 10.1632 8.66534 12.0032 8.66534C13.8432 8.66534 15.3341 10.1562 15.3341 11.9962C15.3349 13.8362 13.8441 15.327 12.0032 15.327Z" fill="#8e8e93"/>
<path d="M16.1235 2.06282C14.2835 1.97699 9.72602 1.98116 7.88436 2.06282C6.26602 2.13866 4.83852 2.52949 3.68769 3.68032C1.76436 5.60366 2.01019 8.19532 2.01019 11.9962C2.01019 15.8862 1.79352 18.4178 3.68769 20.312C5.61852 22.242 8.24769 21.9895 12.0035 21.9895C15.8569 21.9895 17.1869 21.992 18.5494 21.4645C20.4019 20.7453 21.8002 19.0895 21.9369 16.1153C22.0235 14.2745 22.0185 9.71782 21.9369 7.87616C21.7719 4.36532 19.8877 2.23616 16.1235 2.06282ZM19.036 19.0395C17.7752 20.3003 16.026 20.1878 11.9794 20.1878C7.81269 20.1878 6.14186 20.2495 4.92269 19.027C3.51852 17.6295 3.77269 15.3853 3.77269 11.9828C3.77269 7.37865 3.30019 4.06282 7.92102 3.82616C8.98269 3.78866 9.29519 3.77616 11.9677 3.77616L12.0052 3.80116C16.446 3.80116 19.9302 3.33616 20.1394 7.95616C20.1869 9.01032 20.1977 9.32699 20.1977 11.9953C20.1969 16.1137 20.2752 17.7945 19.036 19.0395Z" fill="#8e8e93"/>
<path d="M17.3383 7.86122C18.0006 7.86122 18.5375 7.32433 18.5375 6.66205C18.5375 5.99977 18.0006 5.46289 17.3383 5.46289C16.676 5.46289 16.1392 5.99977 16.1392 6.66205C16.1392 7.32433 16.676 7.86122 17.3383 7.86122Z" fill="#2D2D2D"/>
</svg>
