<svg width="32" height="32" viewBox="0 0 32 32" fill="none" xmlns="http://www.w3.org/2000/svg">
<g clip-path="url(#clip0)">
<g filter="url(#filter0_d)">
<path d="M16 32C24.8366 32 32 24.8366 32 16C32 7.1634 24.8366 0 16 0C7.1634 0 0 7.1634 0 16C0 24.8366 7.1634 32 16 32Z" fill="#E2FFF6"/>
<path d="M30.5 16C30.5 24.0081 24.0081 30.5 16 30.5C7.9919 30.5 1.5 24.0081 1.5 16C1.5 7.9919 7.9919 1.5 16 1.5C24.0081 1.5 30.5 7.9919 30.5 16Z" stroke="white" stroke-opacity="0.08" stroke-width="3"/>
<mask id="mask0" mask-type="alpha" maskUnits="userSpaceOnUse" x="0" y="0" width="32" height="32">
<path d="M16 32C24.8366 32 32 24.8366 32 16C32 7.1634 24.8366 0 16 0C7.1634 0 0 7.1634 0 16C0 24.8366 7.1634 32 16 32Z" fill="#E2FFF6"/>
<path d="M30.5 16C30.5 24.0081 24.0081 30.5 16 30.5C7.9919 30.5 1.5 24.0081 1.5 16C1.5 7.9919 7.9919 1.5 16 1.5C24.0081 1.5 30.5 7.9919 30.5 16Z" stroke="white" stroke-opacity="0.08" stroke-width="3"/>
</mask>
<g mask="url(#mask0)">
<g filter="url(#filter1_d)">
<path fill-rule="evenodd" clip-rule="evenodd" d="M20.7221 0H23.2847C23.2847 0 19.6844 3.57846 19.6992 3.58558L19.5749 3.70071C19.5956 3.73063 19.6077 3.7669 19.6077 3.8059V5.3151V5.3943V5.7258L17.8751 7.2985C22.4843 8.211 25.9595 12.2764 25.9595 17.1535C25.9595 22.6153 21.601 27.0591 16.1724 27.1966C16.0862 27.1988 15.9998 27.1999 15.9131 27.1999C15.5663 27.1999 15.2236 27.1823 14.8859 27.148C9.81988 26.6335 5.86658 22.3552 5.86658 17.1535L5.86678 17.0963C5.86838 16.8109 5.88188 16.5284 5.90678 16.2491C6.30548 11.7804 9.63018 8.1537 13.9515 7.2984L12.2185 5.7258V5.3943V5.3151V3.8059C12.2185 3.77493 12.2261 3.74569 12.2396 3.71997L12.1025 3.58582C12.1173 3.57869 8.51688 0.000229836 8.51688 0.000229836H11.0795C11.0795 0.000229836 13.9943 2.89723 14.5678 3.48322L14.5679 3.48312C13.9947 2.89745 11.0795 0 11.0795 0H13.5775C13.5775 0 14.8673 1.28207 15.8995 2.31254L15.9205 2.29414C16.9495 1.26679 18.2239 0 18.2239 0H20.7219C20.7219 0 17.3752 3.32642 17.15 3.5697V3.56975L17.1501 3.56987L17.15 3.5697C17.3754 3.32642 20.7221 0 20.7221 0Z" fill="#E2FFF6"/>
</g>
<path d="M20.7221 0H23.2847C23.2847 0 19.6843 3.57846 19.6991 3.58558L17.5107 5.6134L15.5157 5.1219L17.1365 3.58558C17.1365 3.58504 17.1409 3.57956 17.1502 3.56969C17.3754 3.32642 20.7221 0 20.7221 0Z" fill="#FF6060"/>
<path d="M18.2239 0H20.7218C20.7218 0 17.3752 3.32642 17.15 3.56969C17.1406 3.57956 17.1363 3.58504 17.1363 3.58558L15.5155 5.1219L13.3195 4.5806L15.9204 2.29414C16.9494 1.26679 18.2239 0 18.2239 0Z" fill="#FFA7A7"/>
<path d="M14.665 3.58583L16.7751 5.7046L15.2393 6.6547L12.1024 3.58583C12.1172 3.5787 8.51678 0.000244141 8.51678 0.000244141H11.0795C11.0795 0.000244141 14.6798 3.5787 14.665 3.58583Z" fill="#FFA7A7"/>
<path d="M17.1499 3.56969C16.9241 3.32642 13.5774 0 13.5774 0H11.0795C11.0795 0 14.6798 3.57846 14.6651 3.58558L16.7751 5.7044L18.3388 4.7368L17.1499 3.56969Z" fill="#FF6060"/>
<path d="M18.5816 4.3501H13.3198L12.2184 5.3151V5.7258L13.9521 7.2989L15.0106 8.2194H16.6193L17.8746 7.2989L19.6077 5.7258V5.3151L18.5816 4.3501Z" fill="#E9E8E8"/>
<path d="M15.913 27.2C21.4615 27.2 25.9594 22.7021 25.9594 17.1536C25.9594 11.6051 21.4615 7.10718 15.913 7.10718C10.3645 7.10718 5.86658 11.6051 5.86658 17.1536C5.86658 22.7021 10.3645 27.2 15.913 27.2Z" fill="#FEE97D"/>
<path d="M9.86638 17.1536C9.86638 12.2899 13.3226 8.23378 17.9129 7.30648C17.2666 7.17588 16.5978 7.10718 15.913 7.10718C10.3645 7.10718 5.86658 11.6051 5.86658 17.1536C5.86658 22.7021 10.3645 27.2 15.913 27.2C16.5978 27.2 17.2666 27.1312 17.9129 27.0007C13.3226 26.0733 9.86638 22.0172 9.86638 17.1536Z" fill="#FEE45A"/>
<path d="M15.9133 25.0645C20.2824 25.0645 23.8243 21.5226 23.8243 17.1535C23.8243 12.7843 20.2824 9.24243 15.9133 9.24243C11.5441 9.24243 8.00226 12.7843 8.00226 17.1535C8.00226 21.5226 11.5441 25.0645 15.9133 25.0645Z" fill="#FED402"/>
<path d="M13.1205 9.75122C10.1323 10.8823 8.00177 13.7739 8.00177 17.1534C8.00177 20.5331 10.1316 23.4244 13.1199 24.5555C11.1197 22.7192 9.86617 20.0828 9.86617 17.1535C9.86617 14.2242 11.1204 11.5875 13.1205 9.75122Z" fill="#FAC600"/>
<path d="M19.8236 15.3265L17.7061 15.038C17.5387 15.0152 17.3932 14.9114 17.317 14.7606L16.3542 12.8527C16.1625 12.4728 15.6183 12.4776 15.4334 12.8609L14.5047 14.7856C14.4312 14.9378 14.2876 15.0441 14.1206 15.07L12.0085 15.3961C11.5879 15.461 11.4244 15.98 11.7318 16.2743L13.2753 17.7523C13.3974 17.8692 13.4541 18.0387 13.427 18.2055L13.0845 20.3149C13.0163 20.735 13.4594 21.0509 13.8343 20.8495L15.717 19.8383C15.8659 19.7583 16.0445 19.7567 16.1948 19.834L18.0952 20.8116C18.4736 21.0063 18.911 20.6825 18.8353 20.2637L18.4553 18.1607C18.4253 17.9944 18.479 17.824 18.5989 17.7049L20.116 16.1997C20.4181 15.8999 20.2453 15.3839 19.8236 15.3265Z" fill="#FEE97D"/>
<path d="M19.6077 3.8058V5.3942H12.2184V3.8058C12.2184 3.70389 12.3012 3.62061 12.4036 3.62061H19.423C19.5249 3.62061 19.6077 3.70389 19.6077 3.8058Z" fill="#F9F7F8"/>
</g>
</g>
</g>
<defs>
<filter id="filter0_d" x="-10" y="-6" width="52" height="52" filterUnits="userSpaceOnUse" color-interpolation-filters="sRGB">
<feFlood flood-opacity="0" result="BackgroundImageFix"/>
<feColorMatrix in="SourceAlpha" type="matrix" values="0 0 0 0 0 0 0 0 0 0 0 0 0 0 0 0 0 0 127 0"/>
<feOffset dy="4"/>
<feGaussianBlur stdDeviation="5"/>
<feColorMatrix type="matrix" values="0 0 0 0 0.895833 0 0 0 0 0.895833 0 0 0 0 0.895833 0 0 0 0.05 0"/>
<feBlend mode="normal" in2="BackgroundImageFix" result="effect1_dropShadow"/>
<feBlend mode="normal" in="SourceGraphic" in2="effect1_dropShadow" result="shape"/>
</filter>
<filter id="filter1_d" x="-9.13342" y="-15" width="50.0929" height="57.1999" filterUnits="userSpaceOnUse" color-interpolation-filters="sRGB">
<feFlood flood-opacity="0" result="BackgroundImageFix"/>
<feColorMatrix in="SourceAlpha" type="matrix" values="0 0 0 0 0 0 0 0 0 0 0 0 0 0 0 0 0 0 127 0"/>
<feOffset/>
<feGaussianBlur stdDeviation="7.5"/>
<feColorMatrix type="matrix" values="0 0 0 0 0 0 0 0 0 0.741176 0 0 0 0 0.517647 0 0 0 0.5 0"/>
<feBlend mode="normal" in2="BackgroundImageFix" result="effect1_dropShadow"/>
<feBlend mode="normal" in="SourceGraphic" in2="effect1_dropShadow" result="shape"/>
</filter>
<clipPath id="clip0">
<rect width="32" height="32" fill="white"/>
</clipPath>
</defs>
</svg>
