<svg width="24" height="24" viewBox="0 0 24 24" fill="none" xmlns="http://www.w3.org/2000/svg">
<path fill-rule="evenodd" clip-rule="evenodd" d="M12 2C8.13 2 5 5.05444 5 8.83102C5 12.9004 9.42 18.5116 11.24 20.6487C11.64 21.1171 12.37 21.1171 12.77 20.6487C14.58 18.5116 19 12.9004 19 8.83102C19 5.05444 15.87 2 12 2ZM12 11.2707C10.62 11.2707 9.5 10.1777 9.5 8.83102C9.5 7.48434 10.62 6.39137 12 6.39137C13.38 6.39137 14.5 7.48434 14.5 8.83102C14.5 10.1777 13.38 11.2707 12 11.2707Z" fill="#2D2D2D"/>
</svg>
