<svg width="32" height="32" viewBox="0 0 32 32" fill="none" xmlns="http://www.w3.org/2000/svg">
<path d="M16 32C24.8366 32 32 24.8366 32 16C32 7.16344 24.8366 0 16 0C7.16344 0 0 7.16344 0 16C0 24.8366 7.16344 32 16 32Z" fill="#E2FFF6"/>
<path d="M30.5 16C30.5 24.0081 24.0081 30.5 16 30.5C7.99187 30.5 1.5 24.0081 1.5 16C1.5 7.99187 7.99187 1.5 16 1.5C24.0081 1.5 30.5 7.99187 30.5 16Z" stroke="white" stroke-opacity="0.08" stroke-width="3"/>
<mask id="mask0" mask-type="alpha" maskUnits="userSpaceOnUse" x="0" y="0" width="32" height="32">
<path d="M16 32C24.8366 32 32 24.8366 32 16C32 7.16344 24.8366 0 16 0C7.16344 0 0 7.16344 0 16C0 24.8366 7.16344 32 16 32Z" fill="#E2FFF6"/>
<path d="M30.5 16C30.5 24.0081 24.0081 30.5 16 30.5C7.99187 30.5 1.5 24.0081 1.5 16C1.5 7.99187 7.99187 1.5 16 1.5C24.0081 1.5 30.5 7.99187 30.5 16Z" stroke="white" stroke-opacity="0.08" stroke-width="3"/>
</mask>
<g mask="url(#mask0)">
<g filter="url(#filter0_d)">
<path fill-rule="evenodd" clip-rule="evenodd" d="M12.9465 7.65396L13.165 8.04746L13.6958 7.09166C13.8131 6.8806 14.1168 6.8806 14.2341 7.09166L14.2367 7.09644L14.5464 7.65398L14.5463 7.65399L15.6236 9.59387L15.624 9.5942L15.6634 9.66511V17.3407C15.7352 17.283 15.8263 17.2486 15.9254 17.2486C16.1567 17.2486 16.3442 17.4361 16.3442 17.6674V21.4502C16.3442 21.5278 16.3359 21.6034 16.32 21.6763H16.8804C17.0051 21.6763 17.1065 21.5749 17.1065 21.4502V17.6674C17.1065 17.4361 17.294 17.2486 17.5253 17.2486C17.7565 17.2486 17.944 17.4361 17.944 17.6674V21.4502C17.9441 22.0367 17.4669 22.5138 16.8804 22.5138H16.2931V22.6328H15.6637V22.8235H15.6634V24.2193C15.6634 24.3502 15.6358 24.4746 15.5867 24.5875L15.585 24.5882H15.587C15.4858 24.8203 15.2923 25.0029 15.0528 25.0895V26.0949C15.0528 26.6958 14.5658 27.1829 13.9649 27.1829C13.6485 27.1829 13.3637 27.0479 13.1649 26.8323C12.9661 27.0478 12.6813 27.1828 12.365 27.1828C11.7642 27.1828 11.2771 26.6958 11.2771 26.0949V25.0894C10.9211 24.9606 10.6666 24.6196 10.6666 24.2192V22.8236V20.9998V9.66509L10.706 9.59418L10.7064 9.59385L12.096 7.09164C12.2132 6.88059 12.517 6.88059 12.6342 7.09164L12.9465 7.65396ZM3.20001 9.80321C3.20001 8.21831 4.48483 6.93355 6.06967 6.93355C7.65451 6.93355 8.93933 8.21831 8.93927 9.80321V12.006H3.44498C3.30972 12.006 3.20001 11.8964 3.20001 11.7611V9.80321ZM23.4121 17.6001C23.6333 17.6001 23.8499 17.6197 24.0603 17.6574L24.0403 17.6573L23.9947 17.6576C25.3655 17.8869 26.4778 18.8792 26.88 20.1831C27.3172 20.7854 27.575 21.5264 27.575 22.3275C27.575 24.3458 25.9389 25.9818 23.9207 25.9818C22.2779 25.9818 20.8883 24.8978 20.4282 23.4061C19.991 22.8038 19.7332 22.0628 19.7332 21.2617C19.7332 19.5997 20.8427 18.1968 22.3614 17.7534C22.6942 17.6536 23.0469 17.6001 23.4121 17.6001ZM28.851 23.4668C26.1486 27.9758 21.2142 30.9938 15.575 30.9938C13.2499 30.9938 11.0445 30.4807 9.06611 29.5616V31.1859V33.3882C9.06611 34.1808 9.38762 34.8986 9.9064 35.418C10.4219 35.9335 11.1329 36.2535 11.918 36.2582C12.5994 36.2624 13.2272 36.0171 13.7224 35.6109H28.851V32.3047V23.4668Z" fill="#E0FFF5"/>
</g>
<g filter="url(#filter1_d)">
<path fill-rule="evenodd" clip-rule="evenodd" d="M27.1545 7.24382C26.7641 7.04525 26.3222 6.93335 25.8541 6.93335H10.1145H9.30061H6.06987V6.93366L6.06967 6.93366C4.48483 6.93366 3.20001 8.21842 3.20001 9.80331V11.7612C3.20001 11.8965 3.30972 12.0062 3.44498 12.0062H8.93927V12.0057L8.93935 12.0057V31.1164V33.3187C8.93935 34.1113 9.26086 34.8291 9.77964 35.3484C9.98768 35.5565 10.2277 35.7325 10.4915 35.8689C10.8554 36.0606 11.2654 36.1763 11.7004 36.1952C11.7364 36.1967 11.7726 36.1976 11.809 36.1979L17.1084 25.156C17.1245 25.1525 17.1404 25.1486 17.1561 25.1444L11.8769 36.1975C12.5323 36.1856 13.135 35.9433 13.6139 35.5505L28.742 35.5505L28.7424 35.5505V32.2444V9.8126C28.7424 9.02 28.4215 8.30219 27.9022 7.78282C27.6847 7.56538 27.4325 7.38271 27.1545 7.24382ZM25.8541 6.93335L24.9212 8.87717L24.9249 8.87887L25.8541 6.93335ZM17.944 23.4948V23.4149L21.5024 16.0006L21.5172 16.0136L17.944 23.4948Z" fill="#E2FFF6"/>
</g>
<path d="M14.7941 32.9022C13.7944 32.9022 12.984 32.0918 12.984 31.0921V10.8072C12.984 10.7976 12.9839 10.788 12.9838 10.7783C12.975 10.0573 13.5606 9.46954 14.2817 9.46954H27.6805C28.0475 9.46954 28.398 9.53908 28.7207 9.66451C28.6856 8.92715 28.3728 8.26245 27.8839 7.77358C27.3646 7.25427 26.6468 6.93335 25.8542 6.93335H10.1145H9.30063H6.06989V9.26226L8.93937 12.0057V31.1164V33.3187C8.93937 34.1113 9.26088 34.8291 9.77966 35.3484C10.0082 35.577 10.2753 35.7669 10.5701 35.9081C10.5869 35.9163 10.6042 35.9235 10.6211 35.9313C10.6451 35.9422 10.6689 35.9534 10.6933 35.9636C11.0362 36.1114 11.4128 36.1955 11.809 36.1979C12.4904 36.202 13.1182 35.9567 13.6134 35.5505H28.742V32.9022H14.7941Z" fill="#FEFEFE"/>
<path d="M27.9021 7.78292C27.3828 7.26355 26.665 6.94263 25.8724 6.94263H6.08807V9.27154L8.95755 12.015V31.1256V33.3279C8.95755 34.1205 9.27907 34.8384 9.79785 35.3577C10.3134 35.8733 11.0244 36.1932 11.8094 36.198C12.4908 36.2021 13.1186 35.9568 13.6139 35.5506H28.7424V32.2445V9.8127C28.7424 9.0201 28.4215 8.30229 27.9021 7.78292V7.78292Z" fill="white"/>
<path fill-rule="evenodd" clip-rule="evenodd" d="M28.851 23.467C26.1486 27.976 21.2142 30.994 15.575 30.994C13.2499 30.994 11.0445 30.4809 9.0661 29.5618V31.1861V33.3884C9.0661 34.181 9.38761 34.8988 9.90639 35.4182C10.4219 35.9337 11.1329 36.2537 11.918 36.2584C12.5994 36.2625 13.2272 36.0173 13.7224 35.6111H28.851V32.3049V23.467Z" fill="#E9E9E9" fill-opacity="0.35"/>
<path d="M23.9207 25.9819C25.9389 25.9819 27.575 24.3459 27.575 22.3276C27.575 20.3094 25.9389 18.6733 23.9207 18.6733C21.9025 18.6733 20.2664 20.3094 20.2664 22.3276C20.2664 24.3459 21.9025 25.9819 23.9207 25.9819Z" fill="#FBFBFB"/>
<path d="M23.3875 24.916C25.4057 24.916 27.0418 23.2799 27.0418 21.2617C27.0418 19.2435 25.4057 17.6074 23.3875 17.6074C21.3692 17.6074 19.7332 19.2435 19.7332 21.2617C19.7332 23.2799 21.3692 24.916 23.3875 24.916Z" fill="#FED402"/>
<path fill-rule="evenodd" clip-rule="evenodd" d="M24.0603 17.6574C23.8499 17.6197 23.6333 17.6001 23.4121 17.6001C21.3939 17.6001 19.7578 19.2362 19.7578 21.2544C19.7578 23.2659 21.3831 24.8979 23.3921 24.9087C21.6831 24.6027 20.386 23.1087 20.386 21.3117C20.386 19.2934 22.0221 17.6573 24.0403 17.6573C24.0469 17.6573 24.0536 17.6574 24.0603 17.6574Z" fill="#F4CC05"/>
<path d="M22.8583 22.8514C22.7915 22.8514 22.724 22.8362 22.661 22.8047L21.9557 22.4521C21.7376 22.3431 21.6491 22.0778 21.7582 21.8596C21.8672 21.6414 22.1325 21.5529 22.3508 21.6621L22.736 21.8547L24.2762 19.9225C24.4283 19.7317 24.7063 19.7004 24.8969 19.8524C25.0876 20.0044 25.119 20.2823 24.967 20.473L23.2038 22.685C23.1177 22.793 22.9894 22.8514 22.8583 22.8514V22.8514Z" fill="#F9F7F8"/>
<path d="M6.06967 6.93359C4.48483 6.93359 3.20001 8.21835 3.20001 9.80325V11.7611C3.20001 11.8964 3.30972 12.0061 3.44498 12.0061H8.93927V9.80325C8.93933 8.21835 7.65451 6.93359 6.06967 6.93359V6.93359Z" fill="#E9E9E9"/>
<path fill-rule="evenodd" clip-rule="evenodd" d="M14.5463 7.65398L15.6236 9.59385L15.624 9.59419L15.6634 9.6651V20.9998H15.6637V21.4133H16.2931V21.6763H16.8804C17.0051 21.6763 17.1065 21.5749 17.1065 21.4502V17.6674C17.1065 17.4361 17.294 17.2486 17.5253 17.2486C17.7565 17.2486 17.944 17.4361 17.944 17.6674V21.4502C17.9441 22.0366 17.4669 22.5138 16.8804 22.5138H16.2931V22.6328H15.6637V22.8235H15.6634V24.2192C15.6634 24.3502 15.6358 24.4746 15.5867 24.5875L15.585 24.5882H15.587C15.4858 24.8202 15.2923 25.0029 15.0528 25.0894V26.0949C15.0528 26.6958 14.5658 27.1829 13.9649 27.1829C13.364 27.1829 12.8769 26.6958 12.8769 26.0949V25.0894C12.5209 24.9605 12.2665 24.6195 12.2665 24.2191V22.8235V20.9998V9.66502L12.3058 9.59411L12.3063 9.59373L13.6958 7.09164C13.8131 6.88059 14.1168 6.88059 14.2341 7.09164L14.2367 7.09643L14.5464 7.65396L14.5463 7.65398Z" fill="#FBFBFB"/>
<path d="M13.453 23.9719H11.277V26.095C11.277 26.6959 11.7641 27.1829 12.365 27.1829C12.9659 27.1829 13.453 26.6958 13.453 26.095V23.9719H13.453Z" fill="#C9BFC8"/>
<path d="M15.2805 22.5138H12.6119C12.3807 22.5138 12.1932 22.3263 12.1932 22.095C12.1932 21.8637 12.3807 21.6762 12.6119 21.6762H15.2805C15.4052 21.6762 15.5066 21.5748 15.5066 21.4502V17.6673C15.5066 17.436 15.6941 17.2485 15.9254 17.2485C16.1567 17.2485 16.3442 17.436 16.3442 17.6673V21.4502C16.3442 22.0366 15.867 22.5138 15.2805 22.5138V22.5138Z" fill="#009065"/>
<path d="M14.0241 9.59419L13.3378 8.98999H11.4588L11.2794 9.13393V24.8337H11.3782L13.296 24.8723L13.9868 24.5875C14.0359 24.4746 14.0635 24.3502 14.0635 24.2192V9.6651L14.0241 9.59419Z" fill="#02D293"/>
<path d="M12.7942 24.5882C12.2833 24.5882 11.869 24.1739 11.869 23.663V9.10892L11.9084 9.03801L11.9682 8.98999H11.4588L10.706 9.59424L10.6666 9.66515V24.2192C10.6666 24.7301 11.0809 25.1444 11.5918 25.1444H13.1385C13.5181 25.1444 13.8445 24.9155 13.9871 24.5883L12.7942 24.5882Z" fill="#00BD84"/>
<path fill-rule="evenodd" clip-rule="evenodd" d="M14.6935 22.6329H12.5705C12.3392 22.6329 12.1517 22.3599 12.1517 22.0231C12.1517 21.6863 12.3392 21.4133 12.5705 21.4133H14.6935V22.6329Z" fill="#027C58"/>
<path d="M10.6666 20.9998H14.0638V22.8235H10.6666V20.9998Z" fill="#009165"/>
<path d="M10.6666 20.9998H11.869V22.8235H10.6666V20.9998Z" fill="#027C58"/>
<path d="M12.6342 7.09164L14.024 9.59419H10.7062L12.096 7.09164C12.2132 6.88059 12.517 6.88059 12.6342 7.09164V7.09164Z" fill="#C9BFC8"/>
<path d="M12.9465 7.65396L12.6342 7.09164C12.517 6.88059 12.2132 6.88059 12.096 7.09164L10.7062 9.59419H11.869L12.9465 7.65396Z" fill="#BAAFB9"/>
</g>
<defs>
<filter id="filter0_d" x="-11.8" y="-8.06665" width="55.651" height="59.3249" filterUnits="userSpaceOnUse" color-interpolation-filters="sRGB">
<feFlood flood-opacity="0" result="BackgroundImageFix"/>
<feColorMatrix in="SourceAlpha" type="matrix" values="0 0 0 0 0 0 0 0 0 0 0 0 0 0 0 0 0 0 127 0"/>
<feOffset/>
<feGaussianBlur stdDeviation="7.5"/>
<feColorMatrix type="matrix" values="0 0 0 0 0 0 0 0 0 0.741176 0 0 0 0 0.517647 0 0 0 0.1 0"/>
<feBlend mode="normal" in2="BackgroundImageFix" result="effect1_dropShadow"/>
<feBlend mode="normal" in="SourceGraphic" in2="effect1_dropShadow" result="shape"/>
</filter>
<filter id="filter1_d" x="-11.8" y="-8.06665" width="55.5424" height="59.2645" filterUnits="userSpaceOnUse" color-interpolation-filters="sRGB">
<feFlood flood-opacity="0" result="BackgroundImageFix"/>
<feColorMatrix in="SourceAlpha" type="matrix" values="0 0 0 0 0 0 0 0 0 0 0 0 0 0 0 0 0 0 127 0"/>
<feOffset/>
<feGaussianBlur stdDeviation="7.5"/>
<feColorMatrix type="matrix" values="0 0 0 0 0 0 0 0 0 0.741176 0 0 0 0 0.517647 0 0 0 0.1 0"/>
<feBlend mode="normal" in2="BackgroundImageFix" result="effect1_dropShadow"/>
<feBlend mode="normal" in="SourceGraphic" in2="effect1_dropShadow" result="shape"/>
</filter>
</defs>
</svg>
