<svg width="24" height="24" viewBox="0 0 24 24" fill="none" xmlns="http://www.w3.org/2000/svg">
<path d="M21 20H3C2.46957 20 1.96086 19.7893 1.58579 19.4142C1.21071 19.0391 1 18.5304 1 18V6C1 5.46957 1.21071 4.96086 1.58579 4.58579C1.96086 4.21071 2.46957 4 3 4H8C8.26522 4 8.51957 4.10536 8.70711 4.29289C8.89464 4.48043 9 4.73478 9 5C9 5.26522 8.89464 5.51957 8.70711 5.70711C8.51957 5.89464 8.26522 6 8 6H3V18H21V15C21 14.7348 21.1054 14.4804 21.2929 14.2929C21.4804 14.1054 21.7348 14 22 14C22.2652 14 22.5196 14.1054 22.7071 14.2929C22.8946 14.4804 23 14.7348 23 15V18C23 18.5304 22.7893 19.0391 22.4142 19.4142C22.0391 19.7893 21.5304 20 21 20Z" fill="#fff"/>
<path d="M22.7099 7.2899L17.7099 2.2899C17.5693 2.15114 17.3908 2.05714 17.1968 2.01977C17.0028 1.98239 16.8021 2.00332 16.62 2.0799C16.4373 2.15492 16.281 2.28231 16.1707 2.44603C16.0603 2.60975 16.0009 2.80247 16 2.9999V5.1499C12.46 5.8399 6.99995 8.5299 6.99995 14.9999C6.99165 15.2243 7.05915 15.445 7.19158 15.6265C7.32401 15.8079 7.51365 15.9394 7.72995 15.9999C7.81936 16.0145 7.91054 16.0145 7.99995 15.9999C8.1699 16.0002 8.33712 15.9573 8.48585 15.875C8.63457 15.7928 8.75988 15.674 8.84995 15.5299C9.65657 14.3204 10.7113 13.2963 11.944 12.5256C13.1767 11.7549 14.5593 11.2553 16 11.0599V12.9999C16.0009 13.1973 16.0603 13.39 16.1707 13.5538C16.281 13.7175 16.4373 13.8449 16.62 13.9199C16.7386 13.9759 16.8688 14.0033 17 13.9999C17.1316 14.0007 17.262 13.9754 17.3839 13.9257C17.5057 13.8759 17.6165 13.8026 17.7099 13.7099L22.7099 8.7099C22.8037 8.61693 22.8781 8.50633 22.9288 8.38447C22.9796 8.26261 23.0057 8.13191 23.0057 7.9999C23.0057 7.86788 22.9796 7.73718 22.9288 7.61532C22.8781 7.49346 22.8037 7.38286 22.7099 7.2899Z" fill="#fff"/>
</svg>
