<svg width="48" height="48" viewBox="0 0 48 48" fill="none" xmlns="http://www.w3.org/2000/svg">
<circle cx="24" cy="24" r="24" fill="url(#paint0_linear)"/>
<path d="M18.8333 34.6667C18.7333 34.6667 18.5333 34.6667 18.4333 34.5667C18.0333 34.3667 17.8333 34.0667 17.8333 33.6667V30.8667H16.9333C14.9333 30.8667 13.3333 29.2667 13.3333 27.2667V18.2667C13.3333 16.2667 14.9333 14.6667 16.9333 14.6667H31.2333C33.2333 14.6667 34.8333 16.2667 34.8333 18.2667V27.2667C34.8333 29.2667 33.2333 30.8667 31.2333 30.8667H23.7333L19.5333 34.3667C19.2333 34.5667 19.0333 34.6667 18.8333 34.6667ZM16.9333 16.6667C16.0333 16.6667 15.3333 17.3667 15.3333 18.2667V27.2667C15.3333 28.1667 16.0333 28.8667 16.9333 28.8667H18.8333C19.4333 28.8667 19.8333 29.2667 19.8333 29.8667V31.4667L22.6333 29.1667C22.9333 28.9667 23.2333 28.8667 23.5333 28.8667H31.2333C32.1333 28.8667 32.8333 28.1667 32.8333 27.2667V18.2667C32.7333 17.3667 32.0333 16.6667 31.1333 16.6667H16.9333Z" fill="white"/>
<path d="M19.5332 24.2671C20.3616 24.2671 21.0332 23.5955 21.0332 22.7671C21.0332 21.9387 20.3616 21.2671 19.5332 21.2671C18.7048 21.2671 18.0332 21.9387 18.0332 22.7671C18.0332 23.5955 18.7048 24.2671 19.5332 24.2671Z" fill="white"/>
<path d="M24.0332 24.2671C24.8616 24.2671 25.5332 23.5955 25.5332 22.7671C25.5332 21.9387 24.8616 21.2671 24.0332 21.2671C23.2048 21.2671 22.5332 21.9387 22.5332 22.7671C22.5332 23.5955 23.2048 24.2671 24.0332 24.2671Z" fill="white"/>
<path d="M28.5332 24.2671C29.3616 24.2671 30.0332 23.5955 30.0332 22.7671C30.0332 21.9387 29.3616 21.2671 28.5332 21.2671C27.7048 21.2671 27.0332 21.9387 27.0332 22.7671C27.0332 23.5955 27.7048 24.2671 28.5332 24.2671Z" fill="white"/>
<mask id="mask0" mask-type="alpha" maskUnits="userSpaceOnUse" x="0" y="0" width="48" height="48">
<circle cx="24" cy="24" r="24" fill="url(#paint1_linear)"/>
</mask>
<g mask="url(#mask0)">
<rect x="24" y="-25" width="37" height="37" rx="5" fill="white" fill-opacity="0.08"/>
<rect x="-8" y="28" width="37" height="37" rx="5" fill="white" fill-opacity="0.08"/>
<rect x="3" y="36" width="37" height="37" rx="5" fill="white" fill-opacity="0.08"/>
</g>
<defs>
<linearGradient id="paint0_linear" x1="40.5" y1="45.5" x2="9" y2="2.5" gradientUnits="userSpaceOnUse">
<stop stop-color="#FF7A00"/>
<stop offset="1" stop-color="#FFB46F"/>
</linearGradient>
<linearGradient id="paint1_linear" x1="40.5" y1="45.5" x2="9" y2="2.5" gradientUnits="userSpaceOnUse">
<stop stop-color="#FF7A00"/>
<stop offset="1" stop-color="#FFB46F"/>
</linearGradient>
</defs>
</svg>
