<svg width="48" height="48" viewBox="0 0 48 48" fill="none" xmlns="http://www.w3.org/2000/svg">
<circle cx="24" cy="24" r="24" fill="url(#paint0_linear)"/>
<mask id="mask0" mask-type="alpha" maskUnits="userSpaceOnUse" x="0" y="0" width="48" height="48">
<circle cx="24" cy="24" r="24" fill="url(#paint1_linear)"/>
</mask>
<g mask="url(#mask0)">
<rect x="-13" y="-11" width="37" height="37" rx="5" fill="white" fill-opacity="0.1"/>
<rect x="21" y="30" width="37" height="37" rx="5" fill="white" fill-opacity="0.08"/>
<rect x="33" y="23" width="37" height="37" rx="5" fill="white" fill-opacity="0.08"/>
</g>
<path fill-rule="evenodd" clip-rule="evenodd" d="M32.5033 15.4875C31.3939 14.3776 30.0759 13.498 28.6252 12.8995C27.1745 12.301 25.6197 11.9953 24.0503 12.0001C17.4643 12.0001 12.1029 17.3347 12.1002 23.8929C12.0973 25.9812 12.6477 28.0329 13.6955 29.8393L12 36L18.3348 34.3463C20.0883 35.2962 22.0512 35.7934 24.0455 35.7927H24.0503C30.6358 35.7927 35.9967 30.4575 35.9999 23.8998C36.0039 22.3359 35.6969 20.7867 35.0966 19.3425C34.4963 17.8983 33.6148 16.5879 32.5033 15.4875ZM24.0503 33.7854H24.046C22.2682 33.7859 20.5227 33.3101 18.9911 32.4075L18.6284 32.1932L14.8693 33.1747L15.8727 29.527L15.6364 29.152C14.6423 27.5782 14.1157 25.7544 14.1177 23.8929C14.1177 18.4431 18.5753 14.009 24.0541 14.009C26.6823 14.0043 29.2047 15.0437 31.0666 16.8987C32.9285 18.7536 33.9773 21.2722 33.9824 23.9004C33.9803 29.3507 29.5248 33.7854 24.0503 33.7854ZM29.498 26.3823C29.1996 26.2334 27.7301 25.5145 27.458 25.4154C27.1859 25.3163 26.985 25.2665 26.7862 25.5643C26.5875 25.8622 26.0148 26.5286 25.8407 26.7295C25.6666 26.9304 25.4925 26.9523 25.1941 26.8034C24.8957 26.6545 23.933 26.3411 22.7925 25.3286C21.9048 24.5406 21.3059 23.5677 21.1318 23.2704C20.9577 22.9731 21.113 22.8118 21.2625 22.664C21.3969 22.5306 21.5609 22.3168 21.7103 22.1432C21.8598 21.9697 21.9096 21.8454 22.0087 21.6472C22.1078 21.449 22.0585 21.2754 21.9841 21.127C21.9096 20.9786 21.3123 19.5156 21.0637 18.9204C20.8211 18.3408 20.5752 18.4195 20.3919 18.4104C20.2178 18.4018 20.0169 18.3997 19.8193 18.3997C19.6681 18.4036 19.5195 18.4387 19.3825 18.5026C19.2455 18.5666 19.1232 18.6581 19.0232 18.7715C18.7494 19.0693 17.978 19.7893 17.978 21.2507C17.978 22.7122 19.0494 24.1265 19.1973 24.3247C19.3452 24.5229 21.3027 27.5245 24.2978 28.8118C24.854 29.05 25.4223 29.2588 26.0003 29.4375C26.7155 29.6636 27.3664 29.632 27.8807 29.5554C28.4544 29.4702 29.6485 28.8364 29.8966 28.1422C30.1446 27.4479 30.1451 26.8532 30.0707 26.7295C29.9962 26.6057 29.7969 26.5307 29.498 26.3823Z" fill="white"/>
<defs>
<linearGradient id="paint0_linear" x1="55.5" y1="57.5" x2="-1.5" y2="-3.5" gradientUnits="userSpaceOnUse">
<stop stop-color="#00BD84"/>
<stop offset="1" stop-color="#09DD9D"/>
</linearGradient>
<linearGradient id="paint1_linear" x1="55.5" y1="57.5" x2="-1.5" y2="-3.5" gradientUnits="userSpaceOnUse">
<stop stop-color="#00BD84"/>
<stop offset="1" stop-color="#09DD9D"/>
</linearGradient>
</defs>
</svg>
