<svg width="24" height="24" viewBox="0 0 24 24" fill="none" xmlns="http://www.w3.org/2000/svg">
<path d="M6.7188 9.77402C7.98229 9.77402 9.00656 8.74975 9.00656 7.48625C9.00656 6.22275 7.98229 5.19849 6.7188 5.19849C5.4553 5.19849 4.43103 6.22275 4.43103 7.48625C4.43103 8.74975 5.4553 9.77402 6.7188 9.77402Z" fill="#fff"/>
<path d="M18.2459 15.3582C18.0695 15.4905 17.8821 15.6173 17.6836 15.7385C16.0188 16.7584 13.7972 17.3262 11.4267 17.3262C9.05629 17.3262 6.84019 16.7639 5.16984 15.7385C4.97139 15.6173 4.78395 15.4905 4.60755 15.3582C4.47524 15.5346 4.34845 15.7165 4.22717 15.8984C4.4146 16.0362 4.61306 16.174 4.82254 16.3008C6.59212 17.3868 8.93501 17.9822 11.4212 17.9822C13.9075 17.9822 16.2559 17.3923 18.0254 16.3063C18.2349 16.1795 18.4334 16.0417 18.6208 15.9039C18.505 15.7165 18.3782 15.5346 18.2459 15.3582Z" fill="#fff"/>
<path d="M18.0254 7.85017C17.0772 7.27134 15.9692 6.83033 14.7564 6.54367C14.9714 6.79725 15.1643 7.0784 15.3187 7.37608C16.1841 7.63518 16.978 7.98248 17.6781 8.41247C19.2933 9.40475 20.1808 10.7057 20.1808 12.0784C20.1808 13.4511 19.2933 14.7521 17.6781 15.7443C16.0133 16.7642 13.7916 17.332 11.4212 17.332C9.05073 17.332 6.83463 16.7697 5.16428 15.7443C3.54907 14.7521 2.66152 13.4511 2.66152 12.0784C2.66152 10.7057 3.54907 9.40475 5.16428 8.41247C5.86991 7.98799 6.66373 7.63518 7.52923 7.37608C7.68358 7.0784 7.87101 6.79725 8.09152 6.54367C8.35062 6.48303 5.97465 7.14455 4.8225 7.85017C3.00331 8.96374 2 10.4687 2 12.0784C2 13.6881 3.00331 15.1876 4.8225 16.3066C6.59207 17.3926 8.93496 17.988 11.4212 17.988C13.9074 17.988 16.2558 17.3926 18.0254 16.3066C19.8446 15.1931 20.8479 13.6881 20.8479 12.0784C20.8479 10.4687 19.8446 8.96925 18.0254 7.85017Z" fill="#fff"/>
<path d="M20.258 14.5038C21.2201 14.5038 22 13.7239 22 12.7618C22 11.7997 21.2201 11.0198 20.258 11.0198C19.2959 11.0198 18.516 11.7997 18.516 12.7618C18.516 13.7239 19.2959 14.5038 20.258 14.5038Z" fill="#fff"/>
<path d="M7.76637 18.2195C8.33875 18.2195 8.80275 17.7555 8.80275 17.1831C8.80275 16.6107 8.33875 16.1467 7.76637 16.1467C7.19399 16.1467 6.72998 16.6107 6.72998 17.1831C6.72998 17.7555 7.19399 18.2195 7.76637 18.2195Z" fill="#fff"/>
<path d="M7.76623 18.4233C8.45126 18.4233 9.00659 17.868 9.00659 17.183C9.00659 16.498 8.45126 15.9426 7.76623 15.9426C7.0812 15.9426 6.52588 16.498 6.52588 17.183C6.52588 17.868 7.0812 18.4233 7.76623 18.4233Z" fill="#fff"/>
<path d="M14.4808 12.5303C15.2967 11.731 15.8094 10.6229 15.8094 9.3881C15.8094 6.96803 13.8468 5 11.4213 5C8.99567 5 7.03315 6.96252 7.03315 9.3881C7.03315 10.6229 7.54032 11.731 8.36171 12.5303C7.20956 12.9713 6.17317 13.6549 5.32422 14.5204C5.45652 14.6141 5.59434 14.7078 5.74318 14.796C6.096 15.011 6.47637 15.204 6.88431 15.3749C7.14892 15.2481 7.4466 15.1709 7.76083 15.1709C8.46094 15.1709 9.07285 15.5292 9.43117 16.0695C10.0706 16.1687 10.7377 16.2183 11.4213 16.2183C13.5877 16.2183 15.6054 15.7112 17.0993 14.796C17.2482 14.7078 17.386 14.6141 17.5183 14.5204C16.6693 13.6604 15.6385 12.9769 14.4808 12.5303Z" fill="#fff"/>
<path d="M19.1609 16.8745C18.9845 17.0013 18.7971 17.1226 18.6042 17.2439C16.6637 18.4346 14.1168 19.0906 11.4266 19.0906C10.5391 19.0906 9.6681 19.0189 8.83017 18.8811C8.52146 19.0741 8.15762 19.1898 7.76622 19.1898C6.98893 19.1898 6.3219 18.7488 5.98562 18.1094C5.3682 17.8668 4.78386 17.5746 4.24912 17.2494C4.05618 17.1281 3.86875 17.0068 3.69234 16.88C3.16864 17.9881 2.87646 19.2229 2.87646 20.5239H19.9768C19.9768 19.2174 19.6847 17.9826 19.1609 16.8745Z" fill="#fff"/>
</svg>
